<svg width="65" height="65" viewBox="0 0 65 65" fill="none" xmlns="http://www.w3.org/2000/svg">
<path d="M36.9351 46.9246C36.8459 46.9246 36.7568 46.9395 36.6649 46.9395C35.7449 46.9395 34.8763 46.6936 34.1117 46.4775C33.5091 46.3072 32.9404 46.1465 32.5027 46.1465C32.065 46.1465 31.4963 46.3072 30.8937 46.4775C30.1278 46.6936 29.2605 46.9395 28.3391 46.9395C27.9902 46.9404 27.6423 46.9028 27.3016 46.8273C25.9507 46.5193 24.9915 45.6682 24.1459 44.9185C23.692 44.5132 23.2637 44.1363 22.899 43.9607C22.5342 43.7851 21.9614 43.6837 21.3603 43.5757C20.47 43.4176 19.4852 43.2352 18.5787 42.7286L13.0223 53.7981L23.4177 53.9332L29.3699 62.0009L36.9351 46.9246Z" fill="#F4F0F0"/>
<path d="M46.4143 42.7383C45.5186 43.2381 44.5419 43.4137 43.657 43.5786C43.2369 43.6417 42.8213 43.7319 42.4128 43.8487L42.3129 43.8785C42.2182 43.91 42.1254 43.9466 42.0346 43.9879C42.0103 44.0014 41.8887 44.0798 41.7644 44.1554C41.4494 44.3898 41.1477 44.6414 40.8606 44.9092C40.3202 45.3902 39.6867 45.9467 38.9193 46.3561L33.3535 57.4337L35.6501 61.9809L41.3875 53.6632L51.9828 53.7889L46.4143 42.7383Z" fill="#F4F0F0"/>
<path d="M54 24.0291C54 22.4418 52.5869 21.0152 52.2438 19.5279C51.8939 17.9892 52.5437 16.1006 51.8682 14.6996C51.1928 13.2987 49.292 12.6246 48.3288 11.4115C47.3656 10.1984 47.1292 8.19763 45.8971 7.22362C44.6651 6.2496 42.6968 6.4725 41.2837 5.78488C39.8936 5.12157 38.8345 3.42076 37.2917 3.07087C35.7909 2.73314 34.1063 3.78281 32.5027 3.78281C30.8992 3.78281 29.2132 2.73314 27.7123 3.07087C26.175 3.42076 25.1118 5.12157 23.7109 5.78353C22.2978 6.47115 20.3092 6.25905 19.0961 7.22227C17.883 8.18548 17.6466 10.1862 16.6644 11.4101C15.6823 12.6341 13.8072 13.2879 13.1318 14.6996C12.4563 16.1114 13.1061 17.9892 12.7562 19.5279C12.4185 21.0139 11 22.4418 11 24.0291C11 25.6165 12.4185 27.0498 12.7616 28.5439C13.1115 30.0826 12.4617 31.9699 13.1372 33.3586C13.8126 34.7717 15.7134 35.435 16.6752 36.6603C17.6371 37.8856 17.8762 39.862 19.1069 40.8374C19.2108 40.9148 19.3201 40.9848 19.4338 41.0468C20.6497 41.7722 22.4261 41.656 23.7217 42.2748C25.1226 42.9502 26.1858 44.651 27.7231 45.0009C29.224 45.3387 30.9127 44.2755 32.5135 44.2755C34.1144 44.2755 35.8017 45.3387 37.3025 45.0009C37.5679 44.9365 37.8232 44.8366 38.0618 44.7037C39.0344 44.1863 39.8463 43.2177 40.7636 42.5882C40.7933 42.5693 40.8258 42.5544 40.8555 42.5355C40.9986 42.4388 41.148 42.3517 41.3026 42.2748C41.4777 42.1952 41.6583 42.1284 41.843 42.0748C43.048 41.6804 44.5219 41.6858 45.581 41.0616C45.6988 40.9951 45.8117 40.9201 45.9188 40.8374C47.1346 39.862 47.3697 37.8734 48.3504 36.6603C49.3312 35.4472 51.2144 34.7839 51.8899 33.3586C52.5653 31.9699 51.9155 30.0826 52.2654 28.5439C52.5869 27.0498 54 25.63 54 24.0291ZM41.3513 38.1274C38.2247 40.0877 34.5354 40.9534 30.8632 40.5884C27.191 40.2234 23.7443 38.6485 21.0648 36.1111C18.3853 33.5737 16.6249 30.2179 16.0605 26.571C15.4961 22.9242 16.1596 19.1931 17.9468 15.9645C19.7339 12.7358 22.5433 10.1926 25.9333 8.73465C29.3234 7.27668 33.1018 6.98662 36.6747 7.91007C40.2475 8.83353 43.4122 10.9181 45.6712 13.8362C47.9302 16.7542 49.1554 20.3402 49.1542 24.0305C49.1629 26.8505 48.4506 29.6259 47.0849 32.0931C45.7192 34.5603 43.7455 36.6375 41.3513 38.1274Z" fill="#F4F0F0"/>
<path d="M32.5027 9.33775C29.6018 9.34202 26.7671 10.2059 24.3569 11.8203C21.9466 13.4347 20.0689 15.7271 18.9608 18.4081C17.8527 21.089 17.5639 24.0383 18.131 26.8832C18.6981 29.7282 20.0956 32.3413 22.147 34.3925C24.1983 36.4437 26.8116 37.8409 29.6566 38.4078C32.5016 38.9746 35.4508 38.6856 38.1317 37.5772C40.8126 36.4689 43.1049 34.5909 44.719 32.1805C46.3332 29.7701 47.1968 26.9354 47.2008 24.0345C47.1965 20.1377 45.6465 16.4019 42.891 13.6466C40.1355 10.8913 36.3994 9.34168 32.5027 9.33775Z" fill="#F4F0F0"/>
<path fill-rule="evenodd" clip-rule="evenodd" d="M32.3064 34.3325L26.3749 26.5727C25.5099 25.3722 25 23.8989 25 22.3063C25 18.2711 28.2711 15.0001 32.3063 15C36.3415 15.0001 39.6126 18.2711 39.6126 22.3063C39.6126 23.8989 39.1027 25.3723 38.2377 26.5727L36.5796 28.7419L34.5297 26.0601L35.4809 24.8156C35.5086 24.7807 35.5356 24.7453 35.5621 24.7094L35.5684 24.7012C36.0616 24.0306 36.3529 23.2025 36.3529 22.3062C36.3529 20.0712 34.5412 18.2596 32.3063 18.2596C30.0714 18.2596 28.2597 20.0713 28.2597 22.3062C28.2597 23.1728 28.5323 23.9756 28.9961 24.6339L28.9991 24.6381C29.0586 24.7224 29.1212 24.8043 29.1868 24.8837L34.3578 31.6485L32.3064 34.3325Z" fill="#2D2C2C"/>
<path fill-rule="evenodd" clip-rule="evenodd" d="M32.483 20.3124C32.5608 20.3199 32.6373 20.3321 32.7122 20.3484L32.7594 20.3361L32.8795 20.0738L32.9002 20.0638L32.9998 20.0871L33.0939 20.1268L33.1048 20.1471L33.0478 20.4298L33.0788 20.4675C33.1499 20.4987 33.2189 20.534 33.2854 20.573L33.3346 20.576L33.5298 20.3637L33.5525 20.3605L33.64 20.4134L33.7174 20.4802L33.7214 20.5029L33.5798 20.7541L33.5978 20.8C33.6556 20.8515 33.7101 20.9063 33.7615 20.9641L33.8073 20.9817L34.0586 20.8401L34.0813 20.8441L34.1481 20.9214L34.201 21.0089L34.1978 21.0317L33.9855 21.2269L33.9884 21.2761C34.0275 21.3425 34.0627 21.4115 34.0939 21.4827L34.1316 21.5137L34.4144 21.4567L34.4347 21.4675L34.4744 21.5617L34.4977 21.6613L34.4876 21.682L34.2253 21.802L34.213 21.8494C34.2294 21.9242 34.2416 22.0006 34.2492 22.0784L34.2757 22.1199L34.5623 22.153L34.5783 22.1696L34.5869 22.2715L34.5783 22.3733L34.5623 22.3899L34.2757 22.4231L34.2492 22.4646C34.2416 22.5424 34.2295 22.6189 34.2131 22.6937L34.2253 22.7409L34.4876 22.861L34.4977 22.8817L34.4744 22.9812L34.4347 23.0754L34.4144 23.0863L34.1316 23.0293L34.0939 23.0602C34.0628 23.1314 34.0275 23.2004 33.9884 23.2669L33.9855 23.316L34.1978 23.5112L34.201 23.534L34.1481 23.6215L34.0812 23.6989L34.0586 23.7029L33.8073 23.5613L33.7615 23.5793C33.71 23.6372 33.6552 23.6916 33.5972 23.743L33.5798 23.7888L33.7214 24.0401L33.7174 24.0627L33.64 24.1295L33.5525 24.1825L33.5298 24.1793L33.3346 23.967L33.2854 23.9699C33.2189 24.009 33.1501 24.0441 33.0789 24.0753L33.0478 24.1131L33.1048 24.3959L33.0939 24.4162L32.9998 24.4558L32.9002 24.4792L32.8795 24.4691L32.7594 24.2068L32.7122 24.1946C32.6373 24.2109 32.5608 24.223 32.483 24.2306L32.4416 24.2572L32.4084 24.5438L32.3919 24.5597L32.29 24.5683L32.1881 24.5597L32.1715 24.5438L32.1384 24.2572L32.0969 24.2307C32.0191 24.2231 31.9426 24.2109 31.8678 24.1946L31.8205 24.2068L31.7005 24.4691L31.6798 24.4792L31.5803 24.4558L31.486 24.4162L31.4752 24.3959L31.5322 24.1131L31.5013 24.0755C31.4301 24.0442 31.3611 24.009 31.2946 23.9699L31.2455 23.967L31.0503 24.1793L31.0274 24.1825L30.94 24.1295L30.8626 24.0627L30.8586 24.0401L31.0002 23.7888L30.9822 23.743C30.9243 23.6915 30.8699 23.6367 30.8185 23.5787L30.7727 23.5613L30.5214 23.7029L30.4987 23.6989L30.4319 23.6215L30.379 23.534L30.3822 23.5112L30.5945 23.316L30.5916 23.2669C30.5525 23.2004 30.5174 23.1316 30.4862 23.0603L30.4483 23.0293L30.1656 23.0863L30.1453 23.0754L30.1056 22.9812L30.0823 22.8817L30.0923 22.861L30.3546 22.7409L30.3669 22.6937C30.3505 22.6188 30.3384 22.5423 30.3309 22.4645L30.3042 22.4231L30.0177 22.3899L30.0017 22.3733L29.9932 22.2715L30.0017 22.1696L30.0177 22.153L30.3042 22.1199L30.3308 22.0783C30.3384 22.0005 30.3505 21.9241 30.3669 21.8492L30.3546 21.802L30.0923 21.682L30.0823 21.6613L30.1056 21.5617L30.1453 21.4675L30.1656 21.4567L30.4483 21.5137L30.486 21.4827C30.5172 21.4115 30.5525 21.3426 30.5916 21.2761L30.5945 21.2269L30.3822 21.0317L30.379 21.0089L30.4319 20.9214L30.4987 20.8441L30.5214 20.8401L30.7727 20.9817L30.8185 20.9637C30.87 20.9058 30.9248 20.8514 30.9828 20.7999L31.0002 20.7542L30.8586 20.5029L30.8626 20.4802L30.94 20.4134L31.0274 20.3605L31.0503 20.3637L31.2455 20.576L31.2946 20.573C31.361 20.534 31.4299 20.4989 31.5011 20.4677L31.5322 20.4298L31.4752 20.1471L31.486 20.1268L31.5803 20.0871L31.6798 20.0638L31.7005 20.0738L31.8205 20.3361L31.8678 20.3484C31.9427 20.3321 32.0192 20.3199 32.097 20.3124L32.1384 20.2857L32.1715 19.9992L32.1881 19.9832L32.29 19.9746L32.3919 19.9832L32.4084 19.9992L32.4416 20.2857L32.483 20.3124ZM32.2901 21.5062C32.7126 21.5062 33.0551 21.8487 33.0551 22.2712C33.0551 22.6937 32.7126 23.0362 32.2901 23.0362C31.8676 23.0362 31.5251 22.6937 31.5251 22.2712C31.5251 21.8487 31.8676 21.5062 32.2901 21.5062Z" fill="#2D2C2C"/>
</svg>
