<svg width="65" height="65" viewBox="0 0 65 65" fill="none" xmlns="http://www.w3.org/2000/svg">
<path fill-rule="evenodd" clip-rule="evenodd" d="M35.7089 7.49468C35.6274 7.04005 35.0843 6.84415 34.7314 7.14206L27.7162 13.063C27.3633 13.361 27.4652 13.9292 27.8997 14.086L36.5349 17.2007C36.9694 17.3575 37.4106 16.9851 37.3291 16.5304L36.7445 13.2698C39.8331 13.2082 42.9069 13.7676 45.7709 14.9235C49.4723 16.4172 52.6873 18.852 55.0849 21.9727C57.4823 25.0932 58.9761 28.7869 59.4133 32.6712C59.8506 36.5554 59.2156 40.4918 57.5722 44.0727C55.9287 47.6538 53.3358 50.75 50.0596 53.0381C46.7832 55.3263 42.9442 56.722 38.9406 57.0789C34.937 57.4358 30.9173 56.7408 27.2986 55.0678C24.5493 53.7967 22.108 51.9967 20.1141 49.7866H39.964C41.0685 49.7866 41.964 48.8912 41.964 47.7866V25.5456C41.964 24.441 41.0686 23.5456 39.964 23.5456H5C3.89543 23.5456 3 24.441 3 25.5456V47.7866C3 48.8912 3.89543 49.7866 5 49.7866H17.5067C19.8616 52.8165 22.93 55.2515 26.4594 56.8832C30.3981 58.7041 34.7686 59.4588 39.1181 59.071C43.4677 58.6833 47.6406 57.167 51.2048 54.6778C54.769 52.1885 57.596 48.8158 59.3899 44.9069C61.184 40.9978 61.879 36.6959 61.4008 32.4474C60.9226 28.199 59.2888 24.1617 56.6709 20.7542C54.053 17.3469 50.5474 14.6944 46.5194 13.0688C43.3049 11.7715 39.8503 11.1656 36.3874 11.2785L35.7089 7.49468ZM8.56641 30.1139C8.56641 29.5616 9.01412 29.1139 9.56641 29.1139H36.193C36.7453 29.1139 37.193 29.5616 37.193 30.1139V32.885C37.193 33.4373 36.7453 33.885 36.193 33.885H9.56641C9.01412 33.885 8.56641 33.4373 8.56641 32.885V30.1139ZM24.3623 38.5827C23.81 38.5827 23.3623 39.0304 23.3623 39.5827V41.2849C23.3623 41.8372 23.81 42.2849 24.3623 42.2849H31.6178C32.1701 42.2849 32.6178 41.8372 32.6178 41.2849V39.5827C32.6178 39.0304 32.1701 38.5827 31.6178 38.5827H24.3623Z" fill="#F4F0F0"/>
</svg>
