<svg width="65" height="65" viewBox="0 0 65 65" fill="none" xmlns="http://www.w3.org/2000/svg">
<path fill-rule="evenodd" clip-rule="evenodd" d="M31.8126 8.2084C30.4854 8.62876 29.2429 9.7957 28.7057 11.1268C28.4666 11.719 28.4656 11.7404 28.4365 16.7691C28.4084 21.6138 28.4157 21.8448 28.617 22.507C29.0326 23.8748 30.1894 25.1231 31.5477 25.6697C32.1232 25.9013 32.2616 25.9107 35.8033 25.9606L39.4641 26.0121L39.5924 26.3853C39.9814 27.5171 40.9607 28.5852 42.1462 29.1707C43.3876 29.7837 44.025 29.7879 44.3126 29.1852C44.4631 28.8698 44.4629 28.8025 44.3097 28.353C44.1044 27.7509 44.0942 26.786 44.2881 26.3219L44.4333 25.9747L46.8159 25.9401C49.0267 25.908 49.2414 25.8884 49.7934 25.6679C51.1482 25.1268 52.3081 23.8758 52.724 22.507C52.9253 21.8448 52.9326 21.6138 52.9045 16.7691C52.8754 11.7404 52.8744 11.719 52.6353 11.1268C52.0908 9.77763 50.8484 8.62181 49.4932 8.2034C48.8385 8.00129 48.5893 7.99567 40.6342 8.00118C32.7766 8.0067 32.4234 8.01496 31.8126 8.2084ZM41.6047 11.4008C42.7161 11.6623 43.5345 12.3319 44.0092 13.3682C44.5119 14.4657 44.5048 15.6564 43.9893 16.6732C43.8456 16.9565 43.4032 17.458 42.8697 17.942C41.8865 18.8341 41.6098 19.2782 41.4844 20.1649C41.4374 20.4972 41.3404 20.8395 41.2688 20.9258C40.9229 21.3423 40.3111 21.2849 39.9976 20.8067C39.8469 20.5769 39.8393 20.4543 39.9381 19.8581C40.1293 18.7052 40.6367 17.8352 41.6576 16.91C42.6114 16.0455 42.8153 15.707 42.8153 14.9878C42.8153 13.6864 41.9092 12.8582 40.5013 12.8728C39.7396 12.8807 39.2996 13.0324 38.848 13.443C38.3954 13.8544 38.2764 14.2181 38.2208 15.3601C38.1587 16.6334 38.0276 16.8762 37.4023 16.8762C36.8333 16.8762 36.6473 16.607 36.6024 15.7187C36.531 14.3061 36.889 13.1987 37.6688 12.4192C38.66 11.4285 40.1185 11.0512 41.6047 11.4008ZM11.3861 13.9247C10.0589 14.3451 8.8165 15.512 8.27929 16.8431L8.03928 17.4376L8.01191 30.6566C7.98505 43.6399 7.98821 43.8877 8.18952 44.5514C8.45016 45.4103 9.09757 46.382 9.75592 46.9021C10.2813 47.3172 10.8378 47.6455 10.904 47.5795C10.9243 47.5591 10.8737 47.3471 10.7913 47.1083C10.709 46.8695 10.5962 46.3536 10.5406 45.9619C10.4766 45.5106 10.3474 45.1099 10.188 44.8688C9.60027 43.9787 9.61579 44.389 9.64755 30.5955C9.67043 20.6819 9.70485 17.8658 9.80688 17.5678C10.0794 16.7712 11.0525 15.7992 11.8463 15.5308C12.1344 15.4334 13.9925 15.3945 19.5036 15.3703L26.7805 15.3385V14.5251V13.7118L19.4015 13.7175C12.3467 13.723 11.9944 13.7321 11.3861 13.9247ZM54.5605 15.3885C54.5605 16.3689 54.5845 16.5086 54.8118 16.8528C55.3995 17.7425 55.384 17.3337 55.3539 31.1261C55.3225 45.6082 55.4124 44.3153 54.3638 45.3633C53.3484 46.3781 53.8813 46.3193 45.4048 46.3533L38.0366 46.3828L37.9667 46.7625C37.9283 46.9713 37.8106 47.3384 37.7053 47.5784L37.5137 48.0147L45.3988 47.9867L53.2838 47.9587L53.8786 47.7188C55.2361 47.1716 56.3943 45.9226 56.8075 44.5606C57.0126 43.8848 57.0149 43.6986 56.988 30.6566L56.9606 17.4376L56.7206 16.8431C56.4148 16.0853 55.6687 15.1122 55.0456 14.6582L54.5605 14.3047V15.3885ZM13.9193 18.0639C13.8029 18.2118 13.7076 18.4582 13.7076 18.6115C13.7076 18.7648 13.8029 19.0112 13.9193 19.1591L14.131 19.4281H19.8355H25.5401L25.7518 19.1591C26.0215 18.8165 26.0215 18.4065 25.7518 18.0639L25.5401 17.7949H19.8355H14.131L13.9193 18.0639ZM13.9193 21.3303C13.8029 21.4782 13.7076 21.7247 13.7076 21.878C13.7076 22.0313 13.8029 22.2777 13.9193 22.4256L14.131 22.6946H19.8355H25.5401L25.7518 22.4256C26.0215 22.0829 26.0215 21.673 25.7518 21.3303L25.5401 21.0614H19.8355H14.131L13.9193 21.3303ZM41.1206 22.1076C41.538 22.4804 41.5638 22.8383 41.1994 23.2024C40.8312 23.5705 40.5679 23.5917 40.2204 23.2815C39.803 22.9087 39.7773 22.5509 40.1416 22.1868C40.5099 21.8187 40.7731 21.7974 41.1206 22.1076ZM18.0046 24.5968C17.8882 24.7447 17.7929 24.9911 17.7929 25.1444C17.7929 25.2978 17.8882 25.5442 18.0046 25.6921L18.2162 25.9611H21.8782H25.5401L25.7518 25.6921C25.8682 25.5442 25.9635 25.2978 25.9635 25.1444C25.9635 24.9911 25.8682 24.7447 25.7518 24.5968L25.5401 24.3278H21.8782H18.2162L18.0046 24.5968ZM26.2699 28.653C24.908 29.219 24.0244 30.0308 23.4449 31.2483L23.0527 32.0722L19.427 32.1045C15.8963 32.1359 15.7857 32.1431 15.2065 32.3766C13.8473 32.9246 12.6914 34.1723 12.2758 35.5398C12.0745 36.202 12.0673 36.433 12.0954 41.2777C12.1245 46.3064 12.1255 46.3277 12.3646 46.92C12.909 48.2691 14.1515 49.425 15.5067 49.8434C16.1605 50.0452 16.4193 50.0513 24.3294 50.0513C32.2394 50.0513 32.4982 50.0452 33.152 49.8434C34.5072 49.425 35.7497 48.2691 36.2941 46.92C36.5332 46.3277 36.5343 46.3064 36.5634 41.2777C36.5915 36.433 36.5842 36.202 36.3829 35.5398C35.9669 34.1709 34.8071 32.92 33.4522 32.3789C32.9003 32.1584 32.6855 32.1388 30.4748 32.1066L28.0921 32.072L27.947 31.7249C27.756 31.268 27.7622 30.2841 27.9596 29.7253C28.356 28.6031 27.5779 28.1094 26.2699 28.653ZM39.2481 35.2128C39.1317 35.3607 39.0364 35.6072 39.0364 35.7605C39.0364 35.9138 39.1317 36.1602 39.2481 36.3081L39.4597 36.5771H45.1643H50.8689L51.0805 36.3081C51.3503 35.9655 51.3503 35.5555 51.0805 35.2128L50.8689 34.9439H45.1643H39.4597L39.2481 35.2128ZM29.7587 37.6644C30.0242 37.9035 30.0807 38.2994 29.8907 38.5894C29.57 39.0786 23.485 45.3712 23.2442 45.4626C23.1059 45.5152 22.9029 45.517 22.7718 45.467C22.4597 45.3477 19.6005 42.6404 19.4995 42.3685C19.4006 42.1021 19.5899 41.6082 19.8428 41.4729C20.3003 41.2281 20.534 41.3524 21.7714 42.4974L22.9845 43.6201L25.8166 40.6554C27.3743 39.0248 28.7455 37.6223 28.8636 37.5387C29.1035 37.3689 29.491 37.4233 29.7587 37.6644ZM39.2584 38.4465C38.9542 38.7703 38.9609 39.3288 39.2727 39.6217L39.5092 39.8436H45.1786H50.8481L51.0702 39.6074C51.3745 39.2836 51.3677 38.7251 51.0559 38.4323L50.8195 38.2103H45.15H39.4806L39.2584 38.4465ZM39.2481 41.7458C39.1317 41.8937 39.0364 42.1401 39.0364 42.2934C39.0364 42.4467 39.1317 42.6932 39.2481 42.8411L39.4597 43.11H43.1113H46.7628L46.9849 42.8738C47.2892 42.55 47.2824 41.9916 46.9706 41.6987C46.7371 41.4795 46.6908 41.4768 43.097 41.4768H39.4597L39.2481 41.7458ZM35.9672 49.9868C35.6553 50.2773 35.0808 50.6823 34.6906 50.8867C33.3778 51.5742 33.1504 51.6063 29.2475 51.6572L25.7399 51.7029L25.4304 52.3639C25.1492 52.9646 25.1251 53.097 25.1668 53.8165C25.2443 55.1543 25.941 56.2151 27.0765 56.7245L27.6908 57L32.6231 56.9708L37.5555 56.9415L38.0661 56.6696C38.7233 56.3198 39.2718 55.7473 39.5666 55.1041C39.8987 54.3793 39.8987 53.0729 39.5666 52.348C39.116 51.3646 38.1133 50.612 37.0928 50.4912L36.5949 50.4324L36.5646 49.9453L36.5342 49.4584L35.9672 49.9868ZM28.8856 52.4246C29.3569 53.3454 30.18 54.006 31.2836 54.3493C33.1415 54.9272 35.2581 54.0838 36.1131 52.4246C36.3231 52.017 36.646 51.9891 37.2965 52.3225C37.8455 52.6038 38.1172 53.0781 38.1172 53.7551C38.1172 54.3817 37.9157 54.7672 37.4303 55.0687L37.0448 55.3083H32.4999C28.3175 55.3083 27.9282 55.2937 27.6186 55.1246C27.141 54.864 26.8835 54.3918 26.8831 53.7755C26.8826 53.0769 27.1476 52.6073 27.7034 52.3225C28.3541 51.989 28.6769 52.0169 28.8856 52.4246Z" fill="#2D2C2C"/>
</svg>
