<svg width="65" height="65" viewBox="0 0 65 65" fill="none" xmlns="http://www.w3.org/2000/svg">
<path d="M36.8713 46.1465C36.5152 46.3494 36.0671 46.2871 35.7797 45.9948C35.4299 45.639 35.4348 45.0669 35.7906 44.7171L40.4063 40.1787C40.7031 39.8869 41.1732 39.8597 41.5753 39.7523C41.8005 39.6921 41.9973 39.5549 42.1316 39.3644C42.2658 39.174 42.3289 38.9425 42.3098 38.7103C42.2908 38.4781 42.1908 38.26 42.0273 38.094C41.8638 37.928 41.6471 37.8247 41.4152 37.802C41.1833 37.7794 40.9508 37.8389 40.7582 37.9701C40.5657 38.1014 40.4253 38.296 40.3617 38.5201C40.2481 38.9203 40.2133 39.3897 39.9165 39.6812L35.3008 44.2152C34.945 44.5646 34.3733 44.5595 34.0239 44.2037C33.7368 43.9114 33.6825 43.4624 33.8917 43.1101L40.2763 32.3548C40.3529 32.2258 40.4574 32.1157 40.5823 32.0327L43.4647 30.1147L43.4986 30.0921C43.8976 29.8255 44.4297 29.88 44.7664 30.2218L45.8185 31.2897L49.9581 35.5015C50.2946 35.8439 50.3404 36.3771 50.067 36.7718L48.07 39.6556C47.9847 39.7787 47.873 39.8811 47.7429 39.9552L36.8713 46.1465Z" fill="#2D2C2C"/>
<path d="M45.4307 29.6826C45.0704 29.3158 45.0469 28.7355 45.3764 28.3408L47.2597 26.084C47.6384 25.63 48.3262 25.6019 48.7407 26.0236L54.2259 31.6038C54.6404 32.0255 54.6005 32.713 54.1398 33.0838L51.8498 34.9272C51.4494 35.2495 50.8699 35.2158 50.5096 34.8493L45.4307 29.6826Z" fill="#2D2C2C"/>
<path d="M42.8176 10C44.4745 10 45.8176 11.3431 45.8176 13V24.5983C45.8176 24.8725 45.7217 25.138 45.5465 25.3489C44.8439 26.1948 43.4681 25.698 43.4681 24.5983V15.3487C43.4681 13.6919 42.125 12.3487 40.4681 12.3487H15.3451C13.6883 12.3487 12.3451 13.6919 12.3451 15.3487V44.0355C12.3451 45.1429 12.6237 45.9338 13.1602 46.419C13.8979 47.0864 15.14 47.0221 16.2251 46.7781C17.5291 46.4849 18.951 46.7685 19.979 47.6227C24.8716 51.6883 32.4846 52.9248 40.2702 53.5558C41.9981 53.6959 43.4638 52.318 43.4638 50.5844V45.114C43.4638 44.6913 43.6905 44.3011 44.0576 44.0917C44.8422 43.6442 45.8176 44.2108 45.8176 45.114V52.9799C45.8176 54.6446 44.4765 55.9844 42.8131 55.9195C34.1939 55.5829 10 53.855 10 45.0624V13C10 11.3432 11.3431 10 13 10H42.8176Z" fill="#2D2C2C"/>
<path d="M23.1857 16.1639H32.633C33.0999 16.1639 33.4783 16.5424 33.4783 17.0092C33.4783 17.4761 33.0999 17.8545 32.633 17.8545H23.1857C22.7188 17.8545 22.3404 17.4761 22.3404 17.0092C22.3404 16.5424 22.7188 16.1639 23.1857 16.1639Z" fill="#2D2C2C"/>
<path d="M18.3855 20.7402H37.4321C37.8989 20.7402 38.2773 21.1187 38.2773 21.5855C38.2773 22.0524 37.8989 22.4308 37.4321 22.4308H18.3855C17.9187 22.4308 17.5402 22.0524 17.5402 21.5855C17.5402 21.1187 17.9187 20.7402 18.3855 20.7402Z" fill="#2D2C2C"/>
<path d="M18.3855 24.1914H37.4321C37.8989 24.1914 38.2773 24.5699 38.2773 25.0367C38.2773 25.5035 37.8989 25.882 37.4321 25.882H18.3855C17.9187 25.882 17.5403 25.5035 17.5403 25.0367C17.5403 24.5699 17.9187 24.1914 18.3855 24.1914Z" fill="#2D2C2C"/>
<path d="M18.3855 27.6426H37.4321C37.8989 27.6426 38.2773 28.021 38.2773 28.4879C38.2773 28.9547 37.8989 29.3331 37.432 29.3331H18.3855C17.9187 29.3331 17.5402 28.9547 17.5402 28.4879C17.5402 28.021 17.9187 27.6426 18.3855 27.6426Z" fill="#2D2C2C"/>
<path d="M38.2773 32.0867C38.2773 32.2114 38.244 32.3338 38.1807 32.4412C38.0551 32.6544 37.8262 32.7852 37.5789 32.7852H18.385C17.9185 32.7852 17.5402 32.407 17.5402 31.9404C17.5402 31.4739 17.9185 31.0957 18.385 31.0957H37.349C37.8617 31.0957 38.2773 31.5113 38.2773 32.024V32.0867Z" fill="#2D2C2C"/>
<path d="M28.7586 45.8777C27.4527 45.8113 26.2426 44.3176 24.9661 42.7369C24.9551 42.7232 24.944 42.7094 24.9329 42.6957C24.6437 42.3366 24.6936 41.8098 25.0486 41.5157C25.403 41.222 25.9267 41.2718 26.2161 41.6297C26.2322 41.6495 26.2483 41.6694 26.2644 41.6893C27.0174 42.6216 28.2787 44.1827 28.8435 44.2121C28.8554 44.2121 28.8707 44.2121 28.9218 44.1599C29.6716 43.3984 30.6488 42.5955 31.5586 43.0568C31.6515 43.1055 31.7378 43.1658 31.8154 43.2363C32.1952 43.5724 32.3497 44.1447 32.2757 44.9464C32.2648 45.0607 32.2529 45.1771 32.2322 45.3011C32.1394 45.8811 32.1721 46.444 32.2457 46.795C32.2955 47.0324 32.5181 47.1324 32.733 47.02C32.9375 46.913 33.2372 46.7123 33.649 46.3357C33.7232 46.2668 33.8417 46.2722 33.9115 46.3455L34.8314 47.3111C34.8904 47.373 34.8892 47.4707 34.8287 47.5312C34.3684 47.9664 33.3966 48.8171 32.39 48.8171C32.1246 48.8185 31.863 48.7546 31.6282 48.6311C30.182 47.8696 30.54 45.3294 30.5901 45.0411C30.5997 44.982 30.5318 44.9445 30.4866 44.9839C30.3575 45.0965 30.233 45.2143 30.1134 45.337C29.9409 45.5207 29.7301 45.6643 29.496 45.7577C29.262 45.8511 29.0102 45.892 28.7586 45.8777Z" fill="#2D2C2C"/>
</svg>
