<svg width="10" height="13" viewBox="0 0 10 13" fill="none" xmlns="http://www.w3.org/2000/svg">
<path fill-rule="evenodd" clip-rule="evenodd" d="M4.90036 0.00613361C4.34324 0.0726838 4.02401 0.144672 3.66557 0.284532C2.7108 0.657076 1.9139 1.3411 1.37131 2.25385C0.86002 3.11387 0.623887 4.22891 0.741698 5.22676C0.930857 6.82889 2.02497 9.04118 3.83916 11.4898C4.26822 12.0689 4.81979 12.7624 4.94621 12.8817C5.11336 13.0394 5.31984 13.0394 5.48698 12.8817C5.6134 12.7624 6.16497 12.0689 6.59404 11.4898C8.22685 9.28599 9.27343 7.28381 9.6046 5.73047C9.68982 5.33071 9.71697 5.07 9.7166 4.65502C9.71553 3.43409 9.24711 2.26795 8.40438 1.38814C7.70773 0.660836 6.88678 0.220294 5.92205 0.0560399C5.69361 0.0171364 5.06519 -0.0135596 4.90036 0.00613361ZM5.50068 2.35625C6.40853 2.48488 7.1603 3.16588 7.40648 4.08262C7.47138 4.32433 7.49592 4.81028 7.45649 5.0735C7.34389 5.82553 6.87074 6.48692 6.2018 6.82742C5.80728 7.02821 5.40503 7.10386 4.99158 7.05494C4.67092 7.017 4.5082 6.96832 4.23139 6.82742C3.56245 6.48692 3.08931 5.82553 2.9767 5.0735C2.93727 4.81028 2.96182 4.32433 3.02672 4.08262C3.33091 2.94982 4.40416 2.20089 5.50068 2.35625Z" fill="#E31B40"/>
</svg>
