<svg width="12" height="11" viewBox="0 0 12 11" fill="none" xmlns="http://www.w3.org/2000/svg">
<path fill-rule="evenodd" clip-rule="evenodd" d="M2.93118 0.0230003C2.56467 0.163757 1.88112 0.836726 1.2455 1.68262C0.993632 2.01782 0.796206 2.32271 0.692505 2.53668L0.609375 2.70816L0.635931 2.93818C0.846474 4.76276 2.36507 7.14599 4.40202 8.84858C5.83843 10.0492 7.38928 10.8255 8.66662 10.9834C8.87708 11.0095 8.88951 11.0084 9.02228 10.9541C9.56434 10.7322 10.8435 9.70372 11.3276 9.10056C11.6349 8.71755 11.6801 8.53336 11.5377 8.24391C11.4408 8.04704 11.3382 7.95685 10.7938 7.59001C9.68396 6.84217 8.89068 6.43725 8.53667 6.43785C8.27244 6.43828 8.12271 6.54763 7.69236 7.0544C7.5411 7.23255 7.40396 7.37829 7.38763 7.37829C7.3356 7.37829 6.96574 7.22762 6.74288 7.11563C5.95561 6.72007 5.29612 6.13651 4.80981 5.40517C4.62938 5.1338 4.37081 4.6269 4.28796 4.38202L4.23287 4.21922L4.32286 4.13894C4.37235 4.09477 4.52132 3.96593 4.65387 3.85261C5.06354 3.5025 5.15987 3.36676 5.1768 3.11606C5.18402 3.00883 5.17327 2.931 5.13465 2.81078C5.06409 2.59126 4.81561 2.0886 4.58548 1.69985C4.32435 1.25872 3.75939 0.411222 3.63186 0.269295C3.44468 0.0610172 3.12487 -0.0514044 2.93118 0.0230003Z" fill="#E31B40"/>
</svg>
