<svg width="44" height="43" viewBox="0 0 44 43" xmlns="http://www.w3.org/2000/svg">
<path fill-rule="evenodd" clip-rule="evenodd" d="M1.11575 0.1429C0.765171 0.317103 0.374106 0.701666 0.175607 1.0675C0.037973 1.32104 0.0261095 2.17333 0.00496151 13.2491C-0.0107705 21.4885 0.0105494 25.2641 0.0740793 25.502C0.18962 25.9347 0.696398 26.5086 1.14523 26.7147C1.43701 26.8488 1.72594 26.873 3.05259 26.8746L4.61617 26.8765L4.64299 29.6729L4.6699 32.4694L4.90201 32.8677C5.41231 33.7432 6.41641 34.1265 7.26405 33.7693C7.43478 33.6973 9.729 32.1178 12.3623 30.2595L17.15 26.8805L24.1059 26.8568L31.0619 26.8332L31.4264 26.5942C31.6269 26.4627 31.8977 26.1924 32.0282 25.9935L32.2654 25.6319L32.2908 13.6161C32.3088 5.12731 32.2887 1.50435 32.2225 1.27361C32.0997 0.84578 31.6653 0.355169 31.2346 0.157815C30.9055 0.00702432 30.2236 -8.5955e-05 16.1466 7.55997e-07C2.62946 7.55997e-07 1.37924 0.0119669 1.11575 0.1429ZM23.4108 7.96484C24.3802 8.41851 24.8364 9.58928 24.4109 10.5315C24.2096 10.9775 23.6431 11.4915 23.2235 11.6091C23.0046 11.6704 20.6287 11.701 16.1036 11.7008L9.31214 11.7003L8.87224 11.4938C7.42154 10.8124 7.41768 8.69148 8.86597 8.01132L9.31214 7.80182L16.1895 7.80286C22.7069 7.80382 23.0849 7.81232 23.4108 7.96484ZM36.2407 17.49C36.2134 25.2418 36.1995 25.9186 36.0576 26.3965C35.4433 28.4655 34.1774 29.8 32.0935 30.5753C31.6935 30.7241 31.2008 30.7382 24.9976 30.7785L18.3315 30.8219L15.3692 32.919C13.74 34.0724 12.3301 35.0736 12.2362 35.144C12.0658 35.2715 12.0658 35.2722 12.2362 35.4623C12.3301 35.567 12.5617 35.7364 12.7508 35.8386C13.0931 36.0237 13.1277 36.0246 20.0045 36.0492L26.9142 36.0738L31.6531 39.4217C34.2594 41.2631 36.5164 42.8226 36.6685 42.8872C37.038 43.0442 37.7413 43.0362 38.1355 42.8703C38.3113 42.7963 38.5839 42.611 38.7412 42.4584C39.2975 41.9191 39.3069 41.8622 39.3393 38.821L39.3687 36.0679H40.6915C41.419 36.0679 42.2077 36.0261 42.444 35.9749C43.0385 35.8463 43.5008 35.4834 43.7735 34.9315L44 34.473V22.6424C44 13.5732 43.9755 10.7284 43.895 10.4548C43.7573 9.98746 43.101 9.31944 42.6573 9.19518C42.4481 9.13657 41.1946 9.10153 39.2969 9.10128L36.2702 9.10075L36.2407 17.49ZM23.4968 15.8341C23.9386 16.074 24.174 16.3326 24.3922 16.818C24.7682 17.6546 24.4877 18.6482 23.7246 19.1827L23.3248 19.4627L16.3615 19.4889C11.4903 19.5072 9.30079 19.4865 9.07427 19.42C8.89623 19.3676 8.61348 19.2035 8.44602 19.0552C7.57233 18.2815 7.55007 16.9846 8.39607 16.1558C8.96526 15.5983 8.76874 15.6113 16.3185 15.6303C23.1348 15.6473 23.1538 15.648 23.4968 15.8341Z"/>
</svg>
