<svg width="19" height="19" viewBox="0 0 19 19" xmlns="http://www.w3.org/2000/svg">
<path fill-rule="evenodd" clip-rule="evenodd" d="M4.0083 0.0397279C3.37557 0.282853 2.19551 1.44525 1.09819 2.90634C0.663371 3.48532 0.32254 4.01195 0.143514 4.38154L0 4.67772L0.0458453 5.07505C0.409322 8.22659 3.03098 12.3431 6.54753 15.2839C9.02729 17.3577 11.7046 18.6987 13.9098 18.9714C14.2731 19.0163 14.2946 19.0146 14.5238 18.9207C15.4596 18.5374 17.6679 16.761 18.5036 15.7192C19.0342 15.0576 19.1122 14.7394 18.8663 14.2395C18.6991 13.8994 18.522 13.7436 17.5821 13.11C15.6661 11.8183 14.2966 11.1189 13.6855 11.1199C13.2293 11.1207 12.9708 11.3095 12.2279 12.1849C11.9667 12.4926 11.73 12.7443 11.7018 12.7443C11.612 12.7443 10.9735 12.4841 10.5887 12.2906C9.2296 11.6074 8.09106 10.5994 7.25152 9.33621C6.94002 8.86748 6.49364 7.99191 6.35061 7.56895L6.25551 7.28774L6.41086 7.14908C6.4963 7.07279 6.75347 6.85023 6.9823 6.65451C7.68954 6.04977 7.85586 5.81532 7.88508 5.38229C7.89755 5.19706 7.87898 5.06264 7.81231 4.85499C7.69049 4.47581 7.26153 3.60758 6.86425 2.9361C6.41343 2.17415 5.43809 0.710293 5.21793 0.465147C4.8948 0.105393 4.34268 -0.0887894 4.0083 0.0397279Z"/>
</svg>
