<svg width="23" height="20" viewBox="0 0 23 20" xmlns="http://www.w3.org/2000/svg">
<path fill-rule="evenodd" clip-rule="evenodd" d="M11.1739 4.06199C5.24413 6.2953 0.34309 8.15415 0.282651 8.19277C0.136208 8.28644 0.000177726 8.51114 4.87851e-07 8.65972C-0.00026537 8.84239 0.10816 9.05714 0.249597 9.15409C0.319384 9.20192 1.54291 9.66434 2.96857 10.1817C4.39423 10.699 5.5823 11.1444 5.60876 11.1714C5.63516 11.1985 6.10104 12.6217 6.64401 14.3342C7.18698 16.0466 7.66224 17.5133 7.70012 17.5934C7.73805 17.6735 7.83048 17.7756 7.90554 17.8203C8.05934 17.9118 8.37421 17.9281 8.51981 17.852C8.57223 17.8247 9.25384 17.2933 10.0345 16.6712C11.7392 15.3127 11.6821 15.3543 11.9129 15.3037C12.2776 15.2237 12.3487 15.2645 14.492 16.7826C18.2529 19.4466 17.9789 19.264 18.2167 19.264C18.4631 19.264 18.637 19.158 18.7548 18.9362C18.8723 18.715 22.7 0.667088 22.6664 0.492554C22.6154 0.226818 22.3299 -0.00367462 22.0563 4.43904e-05C22.0007 0.000779544 17.1036 1.82863 11.1739 4.06199ZM17.7591 4.02903C17.7884 4.05757 17.8123 4.11258 17.8123 4.15129C17.8123 4.18999 16.1828 5.69913 14.1913 7.50488C9.3472 11.8971 9.15543 12.0748 9.0264 12.2897C8.85563 12.574 8.7901 12.8607 8.63794 13.9882C8.55818 14.5791 8.47085 15.068 8.43509 15.1234C8.37013 15.224 8.18638 15.2538 8.07091 15.1824C8.03803 15.1621 7.75068 14.2623 7.43236 13.183C6.81739 11.098 6.78207 10.9155 6.92949 10.5837C6.96888 10.495 7.06583 10.3628 7.14493 10.29C7.32238 10.1267 17.5419 3.97848 17.6373 3.9777C17.6751 3.9774 17.7299 4.00049 17.7591 4.02903Z"/>
</svg>
