<svg width="29" height="29" viewBox="0 0 29 29" xmlns="http://www.w3.org/2000/svg">
<circle cx="14.2793" cy="14.2793" r="14.0006" stroke-width="0.557396"/>
<path fill-rule="evenodd" clip-rule="evenodd" d="M13.3992 10.7408C9.21346 12.2477 5.7539 13.5019 5.71124 13.528C5.60787 13.5912 5.51184 13.7428 5.51172 13.8431C5.51153 13.9663 5.58807 14.1112 5.6879 14.1766C5.73717 14.2089 6.60083 14.5209 7.60718 14.87C8.61353 15.2191 9.45217 15.5196 9.47084 15.5378C9.48948 15.5561 9.81833 16.5164 10.2016 17.6718C10.5849 18.8273 10.9204 19.8169 10.9471 19.871C10.9739 19.925 11.0391 19.9939 11.0921 20.0241C11.2007 20.0858 11.4229 20.0968 11.5257 20.0455C11.5627 20.027 12.0438 19.6685 12.5949 19.2487C13.7982 18.3321 13.7579 18.3602 13.9209 18.326C14.1783 18.2721 14.2285 18.2996 15.7414 19.3239C18.3961 21.1214 18.2027 20.9982 18.3706 20.9982C18.5445 20.9982 18.6673 20.9267 18.7504 20.777C18.8333 20.6278 21.5352 8.45011 21.5116 8.33235C21.4755 8.15304 21.274 7.99752 21.0809 8.00003C21.0417 8.00053 17.5848 9.23385 13.3992 10.7408ZM18.0476 10.7186C18.0682 10.7378 18.0851 10.7749 18.0851 10.801C18.0851 10.8272 16.9349 11.8454 15.5291 13.0638C12.1097 16.0274 11.9744 16.1473 11.8833 16.2923C11.7628 16.4842 11.7165 16.6776 11.6091 17.4384C11.5528 17.8371 11.4911 18.167 11.4659 18.2043C11.42 18.2723 11.2903 18.2924 11.2088 18.2442C11.1856 18.2305 10.9828 17.6234 10.7581 16.8951C10.324 15.4883 10.2991 15.3651 10.4031 15.1412C10.4309 15.0814 10.4994 14.9922 10.5552 14.9431C10.6805 14.8329 17.8942 10.6844 17.9616 10.6839C17.9882 10.6837 18.0269 10.6993 18.0476 10.7186Z"/>
</svg>
