<svg width="20" height="20" viewBox="0 0 20 20" fill="none" xmlns="http://www.w3.org/2000/svg">
<rect x="0.608398" y="0.925781" width="19.0846" height="19.0746" rx="2" style="fill: var(--fill-block); transition: all var(--transition-time);"/>
<path fill-rule="evenodd" clip-rule="evenodd" d="M9.50004 7.65385C6.17162 8.90678 3.42061 9.94963 3.38668 9.9713C3.30448 10.0238 3.22813 10.1499 3.22803 10.2333C3.22788 10.3357 3.28874 10.4562 3.36813 10.5106C3.4073 10.5374 4.09408 10.7969 4.89432 11.0871C5.69456 11.3774 6.36143 11.6272 6.37628 11.6424C6.39111 11.6575 6.6526 12.456 6.95738 13.4167C7.26215 14.3775 7.52892 15.2003 7.55019 15.2452C7.57148 15.2902 7.62336 15.3474 7.66549 15.3725C7.75182 15.4239 7.92856 15.433 8.01029 15.3903C8.03971 15.375 8.42231 15.0769 8.86049 14.7278C9.81737 13.9657 9.78531 13.9891 9.91489 13.9607C10.1196 13.9158 10.1595 13.9387 11.3625 14.7904C13.4736 16.2849 13.3198 16.1825 13.4533 16.1825C13.5915 16.1825 13.6892 16.123 13.7553 15.9985C13.8213 15.8745 15.9698 5.74925 15.9509 5.65133C15.9223 5.50225 15.762 5.37294 15.6085 5.37502C15.5773 5.37544 12.8285 6.4009 9.50004 7.65385ZM13.1964 7.63536C13.2128 7.65137 13.2263 7.68223 13.2263 7.70395C13.2263 7.72566 12.3116 8.57232 11.1937 9.58538C8.47471 12.0495 8.36707 12.1492 8.29464 12.2697C8.19879 12.4293 8.162 12.5901 8.07659 13.2226C8.03183 13.5542 7.9828 13.8284 7.96273 13.8595C7.92627 13.916 7.82313 13.9327 7.75831 13.8926C7.73986 13.8812 7.57857 13.3764 7.39989 12.7709C7.0547 11.6012 7.03488 11.4988 7.11763 11.3126C7.13974 11.2629 7.19416 11.1887 7.23855 11.1479C7.33816 11.0562 13.0745 7.607 13.128 7.60656C13.1492 7.60639 13.18 7.61935 13.1964 7.63536Z" style="fill: var(--fill-figure); transition: all var(--transition-time);"/>
</svg>
