<svg width="20" height="20" viewBox="0 0 20 20" fill="none" xmlns="http://www.w3.org/2000/svg">
<rect x="0.697266" y="0.925781" width="19.0846" height="19.0746" rx="2" style="fill: var(--fill-block); transition: all var(--transition-time);"/>
<path fill-rule="evenodd" clip-rule="evenodd" d="M10.1344 4.85501C9.3281 4.93344 8.7201 5.10734 8.06066 5.44808C7.05396 5.96829 6.24107 6.79608 5.73846 7.81288C5.54536 8.20354 5.45436 8.44299 5.35344 8.8261C5.2262 9.30896 5.18916 9.60252 5.18801 10.1367C5.18745 10.4027 5.19843 10.6914 5.2134 10.8037C5.32725 11.6576 5.59558 12.3936 6.04436 13.0826L6.19394 13.3122L5.86166 14.2912C5.6789 14.8297 5.53227 15.2731 5.5358 15.2766C5.53935 15.2802 5.99644 15.138 6.55156 14.9608C7.10671 14.7836 7.56833 14.6385 7.57741 14.6385C7.5865 14.6385 7.6722 14.6871 7.76786 14.7464C7.86352 14.8058 8.06394 14.9127 8.21325 14.984C9.56335 15.6289 11.1067 15.6841 12.4891 15.137C14.0555 14.517 15.2585 13.1607 15.688 11.5307C15.8195 11.0315 15.8529 10.7578 15.8529 10.1784C15.8529 9.59902 15.8195 9.32535 15.688 8.8261C15.1842 6.91394 13.6486 5.42759 11.711 4.97658C11.3854 4.9008 11.0467 4.86241 10.6356 4.85472C10.4059 4.8504 10.1803 4.85053 10.1344 4.85501ZM8.86082 7.32815C8.8954 7.34605 8.94385 7.3968 8.96851 7.4409C9.03076 7.55228 9.53842 8.77262 9.55321 8.84645C9.57213 8.94088 9.4796 9.10142 9.27203 9.33435C9.05542 9.57739 9.00888 9.65542 9.02815 9.74306C9.06317 9.9021 9.54611 10.5413 9.84365 10.8224C10.3054 11.2587 11.0033 11.6729 11.3142 11.6953C11.4741 11.7068 11.5324 11.6616 11.777 11.3367C11.8879 11.1893 12.0063 11.0412 12.04 11.0076C12.1205 10.9272 12.2401 10.9102 12.3742 10.96C12.5462 11.0239 13.5976 11.5349 13.6715 11.5905L13.7422 11.6437L13.7305 11.8646C13.7005 12.4315 13.5013 12.7259 12.9743 12.9819C12.4733 13.2252 12.0812 13.2186 11.3135 12.9537C10.2834 12.5984 9.7367 12.259 8.99587 11.5149C8.62517 11.1426 8.36174 10.8279 8.06043 10.3973C7.56394 9.68766 7.37354 9.13973 7.43022 8.58361C7.47565 8.13772 7.63177 7.80857 7.94707 7.4939C8.09959 7.34165 8.29918 7.27898 8.59957 7.28899C8.72701 7.29322 8.82044 7.30722 8.86082 7.32815Z" style="fill: var(--fill-figure); transition: all var(--transition-time);"/>
</svg>
