<svg width="30" height="29" viewBox="0 0 30 29" xmlns="http://www.w3.org/2000/svg">
<path fill-rule="evenodd" clip-rule="evenodd" d="M14.1041 7.44177C13.1045 7.53906 12.3507 7.75477 11.5332 8.17743C10.2851 8.82271 9.27726 9.84953 8.65414 11.1108C8.41474 11.5954 8.30192 11.8924 8.1768 12.3676C8.01906 12.9666 7.97313 13.3307 7.97171 13.9934C7.97101 14.3233 7.98462 14.6813 8.00319 14.8206C8.14433 15.8799 8.47701 16.7928 9.03339 17.6474L9.21883 17.9323L8.80689 19.1467C8.58031 19.8146 8.39851 20.3646 8.40289 20.369C8.40729 20.3734 8.97397 20.1971 9.66221 19.9772C10.3505 19.7574 10.9228 19.5775 10.934 19.5775C10.9453 19.5775 11.0515 19.6377 11.1701 19.7113C11.2887 19.785 11.5372 19.9176 11.7223 20.006C13.3962 20.806 15.3096 20.8744 17.0235 20.1957C18.9654 19.4267 20.4569 17.7444 20.9893 15.7225C21.1524 15.1032 21.1938 14.7638 21.1938 14.0451C21.1938 13.3264 21.1524 12.9869 20.9893 12.3676C20.3648 9.99572 18.461 8.15202 16.0587 7.59257C15.6551 7.49857 15.2351 7.45095 14.7255 7.44141C14.4407 7.43606 14.1611 7.43622 14.1041 7.44177ZM12.5252 10.5095C12.568 10.5317 12.6281 10.5947 12.6587 10.6494C12.7359 10.7875 13.3653 12.3013 13.3836 12.3928C13.407 12.51 13.2923 12.7091 13.035 12.9981C12.7664 13.2995 12.7087 13.3963 12.7326 13.505C12.776 13.7023 13.3748 14.4952 13.7437 14.8439C14.3161 15.385 15.1813 15.8988 15.5669 15.9266C15.7651 15.9409 15.8374 15.8849 16.1406 15.4818C16.2781 15.299 16.4248 15.1153 16.4666 15.0736C16.5665 14.9739 16.7147 14.9527 16.8809 15.0145C17.0942 15.0938 18.3978 15.7277 18.4893 15.7967L18.577 15.8627L18.5625 16.1366C18.5254 16.8398 18.2783 17.205 17.625 17.5225C17.0039 17.8244 16.5177 17.8161 15.5659 17.4876C14.2889 17.0468 13.6111 16.6258 12.6926 15.7029C12.233 15.2411 11.9064 14.8506 11.5329 14.3165C10.9173 13.4363 10.6813 12.7566 10.7515 12.0668C10.8079 11.5137 11.0014 11.1054 11.3923 10.7151C11.5814 10.5263 11.8289 10.4485 12.2013 10.4609C12.3593 10.4662 12.4751 10.4836 12.5252 10.5095Z"/>
<circle cx="14.8135" cy="14.2793" r="14.0006" stroke-width="0.557396"/>
</svg>
