<svg width="113" height="113" viewBox="0 0 113 113" fill="none" xmlns="http://www.w3.org/2000/svg">
<circle cx="56.5" cy="56.5" r="56.5" fill="url(#paint0_linear_331_194)"/>
<path fill-rule="evenodd" clip-rule="evenodd" d="M77.6569 40.7419C72.8671 44.4441 64.447 50.943 58.9456 55.1839L48.9432 62.8946L38.6446 54.7444L28.346 46.5944L28.2133 49.0548C28.1401 50.4081 28.0623 52.1211 28.0403 52.8615L28 54.2077L38.2012 66.6038L48.4022 79L49.5629 77.8544C50.4317 76.9967 84.5026 43.8609 86.6251 41.8094L87 41.4471L86.8034 37.7182C86.6763 35.3079 86.5642 33.9931 86.4862 34C86.4199 34.0058 82.4467 37.0397 77.6569 40.7419Z" fill="url(#paint1_linear_331_194)" fill-opacity="0.7"/>
<defs>
<linearGradient id="paint0_linear_331_194" x1="56.5" y1="0" x2="56.5" y2="113" gradientUnits="userSpaceOnUse">
<stop stop-color="white"/>
<stop offset="1" stop-color="#C4C4C4"/>
</linearGradient>
<linearGradient id="paint1_linear_331_194" x1="91.5" y1="25.5" x2="59.042" y2="82.7453" gradientUnits="userSpaceOnUse">
<stop stop-color="#00FFC2"/>
<stop offset="1" stop-color="#24923C"/>
</linearGradient>
</defs>
</svg>
