<svg width="60" height="60" viewBox="0 0 60 60" fill="none" xmlns="http://www.w3.org/2000/svg">
<circle cx="29" cy="44" r="2" fill="#E31B40"/>
<path fill-rule="evenodd" clip-rule="evenodd" d="M12.4193 2.16537C11.7842 2.35733 10.9249 3.11027 10.5933 3.76544C10.3465 4.25313 10.3382 4.35554 10.3052 7.32944C10.272 10.3233 10.2763 10.3977 10.501 10.6781C10.7872 11.0352 11.3584 11.0718 11.6822 10.7539C11.8865 10.5533 11.8971 10.4023 11.8973 7.66895C11.8974 4.45721 11.9305 4.28551 12.6382 3.82145L13.0033 3.58203H24.3709H35.7386L35.7709 7.03613L35.8032 10.4902L36.0944 11.0321C36.2546 11.3302 36.5865 11.7429 36.8322 11.9493C37.6283 12.6183 37.8607 12.6523 41.6243 12.6523H44.9896V19.2969V25.9414H42.3759C39.7829 25.9414 39.7606 25.9433 39.5287 26.1855C39.2404 26.4868 39.2294 26.8929 39.5004 27.2217L39.7058 27.4707L45.5095 27.5234C51.1605 27.5748 51.321 27.5819 51.6098 27.7936C51.7729 27.9133 52.0061 28.1421 52.1279 28.3022C52.3453 28.5879 52.35 28.7166 52.3794 35.0669L52.4095 41.5403L52.6894 41.7565C52.8434 41.8754 53.0837 41.9727 53.2235 41.9727C53.5211 41.9727 53.8762 41.6574 53.9628 41.3161C53.9964 41.1842 54.0097 38.2285 53.9925 34.748L53.9611 28.4199L53.6804 27.8398C53.344 27.1447 52.7644 26.5586 52.0916 26.2332C51.6283 26.0091 51.4409 25.992 49.0993 25.9608L46.6013 25.9274V18.7375V11.5476L41.7382 6.77373L36.875 2L24.8964 2.00738C14.8351 2.0135 12.838 2.03881 12.4193 2.16537ZM41.1086 11.0457C37.1936 11.0867 37.3616 11.2533 37.3614 7.32681L37.3611 4.69082L40.5852 7.85415L43.8092 11.0176L41.1086 11.0457ZM10.5492 13.1222L10.2854 13.381V16.8136V20.2461H8.3608H6.43628L5.75863 20.5905C4.97698 20.9876 4.37003 21.6867 4.14376 22.4505C4.02665 22.8456 4 25.7719 4 38.2285V53.5215L4.25593 54.0773C4.59416 54.812 5.45661 55.5854 6.20065 55.8212C6.72315 55.9869 8.39207 56 28.9806 56C49.569 56 51.238 55.9869 51.7605 55.8212C52.5045 55.5854 53.367 54.812 53.7052 54.0773L53.9611 53.5215V48.9184C53.9611 44.5398 53.9511 44.3045 53.7564 44.0932C53.5173 43.8338 52.9763 43.7978 52.6655 44.0207C52.466 44.1637 52.4545 44.3709 52.4032 48.7488L52.3495 53.3273L52.0398 53.7257C51.4583 54.4738 53.3153 54.418 28.9806 54.418C4.6453 54.418 6.50268 54.4738 5.9213 53.7255L5.61165 53.327V38.1313V22.9355L5.85512 22.5512C6.3283 21.8042 6.19109 21.8191 12.3205 21.8516L17.803 21.8809L18.1687 22.25C18.4772 22.5616 18.6549 22.9772 19.3075 24.9133C19.8685 26.5777 20.1439 27.2508 20.3105 27.3654C20.5097 27.5024 21.6242 27.5234 28.687 27.5234H36.8337L37.0974 27.2645C37.4358 26.9324 37.4421 26.4748 37.1125 26.1707L36.8638 25.9414H29.1169H21.3699L20.7551 24.1221C20.417 23.1214 20.0501 22.126 19.9397 21.9101C19.6793 21.4006 19.0993 20.8361 18.5288 20.5369C18.0963 20.31 17.9314 20.2964 15.0129 20.2461L11.9508 20.1934L11.9224 16.7458L11.8942 13.2982L11.6126 13.0808C11.2383 12.7919 10.8711 12.8061 10.5492 13.1222ZM18.485 15.1835C17.9877 15.382 17.8704 16.0624 18.27 16.4309L18.5187 16.6602H28.9956H39.4725L39.7062 16.4161C39.9945 16.1148 40.0055 15.7086 39.7344 15.3799L39.529 15.1309L29.1244 15.1104C23.2561 15.0988 18.6174 15.1306 18.485 15.1835ZM22.534 20.7734C22.125 21.1749 22.3013 21.8334 22.87 22.028C23.3484 22.1917 38.9105 22.1917 39.3888 22.028C39.9575 21.8334 40.1338 21.1749 39.7249 20.7734C39.5137 20.5661 39.3668 20.5625 31.1294 20.5625C22.8921 20.5625 22.7452 20.5661 22.534 20.7734ZM28.134 32.0684C27.2759 32.2136 26.2874 32.7225 25.6351 33.3548C24.6042 34.3541 24.1456 35.5153 24.1456 37.1266V38.0369L23.7277 38.1599C23.2022 38.3144 22.5844 38.9714 22.4277 39.5424C22.3488 39.83 22.3204 41.3743 22.3413 44.2155C22.3715 48.2835 22.382 48.4764 22.5975 48.8809C22.7371 49.1434 23.0181 49.4222 23.3411 49.6191L23.8601 49.9356H28.9722C34.0524 49.9356 34.0869 49.9341 34.5317 49.7007C35.0197 49.4445 35.3258 49.0788 35.5182 48.5224C35.6824 48.047 35.6901 40.09 35.5269 39.513C35.3734 38.9708 34.7475 38.311 34.2465 38.1637L33.8415 38.0446L33.7899 36.8709C33.7293 35.492 33.5056 34.8108 32.8081 33.8806C31.7761 32.5045 29.8864 31.7718 28.134 32.0684ZM30.3236 33.8957C30.9796 34.1929 31.5826 34.7757 31.9038 35.423C32.0921 35.8028 32.1535 36.1431 32.1863 36.9893L32.2282 38.0703H28.9927H25.7573V37.193C25.7573 36.0048 25.9671 35.3683 26.5789 34.7003C27.611 33.5735 28.9684 33.2818 30.3236 33.8957ZM33.9015 39.7789C33.9973 39.873 34.0304 40.9541 34.0304 43.9916V48.0779L33.7915 48.242C33.5845 48.3844 32.9449 48.4063 28.9806 48.4063C25.0162 48.4063 24.3766 48.3844 24.1696 48.242L23.9307 48.0779V43.9916C23.9307 40.9541 23.9638 39.873 24.0597 39.7789C24.2452 39.5968 33.7159 39.5968 33.9015 39.7789Z" fill="url(#paint0_linear_331_297)"/>
<defs>
<linearGradient id="paint0_linear_331_297" x1="29" y1="2" x2="29" y2="56" gradientUnits="userSpaceOnUse">
<stop stop-color="white"/>
<stop offset="1" stop-color="#C4C4C4"/>
</linearGradient>
</defs>
</svg>
