<svg width="60" height="60" viewBox="0 0 60 60" fill="none" xmlns="http://www.w3.org/2000/svg">
<path fill-rule="evenodd" clip-rule="evenodd" d="M2.2103 6.21266C1.66186 6.46244 1.41611 6.71737 1.17728 7.28415C1.01983 7.65796 1 10.1735 1 29.7831C1 49.9805 1.01602 51.8946 1.18846 52.2549C1.52907 52.9668 1.62152 52.9817 5.7023 52.9817C9.11754 52.9817 9.39234 52.9668 9.5695 52.7726C9.84314 52.4727 9.81525 51.809 9.51786 51.5418C9.29355 51.3403 9.03098 51.3214 6.00223 51.289L2.729 51.2539V32.4578V13.6616L12.918 13.6306C22.7523 13.6007 23.1155 13.5921 23.3496 13.3819C23.6621 13.1014 23.68 12.3992 23.3814 12.1313C23.1887 11.9582 22.2985 11.9421 12.9473 11.9421H2.72381L2.75517 9.85581L2.78663 7.76953H16.6763H30.5659L30.5974 9.85581L30.6287 11.9421H28.5116C26.6068 11.9421 26.3753 11.9631 26.2036 12.1512C25.93 12.451 25.9579 13.1146 26.2553 13.3819C26.4708 13.5755 26.7256 13.6039 28.5606 13.6375L30.6235 13.6753V19.2462V24.8172L29.7109 25.0787C28.5937 25.3988 26.56 26.3591 25.4867 27.0732L24.6897 27.6034H19.4245C16.5286 27.6034 14.0753 27.6354 13.9727 27.6744C13.6912 27.7815 13.4329 28.3581 13.5172 28.6911C13.6746 29.3131 13.7133 29.3182 18.3733 29.3182C20.7365 29.3182 22.6701 29.3607 22.6701 29.4126C22.6701 29.4645 22.536 29.6316 22.3721 29.7841C21.9869 30.142 21.0838 31.366 20.5859 32.2047L20.1957 32.862H17.1591H14.1227L13.7857 33.1961C13.3874 33.5912 13.3625 33.8654 13.6877 34.2755L13.9266 34.5767H16.627C18.8107 34.5767 19.3274 34.6061 19.3274 34.7302C19.3274 34.8147 19.2226 35.1858 19.0947 35.5549C18.9666 35.9239 18.7785 36.6779 18.6765 37.2303L18.4913 38.2348H16.209H13.9266L13.6877 38.5361C13.3768 38.9282 13.3862 39.1786 13.7267 39.5717L14.0047 39.8924L16.1878 39.9278L18.3708 39.9631L18.4448 41.2995C18.4855 42.0346 18.5656 42.829 18.6228 43.0647L18.7267 43.4934H16.426C15.0247 43.4934 14.036 43.5408 13.8967 43.6147C13.3439 43.9081 13.3959 44.8148 13.9808 45.079C14.1646 45.1621 15.143 45.2081 16.7236 45.2081H19.1808L19.3865 45.7511C20.0098 47.3965 21.2333 49.4089 22.3725 50.6623L22.9138 51.2579L17.7899 51.291C12.9387 51.3224 12.653 51.3356 12.4234 51.5418C12.111 51.8224 12.0932 52.5246 12.3917 52.7925C12.5822 52.9635 13.1912 52.9817 18.7472 52.9817H24.8918L25.7112 53.517C27.345 54.5845 29.5177 55.431 31.5876 55.8065C33.1455 56.0891 35.8657 56.058 37.3883 55.7402C42.8179 54.607 47.1733 50.9947 49.1795 45.9608C49.6303 44.8295 50.0731 43.0364 50.1738 41.9339L50.2507 41.0928H50.7361C51.2087 41.0928 51.2517 41.1263 52.3627 42.3603C52.9905 43.0574 53.644 43.7004 53.8152 43.7892C54.0547 43.9134 54.6886 43.9507 56.5638 43.9507C59.2771 43.9507 59.5056 43.898 59.8418 43.1954C60.1113 42.6321 60.058 42.3358 59.4978 41.2826C59.2126 40.7463 58.9791 40.2572 58.9791 40.1958C58.9791 40.1346 59.1909 39.7139 59.4495 39.2611C59.7083 38.8083 59.9483 38.2643 59.983 38.0524C60.0661 37.5449 59.8404 37.0314 59.3962 36.7172C59.0601 36.4794 58.8941 36.4605 56.8335 36.4258C55.4717 36.4029 54.4502 36.4366 54.1594 36.5144C53.7691 36.6186 53.4764 36.8733 52.4437 38.0078C51.2257 39.3458 51.1879 39.3756 50.7088 39.3768C50.2291 39.378 50.2189 39.37 50.2189 38.9929C50.2189 38.781 50.1398 38.1509 50.0431 37.5925C48.6865 29.7579 41.6406 24.0832 33.7069 24.4353L32.3525 24.4953L32.35 16.0753C32.3476 8.14986 32.335 7.62835 32.1357 7.19795C31.8839 6.65404 31.6268 6.41031 31.0553 6.17345C30.6812 6.01844 28.9748 5.99797 16.6511 6.00015C3.33254 6.00255 2.64958 6.01261 2.2103 6.21266ZM10.1061 16.0225C10.011 16.0562 9.56005 16.4466 9.10405 16.89L8.27506 17.6963L7.80696 17.277C7.244 16.7726 6.68126 16.7092 6.30676 17.1079C5.89272 17.5486 5.99969 17.9161 6.78362 18.7472C7.5687 19.5796 8.04268 19.8806 8.42018 19.7866C8.80897 19.6898 11.2587 17.1697 11.2587 16.8665C11.2587 16.585 10.6735 15.9379 10.4319 15.9522C10.3478 15.9571 10.2012 15.9888 10.1061 16.0225ZM13.6877 17.3875C13.3766 17.7796 13.3862 18.0302 13.7269 18.4231L14.0051 18.7439L20.0378 18.7776C23.3557 18.7961 26.242 18.7805 26.4516 18.7426C27.2388 18.6008 27.5464 17.8309 27.0141 17.3348L26.7472 17.0863H20.3369H13.9266L13.6877 17.3875ZM9.08492 22.1647L8.19057 23.0279L7.74172 22.5721C7.1836 22.0052 6.68069 21.9508 6.31068 22.4175C5.88811 22.9502 5.9877 23.2177 6.97289 24.1947C8.24682 25.4582 8.28197 25.4537 9.8919 23.8298C10.5781 23.1377 11.1732 22.4387 11.2142 22.2766C11.3271 21.8306 10.9413 21.3823 10.4059 21.3374C10.0122 21.3042 9.91046 21.368 9.08492 22.1647ZM13.8747 22.4719C13.3426 22.7788 13.4075 23.6714 13.9808 23.9304C14.1819 24.0213 16.1103 24.0596 20.4908 24.0596H26.715L26.9978 23.779C27.3436 23.4361 27.3588 23.0456 27.0419 22.6461L26.803 22.3449L20.4428 22.3483C16.2149 22.3507 14.013 22.3921 13.8747 22.4719ZM37.1361 26.3999C42.1826 27.4505 46.267 31.0748 47.8604 35.9162C48.1614 36.8305 48.4899 38.4682 48.4899 39.054V39.386L47.3086 39.3534L46.1275 39.3209L46.0423 38.635C45.8374 36.9843 44.8049 34.4235 43.9592 33.4683C43.5243 32.9771 42.9736 32.9457 42.6197 33.3918C42.2941 33.8023 42.3154 33.9686 42.7949 34.7549C43.6638 36.1798 44.1515 37.4615 44.2913 38.6879L44.37 39.378H43.1989C42.3585 39.378 42.0173 39.3377 41.9909 39.2351C41.9706 39.1566 41.8709 38.7489 41.7695 38.3294C40.9586 34.9779 37.8611 32.5968 34.3121 32.5968C30.5917 32.5968 27.506 35.1315 26.7556 38.8039C26.3968 40.5602 26.7537 42.5653 27.7092 44.162C28.3536 45.2388 29.6938 46.4529 30.8681 47.0238C32.2961 47.718 33.0676 47.8775 34.6579 47.8075C36.5198 47.7254 37.6742 47.2994 39.1895 46.1351C40.4175 45.1916 41.5339 43.4056 41.8461 41.8847L41.997 41.1499L43.1851 41.1171L44.373 41.0844L44.2953 41.7399C44.1781 42.7294 43.5891 44.3563 42.981 45.3699C42.3434 46.433 41.0101 47.83 39.9759 48.5184C36.5843 50.7761 32.1401 50.7947 28.7553 48.5653C23.0877 44.8323 22.6961 36.7293 27.9754 32.432C28.8302 31.7362 30.6775 30.7971 31.7762 30.4997C32.3344 30.3486 32.9662 30.296 34.2544 30.2934C36.3764 30.2891 37.1658 30.4654 38.9045 31.3322C40.305 32.0304 40.6439 32.0815 40.9891 31.6462C41.2615 31.3029 41.2801 31.1567 41.1007 30.7664C40.8213 30.1583 38.5415 29.1187 36.6174 28.7219C35.1875 28.4271 32.7576 28.4838 31.4001 28.8436C26.871 30.0445 23.4911 33.6765 22.6608 38.2348C22.4655 39.3068 22.4975 41.4423 22.7245 42.509C23.3297 45.3508 24.9158 47.8571 27.1795 49.5489C33.2396 54.0776 41.8302 51.9544 45.0543 45.131C45.5486 44.0849 46.0693 42.2405 46.0693 41.5354V41.0928H47.2796H48.4899V41.4231C48.4899 41.6048 48.4098 42.1834 48.3118 42.7092C47.2451 48.4337 42.8778 52.83 37.0208 54.0747C35.7337 54.3483 33.0943 54.3529 31.7278 54.0839C24.9424 52.7483 20.1323 47.0058 20.1347 40.2438C20.1373 33.2955 25.1856 27.4165 32.122 26.2843C33.3645 26.0815 35.886 26.1396 37.1361 26.3999ZM9.16111 27.4528L8.27552 28.331L7.75255 27.8529C7.14429 27.2968 6.76956 27.2439 6.35471 27.6554C5.8691 28.1369 5.97168 28.4423 6.95618 29.4456C8.19449 30.7076 8.27529 30.7014 9.78655 29.2324C11.3287 27.7335 11.5054 27.3804 10.9758 26.8552C10.4781 26.3616 10.1534 26.4685 9.16111 27.4528ZM9.16895 32.712L8.25834 33.5909L7.79935 33.1464C7.23869 32.6035 6.64161 32.5323 6.2874 32.9661C5.89042 33.4523 6.00234 33.7367 6.97934 34.7253C8.24347 36.0045 8.25984 36.0027 9.88429 34.3966C10.5781 33.7107 11.1759 33.0553 11.2126 32.9402C11.3711 32.4449 10.8437 31.8331 10.2582 31.8331C10.16 31.8331 9.66978 32.2287 9.16895 32.712ZM36.214 34.6007C37.148 34.9056 38.3454 35.7152 38.9332 36.4393C39.4912 37.1265 40.0366 38.2395 40.145 38.9123L40.2202 39.378H39.0133H37.8066L37.6702 38.927C37.4765 38.2855 36.522 37.2938 35.784 36.9674C34.9622 36.6038 33.6799 36.5907 32.9148 36.9383C30.3354 38.1097 29.9803 41.5712 32.2788 43.1395C34.117 44.3938 36.6906 43.7018 37.5552 41.7208L37.8277 41.0966L39.0239 41.0947L40.2202 41.0928L40.1427 41.5727C40.0115 42.3862 39.4115 43.46 38.6271 44.2846C37.4446 45.5279 36.0679 46.1227 34.373 46.1227C32.6075 46.1227 31.3966 45.6286 30.1337 44.3927C27.811 42.1199 27.7375 38.5791 29.964 36.2185C31.6193 34.4635 33.9476 33.8609 36.214 34.6007ZM10.1061 37.1722C10.011 37.2053 9.56005 37.5951 9.10405 38.0386L8.27506 38.8448L7.80696 38.4255C7.23881 37.9165 6.7102 37.8614 6.32232 38.2707C5.89837 38.7184 5.99531 39.06 6.78362 39.8957C7.5687 40.7281 8.04268 41.0291 8.42018 40.9351C8.79307 40.8423 11.2587 38.3189 11.2587 38.0301C11.2587 37.5539 10.5421 37.0205 10.1061 37.1722ZM58.057 38.1674C58.057 38.1932 57.8566 38.5662 57.6117 38.9962C56.9309 40.1916 56.9317 40.1695 57.5301 41.2673L58.0582 42.2359L56.2998 42.2243L54.5414 42.2127L54.0352 41.6527L53.529 41.0928H54.3574C55.0832 41.0928 55.2209 41.058 55.4687 40.8121C55.8145 40.4693 55.8297 40.0788 55.5127 39.6792C55.2926 39.4017 55.2061 39.378 54.4088 39.378H53.5437L54.0854 38.7493L54.627 38.1205H56.342C57.2853 38.1205 58.057 38.1417 58.057 38.1674ZM34.9674 38.4708C35.3059 38.5976 35.9258 39.1242 35.9258 39.2851C35.9258 39.3362 35.4849 39.378 34.946 39.378C33.8037 39.378 33.5052 39.5539 33.5052 40.227C33.5052 40.8623 33.9082 41.0928 35.0192 41.0928C35.5179 41.0928 35.9258 41.1396 35.9258 41.1969C35.9258 41.3943 35.2227 41.8873 34.7679 42.0087C33.6141 42.3169 32.4678 41.4368 32.4678 40.243C32.4678 38.9298 33.7556 38.0167 34.9674 38.4708ZM9.08492 43.3132L8.19057 44.1764L7.74172 43.7207C7.1836 43.1538 6.68069 43.0993 6.31068 43.566C5.88811 44.0987 5.9877 44.3662 6.97289 45.3433C8.23875 46.5987 8.2731 46.5947 9.8828 45.0081C10.6489 44.2531 11.1603 43.6541 11.2092 43.4549C11.3264 42.977 10.9577 42.5322 10.4059 42.4859C10.0122 42.4528 9.91046 42.5166 9.08492 43.3132Z" fill="url(#paint0_linear_331_326)"/>
<circle cx="34" cy="40" r="2" fill="#E31B40"/>
<defs>
<linearGradient id="paint0_linear_331_326" x1="30.5" y1="6" x2="30.5" y2="56" gradientUnits="userSpaceOnUse">
<stop stop-color="white"/>
<stop offset="1" stop-color="#C4C4C4"/>
</linearGradient>
</defs>
</svg>
