<svg width="60" height="60" viewBox="0 0 60 60" fill="none" xmlns="http://www.w3.org/2000/svg">
<path fill-rule="evenodd" clip-rule="evenodd" d="M3.82425 1.22314C3.17355 1.47697 2.59126 1.99867 2.24526 2.63799L2 3.09125V30.0036V56.916L2.24526 57.3693C2.53442 57.9036 3.09063 58.4502 3.6449 58.7447C4.0272 58.9479 4.78431 58.9568 24.003 58.9853C45.959 59.0178 44.5267 59.0615 45.413 58.3318C45.6394 58.1454 45.9568 57.7278 46.1185 57.4038L46.4123 56.8148V51.4177V46.0206L46.1498 45.7742C45.7755 45.4231 45.1694 45.444 44.8155 45.8202L44.5405 46.1124L44.5124 51.1743C44.4968 53.9583 44.4578 56.3499 44.4256 56.489C44.2799 57.1185 45.3862 57.086 24.118 57.086H4.53496L4.20337 56.7548L3.87178 56.4235V30.0187V3.61386L4.14552 3.2959L4.41936 2.97794L24.0261 2.94814C37.8558 2.92717 43.7204 2.95437 43.9297 3.0406C44.093 3.1078 44.2846 3.27426 44.3555 3.41035C44.4481 3.58803 44.4923 6.3017 44.5125 13.0256L44.5405 22.3934L44.8155 22.6857C45.1809 23.0741 45.8154 23.0882 46.1657 22.7159L46.4123 22.4535V12.823V3.19245L46.1136 2.5938C45.7692 1.90337 45.0259 1.30008 44.2917 1.11492C43.9657 1.03266 37.6131 0.996622 24.0992 1.00025C4.92985 1.00535 4.36673 1.01158 3.82425 1.22314ZM11.286 6.88641C10.7276 7.11145 10.6783 7.34386 10.6783 9.75057C10.6783 11.9844 10.6799 11.9983 10.9568 12.2749L11.2351 12.5531H24.2096H37.184L37.4138 12.2981C37.7548 11.9196 37.806 11.6757 37.6317 11.2589C37.5257 11.0056 37.355 10.8422 37.1053 10.7553C36.8386 10.6625 33.3805 10.6267 24.6714 10.6267H12.6068V9.66354V8.70036H24.8954H37.184L37.4138 8.4454C37.7548 8.06693 37.806 7.82296 37.6317 7.40619C37.5257 7.15293 37.355 6.98953 37.1053 6.90261C36.6576 6.74669 11.6714 6.73094 11.286 6.88641ZM55.8888 12.8994C55.28 13.2028 54.8462 13.6316 54.4564 14.3152C54.151 14.8509 54.1053 14.8848 53.7441 14.8426C53.5318 14.8179 53.2567 14.8518 53.1327 14.9181C53.0088 14.9844 52.3932 15.9198 51.7648 16.997C50.202 19.6754 50.4307 19.4475 49.6759 19.0787C49.0787 18.7868 49.0272 18.78 48.6414 18.941C48.3603 19.0583 48.2097 19.2087 48.1517 19.4295C47.9815 20.0776 48.1241 20.35 48.8791 20.8194L49.3606 21.1188L45.2682 28.1958L41.1758 35.2728L40.159 37.9801C39.5997 39.4692 38.838 41.2679 38.4664 41.9771C37.8581 43.138 37.7907 43.3351 37.7907 43.9513C37.7907 44.3965 37.8744 44.8301 38.0299 45.1913L38.269 45.7466L37.2738 46.9686C36.7263 47.6408 36.243 48.2322 36.1994 48.2827C36.1559 48.3334 35.9549 47.9649 35.7528 47.4639C35.1818 46.0493 34.3969 45.4866 33.2851 45.695C32.8726 45.7722 32.1148 46.418 31.8274 46.9374C31.7339 47.1062 31.6641 46.6717 31.5218 45.0341C31.3167 42.6756 31.2121 42.3681 30.4359 41.8413C29.7044 41.3448 28.6051 41.5181 28.011 42.2233C27.5857 42.7281 25.1292 50.1083 25.2398 50.5485C25.3397 50.9457 25.9474 51.3347 26.3332 51.2484C26.4892 51.2135 26.7189 51.0714 26.8437 50.9324C26.973 50.7885 27.5566 49.1826 28.2013 47.1973C28.8232 45.2819 29.363 43.7148 29.4006 43.7148C29.4383 43.7148 29.5344 44.569 29.6141 45.6128C29.6953 46.6758 29.8314 47.6847 29.9234 47.9059C30.542 49.394 32.3642 49.598 33.2921 48.283C33.4819 48.0141 33.6702 47.7941 33.7108 47.7941C33.7513 47.7941 33.9257 48.1538 34.0983 48.5933C34.4904 49.5915 34.8228 49.9913 35.4635 50.2359C36.0559 50.4618 36.6479 50.3914 37.1808 50.0317C37.3756 49.9001 38.0615 49.1237 38.7052 48.3061L39.8754 46.8196L40.5246 46.8665C41.0407 46.9038 41.2984 46.8564 41.7805 46.6361C42.5373 46.29 42.8361 45.975 43.7219 44.5892C44.1098 43.9827 45.198 42.5561 46.1403 41.4192L47.8536 39.3521L51.9667 32.2133C54.2289 28.2869 56.0947 25.0581 56.113 25.0382C56.1913 24.9528 57.0762 25.4901 57.2385 25.7213C57.6063 26.2461 57.4851 26.5391 55.4186 30.1169C54.3207 32.0178 53.3959 33.7365 53.3633 33.9361C53.3146 34.2351 53.3675 34.3623 53.6631 34.6576C53.9632 34.9572 54.0799 35.0045 54.3753 34.9454C54.5696 34.9066 54.7947 34.8201 54.8754 34.7531C55.1038 34.5638 59.1176 27.5662 59.2377 27.1479C59.613 25.8408 59.0778 24.5933 57.7884 23.7697L57.083 23.3192L58.3273 21.1689C59.6506 18.8821 59.7918 18.4532 59.3526 18.056C59.1374 17.8614 59.1403 17.8457 59.5266 17.1436C60.0143 16.2575 60.1169 15.531 59.8726 14.6967C59.5034 13.4366 58.4372 12.6627 57.0819 12.6709C56.576 12.674 56.1948 12.747 55.8888 12.8994ZM13.8913 14.8477C13.5489 15.2278 13.4992 15.4704 13.6767 15.8951C13.7989 16.1871 13.9403 16.3081 14.2712 16.4044C14.5797 16.4942 17.5403 16.5208 24.4996 16.4966L34.2938 16.4625L34.5675 16.1445C34.9252 15.7291 34.9234 15.2311 34.5628 14.8709L34.2844 14.5928H24.2027H14.1211L13.8913 14.8477ZM57.7536 14.8166C58.1158 15.1784 58.1478 15.5489 57.8669 16.1286C57.7277 16.4158 57.5511 16.6747 57.4744 16.7042C57.3694 16.7444 56.1357 16.1246 55.8426 15.884C55.7625 15.8184 56.4001 14.8278 56.5958 14.7139C56.9246 14.5226 57.5114 14.5746 57.7536 14.8166ZM55.6442 18.0085C56.5251 18.5162 57.2651 18.9475 57.2886 18.9671C57.3221 18.9952 55.5655 22.1128 55.4197 22.2841C55.3913 22.3175 52.2727 20.5648 52.0994 20.4183C52.0536 20.3795 53.9297 17.0902 53.9993 17.0874C54.023 17.0865 54.7632 17.501 55.6442 18.0085ZM18.0623 21.401C17.6693 21.5592 17.4925 21.8419 17.4884 22.3183C17.4857 22.636 17.5558 22.7908 17.7837 22.9698C18.0813 23.2038 18.126 23.2047 29.0762 23.2047H40.0699L40.3483 22.9265C40.7305 22.5449 40.7243 21.9759 40.3341 21.6097L40.0413 21.335L29.1885 21.313C22.3779 21.2992 18.2338 21.332 18.0623 21.401ZM53.3039 23.3477C53.8809 23.6742 54.3532 23.9866 54.3532 24.0419C54.3532 24.1202 47.1881 36.5845 46.7662 37.2401C46.6885 37.3607 46.3117 37.19 45.0365 36.4565C44.1398 35.9407 43.3906 35.5072 43.3715 35.4933C43.3454 35.4743 48.1381 27.1304 50.8027 22.5561L51.0815 22.0773L51.668 22.4158C51.9907 22.602 52.7267 23.0214 53.3039 23.3477ZM9.46104 27.1358C9.11879 27.2036 8.74976 27.6966 8.74976 28.0862C8.74976 28.2613 8.87296 28.5476 9.02349 28.7225L9.29734 29.0405H19.3376H29.3778L29.6705 28.7658C30.0739 28.3872 30.0739 27.7674 29.6706 27.3888L29.3779 27.1141L19.546 27.0999C14.1383 27.0922 9.60012 27.1084 9.46104 27.1358ZM32.7426 27.1356C32.003 27.324 31.75 28.2514 32.298 28.7658L32.5907 29.0405H36.335H40.0792L40.3531 28.7225C40.7029 28.3163 40.7029 27.8384 40.3532 27.4321L40.0795 27.1141L36.5245 27.096C34.5692 27.086 32.8674 27.1038 32.7426 27.1356ZM9.26025 32.0669C8.67852 32.4 8.56825 33.1188 9.02826 33.5782L9.30664 33.8564H14.5146H19.7226L20.0217 33.5577C20.428 33.1518 20.4163 32.6878 19.9892 32.2612L19.6576 31.93L14.5724 31.9334C10.961 31.9359 9.42133 31.9745 9.26025 32.0669ZM22.8165 32.0766C22.2004 32.3879 22.1261 33.2007 22.6743 33.6315C22.9465 33.8454 23.1422 33.8564 26.6674 33.8564C30.2343 33.8564 30.3836 33.8476 30.6211 33.6265C31.1381 33.1455 31.037 32.3901 30.4137 32.0749C30.0111 31.8715 23.2195 31.873 22.8165 32.0766ZM44.4005 38.3037C44.9475 38.6151 45.423 38.915 45.4571 38.9702C45.4913 39.0253 44.9701 39.7312 44.2991 40.5387L43.079 42.0069L42.4484 41.648C42.1016 41.4506 41.6778 41.2103 41.5066 41.1139C41.3355 41.0174 41.1951 40.9076 41.1947 40.8699C41.1939 40.7866 42.4366 37.4693 42.5179 37.338C42.5494 37.287 42.7622 37.356 42.9907 37.4914C43.2191 37.6268 43.8536 37.9924 44.4005 38.3037ZM12.3799 38.9029C9.28827 39.5569 6.87355 41.8745 6.06789 44.9613C5.77238 46.0934 5.7962 47.9646 6.12042 49.0922C6.93515 51.9259 9.04153 54.0295 11.8745 54.8388C12.5647 55.0359 13.0704 55.097 14.0248 55.0981C15.5704 55.1001 16.2032 54.9514 17.6945 54.2352C18.6728 53.7655 19.0151 53.5263 19.747 52.8009C21.2334 51.3275 22.0913 49.5129 22.2153 47.5791C22.2763 46.6281 22.2702 46.5967 21.9644 46.2927C21.2884 45.6203 20.3227 46.1242 20.3191 47.1513C20.3141 48.5649 19.5894 50.2263 18.5065 51.3069C17.2514 52.5593 15.8186 53.1622 14.0815 53.169C10.5281 53.1831 7.77904 50.4371 7.79311 46.8876C7.79992 45.1524 8.40354 43.7212 9.65729 42.4675C11.1667 40.9582 13.3529 40.3403 15.4427 40.8322C16.1029 40.9876 16.4483 41.1378 17.9555 41.9246C18.3354 42.123 18.4031 42.1269 18.774 41.9721C19.2038 41.7927 19.3464 41.4987 19.2803 40.9278C19.2059 40.2852 17.3792 39.251 15.6853 38.8923C14.7474 38.6937 13.3477 38.6982 12.3799 38.9029ZM41.2607 43.2146C41.6607 43.4381 41.9881 43.6441 41.9881 43.6724C41.9881 43.8565 41.4935 44.6371 41.2837 44.7838C40.6782 45.2075 39.8181 44.7818 39.8042 44.0516C39.7967 43.6517 40.2151 42.8083 40.421 42.8083C40.4827 42.8083 40.8606 42.9911 41.2607 43.2146ZM17.5982 44.1377C17.5046 44.1735 16.5967 44.9932 15.5807 45.9594L13.7335 47.7163L12.5626 46.5653C11.6014 45.6206 11.3307 45.4145 11.0505 45.4145C10.5695 45.4145 10.1111 45.8959 10.1111 46.4011C10.1111 46.7425 10.2586 46.9414 11.3122 48.0205C11.9727 48.6973 12.6914 49.3353 12.9091 49.4384C13.365 49.6545 14.104 49.6812 14.5817 49.4986C15.0199 49.3311 18.4912 45.9102 18.6873 45.4525C18.9075 44.9386 18.7082 44.4203 18.2104 44.2125C18.0025 44.1258 17.8179 44.0588 17.8003 44.0637C17.7828 44.0686 17.6918 44.1019 17.5982 44.1377Z" fill="url(#paint0_linear_331_342)"/>
<circle cx="56.9143" cy="15.7548" r="1.52632" fill="#E31B40"/>
<defs>
<linearGradient id="paint0_linear_331_342" x1="31" y1="1" x2="31" y2="59" gradientUnits="userSpaceOnUse">
<stop stop-color="white"/>
<stop offset="1" stop-color="#C4C4C4"/>
</linearGradient>
</defs>
</svg>
