<svg width="60" height="60" viewBox="0 0 60 60" fill="none" xmlns="http://www.w3.org/2000/svg">
<path fill-rule="evenodd" clip-rule="evenodd" d="M3.21195 1.20016C2.81632 1.33032 2.45615 1.57591 2.0178 2.01452C0.89685 3.13621 1.00267 0.219624 1.00267 29.9993C1.00267 59.7792 0.89685 56.8627 2.0178 57.9836C3.11564 59.0812 1.83336 58.9986 17.7792 58.9986C31.4386 58.9986 31.7088 58.9944 32.3055 58.7711C33.1301 58.4627 33.781 57.8766 34.1632 57.0982L34.4817 56.4498L34.5159 50.8709C34.5347 47.8025 34.5682 45.2919 34.5903 45.2919C34.6122 45.2919 35.3616 45.6455 36.2554 46.0777C38.1608 46.9989 38.629 47.3667 39.2386 48.4201C40.5616 50.7067 42.8992 51.8526 45.2829 51.3831C46.065 51.229 46.6229 50.9801 49.1204 49.6704C50.7276 48.8277 52.1121 48.0337 52.1969 47.9061C52.4919 47.4628 52.0417 46.6512 51.501 46.6512C51.3589 46.6512 49.9725 47.3112 48.42 48.1178C46.8676 48.9245 45.3471 49.6445 45.0409 49.7179C43.3696 50.1188 41.5522 49.1945 40.6883 47.504C40.53 47.1943 40.0804 46.6208 39.6892 46.2296C38.9945 45.5351 38.8144 45.4376 32.0279 42.0828C24.5667 38.3944 24.4471 38.3221 24.2735 37.3975C24.1047 36.4973 24.649 35.4047 25.4767 34.9825C26.3585 34.5327 26.2944 34.5095 31.0487 37.0046C32.0413 37.5254 32.1814 37.5695 32.4956 37.4598C32.8774 37.3268 33.0655 37.0644 33.0655 36.6646C33.0655 36.5219 31.1683 32.7846 28.8495 28.3595C24.7948 20.6218 24.6334 20.2902 24.6325 19.691C24.6307 18.5223 25.476 17.5597 26.5988 17.4518C27.2156 17.3925 27.8618 17.6744 28.2192 18.1584C28.3266 18.3039 30.0524 21.5501 32.0545 25.3722C34.0565 29.1943 35.8003 32.4361 35.9293 32.5764C36.318 32.9985 37.0237 32.8289 37.2609 32.2565C37.3813 31.966 37.3303 31.8138 36.6878 30.5437C36.3 29.777 35.9428 29.0987 35.8938 29.0364C35.7162 28.8102 35.6557 28.099 35.776 27.6523C35.9343 27.0646 36.7353 26.3056 37.3112 26.1976C37.8489 26.0967 38.5554 26.1947 38.8952 26.4173C39.0462 26.5162 39.5248 27.2802 39.9837 28.155C40.4342 29.0135 40.8797 29.8052 40.9737 29.9143C41.198 30.1744 41.808 30.1689 42.1356 29.9037C42.5494 29.5686 42.4489 29.161 41.5197 27.4067C41.0449 26.5103 40.6564 25.6471 40.6564 25.4884C40.6564 25.0022 41.0907 24.2659 41.5759 23.9298C42.1698 23.5183 43.1285 23.4305 43.71 23.7344C44.0342 23.9038 44.2421 24.2083 44.9211 25.5083C45.372 26.3713 45.8283 27.1742 45.9353 27.2924C46.3757 27.7789 47.3408 27.41 47.3408 26.755C47.3408 26.5905 46.9585 25.7294 46.4911 24.8415C45.5673 23.0864 45.5009 22.7892 45.8703 22.0654C46.4976 20.836 48.3767 20.5697 49.291 21.5805C49.5959 21.9177 52.8235 28.1301 53.5606 29.7985C54.3929 31.6824 55.1177 33.7654 55.783 36.1848C56.0672 37.2183 56.5071 38.5493 56.7606 39.1426C57.0422 39.8014 57.2443 40.4727 57.2801 40.8672C57.392 42.1012 56.7491 43.5082 55.7625 44.1884C55.0018 44.713 54.8184 44.9152 54.8184 45.2289C54.8184 45.6228 55.2754 46.1132 55.6425 46.1132C56.3922 46.1132 57.8602 44.7655 58.4321 43.552C59.2309 41.8571 59.1895 40.3261 58.2921 38.3819C58.0765 37.9146 57.7382 36.9206 57.5405 36.173C56.3368 31.6218 55.483 29.5593 52.2977 23.5093C51.0448 21.1299 50.733 20.6237 50.2565 20.1953C49.5149 19.5286 48.4238 19.1753 47.4282 19.2793C46.051 19.4233 44.7918 20.2794 44.2816 21.4189L44.0718 21.8873L42.9022 21.8937C41.8971 21.899 41.653 21.939 41.1662 22.1782C40.4575 22.5264 39.6459 23.33 39.337 23.9893L39.1011 24.4928L37.9244 24.4991C36.8714 24.5046 36.6796 24.5387 36.1003 24.8231C35.7361 25.0019 35.2541 25.3668 34.9987 25.6568L34.5447 26.1725L34.5132 14.8606L34.4817 3.54877L34.1632 2.90036C33.781 2.12202 33.1301 1.53592 32.3055 1.22746C31.713 1.00578 31.4337 1 21.4043 1C11.5162 1 11.1009 1.00838 10.8494 1.21194C10.4856 1.50647 10.4856 2.19271 10.8494 2.48723C11.1008 2.69079 11.514 2.69918 21.3065 2.69918C32.6631 2.69918 32.0146 2.65432 32.5255 3.47581C32.75 3.83672 32.7873 4.07007 32.8219 5.3329L32.8617 6.7772H17.7818H2.70211L2.70234 5.38954C2.70245 3.85247 2.83104 3.42155 3.41815 2.99042C3.69617 2.78629 3.9512 2.74845 5.38293 2.69918C6.94166 2.64548 7.03943 2.62849 7.24427 2.37509C7.5385 2.01135 7.51596 1.61148 7.18241 1.2781C6.91334 1.00895 6.85419 1.00023 5.34135 1.00702C4.21224 1.01201 3.62117 1.0657 3.21195 1.20016ZM32.8114 15.778C32.8293 20.2146 32.8001 22.981 32.7359 22.9145C32.6783 22.8549 32.1936 21.9751 31.6587 20.9594L30.6863 19.1127V16.281C30.6863 14.0637 30.6516 13.383 30.5264 13.1435C30.2866 12.6843 29.7542 12.2239 29.3189 12.099C29.0774 12.0298 24.6918 11.9889 17.658 11.9905C6.8278 11.9929 6.36555 12.0015 5.91021 12.2081C5.61201 12.3436 5.3179 12.6021 5.11714 12.9053L4.79809 13.3875V17.0206C4.79809 20.615 4.80093 20.6583 5.05868 21.0729C5.20211 21.3034 5.50801 21.6092 5.73845 21.7526L6.15765 22.0132L14.9 22.0442L23.6424 22.0752L26.4428 27.4249C27.9829 30.3672 29.4746 33.2037 29.7576 33.7282L30.2722 34.6817L29.148 34.0846C28.5297 33.7561 27.7737 33.4003 27.468 33.2937L26.9121 33.1001L26.718 32.1415C26.3182 30.1669 25.6255 28.9033 24.1153 27.3939C22.5347 25.8139 20.9317 25.0362 18.7171 24.775C14.2992 24.254 10.0767 27.1728 8.86464 31.5852C8.55103 32.7266 8.57256 35.1072 8.9069 36.2635C9.82063 39.4238 12.1966 41.7994 15.3574 42.713C16.5081 43.0456 18.8907 43.0685 20.0364 42.7579C21.3991 42.3886 23.5723 41.1555 24.205 40.3927C24.3343 40.2367 24.6178 40.3508 26.6408 41.3727C27.9 42.0089 29.8111 42.9445 30.8876 43.4521L32.845 44.375L32.8137 46.0512L32.7823 47.7274L17.7422 47.7561L2.70211 47.7848V28.1302V8.47559L17.7422 8.50425L32.7823 8.53302L32.8114 15.778ZM28.9619 15.125L28.9938 16.5062L28.2919 16.1445C27.6683 15.8231 27.4882 15.7834 26.674 15.7884C25.99 15.7926 25.6221 15.8553 25.2217 16.036C23.6985 16.7237 22.8479 18.0028 22.8474 19.606L22.8472 20.3706H14.7799C8.65662 20.3706 6.68006 20.3379 6.57685 20.2347C6.38254 20.0404 6.38311 14.0168 6.57741 13.8226C6.68244 13.7176 9.27624 13.6927 17.8221 13.7149L28.9302 13.7438L28.9619 15.125ZM19.0168 26.5348C21.1627 26.9199 23.0156 28.1939 24.1384 30.0559C24.6061 30.8314 25.0092 31.9486 25.0957 32.7086L25.1546 33.2277L24.5167 33.5557C23.7206 33.9649 23.0624 34.701 22.7483 35.5333C22.433 36.3689 22.4797 37.7322 22.8495 38.4882C22.9848 38.7647 23.0954 39.0248 23.0954 39.0661C23.0954 39.1076 22.7924 39.3795 22.4219 39.6706C17.6119 43.4488 10.6549 40.3293 10.3247 34.2459C10.1584 31.1801 11.8384 28.4098 14.6549 27.1058C16.0861 26.4433 17.4857 26.26 19.0168 26.5348ZM18.8218 32.8557L15.965 35.712L14.9004 34.6682C13.9603 33.7463 13.7885 33.6242 13.4321 33.6242C13.131 33.6242 12.9689 33.7 12.7938 33.9227C12.3701 34.4611 12.468 34.6774 13.7202 35.9696C15.0052 37.2957 15.6468 37.8155 15.9987 37.8155C16.1534 37.8155 17.351 36.6993 19.5505 34.5047C22.5489 31.513 22.8688 31.1581 22.8688 30.8232C22.8688 30.3416 22.5274 29.9993 22.0472 29.9993C21.7166 29.9993 21.3843 30.2936 18.8218 32.8557ZM32.8169 52.7966C32.7833 56.0122 32.7747 56.1222 32.5255 56.5228C32.0079 57.3549 33.0646 57.2994 17.7534 57.2992C4.88816 57.2991 3.98009 57.2864 3.61653 57.1009C3.40285 56.9921 3.12244 56.7591 2.9934 56.5834C2.77032 56.2796 2.75718 56.0963 2.72568 52.8735L2.6926 49.4832H17.772H32.8515L32.8169 52.7966Z" fill="url(#paint0_linear_331_281)"/>
<circle cx="18" cy="53" r="2" fill="#E31B40"/>
<defs>
<linearGradient id="paint0_linear_331_281" x1="30" y1="1" x2="30" y2="59" gradientUnits="userSpaceOnUse">
<stop stop-color="white"/>
<stop offset="1" stop-color="#C4C4C4"/>
</linearGradient>
</defs>
</svg>
