<svg width="60" height="60" viewBox="0 0 60 60" fill="none" xmlns="http://www.w3.org/2000/svg">
<path fill-rule="evenodd" clip-rule="evenodd" d="M26.7221 7.16412C25.5353 7.42398 23.9393 8.18199 23.5269 8.68167C23.2711 8.99169 23.3231 9.57412 23.6289 9.8232C24.0125 10.1355 24.2807 10.0956 25.3254 9.57072C26.5396 8.96075 27.4068 8.75 28.7036 8.75C29.9037 8.75 31.1587 9.04749 32.0764 9.54962C33.8789 10.5358 35.1751 12.6181 35.1751 14.5276V15.2405L34.8545 14.9399C34.0204 14.1576 33.3669 14.1683 32.3802 14.9802L31.9748 15.3139H29.5695C26.9547 15.3139 26.2517 15.3999 25.3047 15.8359C24.5738 16.1723 23.501 17.1539 23.0862 17.8658C22.6911 18.5438 22.3533 19.6718 22.3533 20.3132C22.3533 20.834 22.3506 20.8375 21.9755 20.8009C21.6189 20.7664 21.5855 20.7217 21.3766 20.0024C21.2077 19.4207 21.1528 18.8387 21.1444 17.5409C21.1318 15.591 21.3166 14.7325 22.134 12.9427C22.5609 12.0078 22.588 11.8915 22.4479 11.5974C22.2586 11.2004 21.7713 11.0073 21.343 11.1595C20.956 11.297 20.3923 12.358 19.9142 13.8487C19.1623 16.1931 19.1388 18.6732 19.8475 20.9175L20.1195 21.7785L19.8393 22.1937C18.6094 24.0161 19.7284 26.4788 21.956 26.8523C22.4184 26.9299 22.4373 26.951 22.5716 27.5404C22.8464 28.7479 23.6081 30.0611 24.6519 31.1268L25.617 32.1124V32.9101C25.617 33.5932 25.5828 33.7264 25.3792 33.836C25.1096 33.981 23.5374 35.3149 23.314 35.5881C23.2332 35.6867 23.107 35.9784 23.0334 36.2363C22.9097 36.6697 22.745 36.811 20.8489 38.1089C19.5914 38.9695 18.4825 39.8327 17.9822 40.3402L17.1662 41.1677L16.3503 40.8448C15.9016 40.6672 15.1016 40.3776 14.5727 40.2011C13.6601 39.8965 13.6111 39.8627 13.6111 39.5371C13.6111 39.2649 13.7665 39.051 14.3634 38.5009C15.1431 37.7825 15.8529 36.6004 16.0098 35.7592C16.0784 35.3916 16.1201 35.3572 16.4954 35.3572C17.5392 35.3572 18.6523 34.6253 19.0328 33.6888C19.3359 32.9425 19.2961 31.9668 18.9357 31.3184C18.6476 30.8002 18.6423 30.7475 18.7034 29.058C18.7784 26.9806 18.6295 26.1878 17.8964 24.764C16.6329 22.31 13.9917 20.7024 11.2321 20.7074C10.0708 20.7095 9.21764 20.9063 7.783 21.503C7.17396 21.7565 6.4036 22.053 6.07105 22.1621C4.11724 22.8034 2.62419 24.6634 2.45739 26.6641C2.41391 27.1851 2.46648 28.0696 2.60076 29.0741L2.81279 30.6611L2.5004 31.2819C1.58189 33.1073 2.87737 35.3572 4.8468 35.3572H5.29824L5.51598 36.0803C5.78466 36.9725 6.42249 37.9843 7.06474 38.5371C7.48052 38.8949 7.54976 39.0201 7.54929 39.4123L7.54871 39.8698L6.41281 40.2618C3.86686 41.1403 3.29268 41.5535 3.57592 42.3026C3.8059 42.9108 4.29686 42.9944 5.23332 42.5847C5.57788 42.434 6.29741 42.1595 6.83243 41.9745C7.7443 41.6593 7.81237 41.6512 7.92031 41.8453C8.66572 43.1846 10.3662 43.7961 11.7185 43.2111C12.2816 42.9675 13.1546 42.1786 13.2852 41.7953C13.3318 41.6584 13.5203 41.6897 14.3217 41.9669C14.8604 42.1531 15.5425 42.4068 15.8374 42.5304L16.3735 42.7553L16.1384 43.5395C15.9267 44.2454 15.9022 44.6684 15.8936 47.7625L15.8841 51.2009L16.1593 51.4253C16.4845 51.6905 16.9735 51.7157 17.2897 51.4836C17.5019 51.3277 17.52 51.1053 17.5821 47.8793C17.6465 44.5405 17.6572 44.4178 17.952 43.6348C18.3222 42.6514 18.9693 41.6836 19.6052 41.162C20.2005 40.6738 23.6485 38.2875 23.7588 38.2875C23.8035 38.2875 24.2137 38.7872 24.6702 39.3979C25.8796 41.0158 26.1828 41.1156 28.0705 40.5166C28.6764 40.3243 29.1838 40.166 29.198 40.165C29.2124 40.1638 29.2386 42.7155 29.2563 45.8355C29.2871 51.2241 29.2998 51.5204 29.5108 51.7547C29.8005 52.0766 30.4316 52.0828 30.7457 51.7669C30.9724 51.5389 30.9789 51.3762 30.9789 45.8398C30.9789 40.4717 30.9905 40.1508 31.1828 40.2116C32.5009 40.6284 33.4122 40.8661 33.6918 40.8661C34.3365 40.8661 34.7573 40.5415 35.5901 39.4019C36.035 38.793 36.4428 38.2932 36.4963 38.2912C36.5498 38.2891 37.4756 38.8965 38.5536 39.641C40.5937 41.0498 41.4977 41.8782 41.9343 42.7387C42.5569 43.9659 42.5625 44.0058 42.6297 47.7043L42.6934 51.2019L42.9686 51.4258C43.3286 51.7187 43.8566 51.7106 44.158 51.4076C44.3928 51.1714 44.3975 51.0801 44.3502 47.5689C44.3235 45.5907 44.2807 43.8701 44.2552 43.7452C44.2158 43.5527 44.4388 43.423 45.7228 42.8919C46.6749 42.4983 47.2533 42.3148 47.2808 42.3979C47.3927 42.7356 48.1095 43.391 48.6372 43.6381C49.8134 44.1889 51.2489 43.8281 52.0286 42.7856L52.39 42.3022L53.9031 42.9106C55.5113 43.5571 56.061 43.9041 56.6379 44.6365C57.2458 45.4082 57.461 46.1527 57.5412 47.762C57.6215 49.37 57.7076 49.5399 58.4431 49.5399C59.0723 49.5399 59.3037 49.1175 59.3025 47.971C59.3005 45.7695 58.7672 44.2904 57.5248 43.041C56.6936 42.2053 56.3493 42.0076 54.233 41.1516L52.7177 40.5385L52.682 40.124C52.6537 39.7954 52.6995 39.6807 52.9028 39.5713C53.0438 39.4954 53.3746 39.2355 53.6378 38.9937C54.0985 38.5707 54.1551 38.5518 55.1475 38.4917C56.0225 38.4387 56.3063 38.3658 57.0213 38.0105C58.8035 37.1247 60.0092 35.2224 60 33.3107C59.9956 32.3997 59.8229 31.8183 58.9483 29.7711C58.5033 28.7294 58.0631 27.5163 57.9701 27.0752C57.6097 25.3651 56.9805 24.1391 55.8385 22.9219C54.3264 21.31 52.4904 20.4746 50.2522 20.3803C48.6102 20.311 47.5475 20.5331 46.146 21.2386C44.9207 21.8554 43.7945 22.8509 43.0529 23.9726C42.3718 25.003 42.0822 25.6926 41.8124 26.9274C41.6853 27.509 41.2474 28.7335 40.7742 29.8306C39.8228 32.0361 39.6208 32.9342 39.82 34.0719C40.2673 36.6258 42.4222 38.5219 44.877 38.5219C45.5062 38.5219 45.623 38.5616 46.0013 38.9052C46.2333 39.1159 46.5449 39.3739 46.6934 39.4785C46.9082 39.6297 46.9559 39.7569 46.9265 40.1012L46.8896 40.534L45.1994 41.2261C43.6988 41.8405 43.4962 41.8967 43.3927 41.7267C43.0775 41.2091 42.1615 40.1381 41.7079 39.7571C41.428 39.522 40.3156 38.7229 39.236 37.9816C37.7011 36.9276 37.2731 36.5776 37.2727 36.3763C37.272 35.9227 36.8507 35.4023 35.7696 34.5193L34.7141 33.6576L34.7115 32.8262L34.7088 31.9947L35.2962 31.4967C36.3413 30.6105 37.3681 28.8978 37.7378 27.4239C37.8568 26.9494 37.8813 26.9293 38.492 26.8017C39.6999 26.5496 40.6247 25.6333 40.8802 24.4355C41.0325 23.7218 40.9535 23.1848 40.586 22.4344L40.3134 21.8777L40.6659 19.3869C41.0506 16.668 41.0483 15.9404 40.6511 14.7792C39.9972 12.8679 38.4461 11.425 36.5061 10.9231C36.0438 10.8034 35.7612 10.6573 35.6493 10.4798C35.5575 10.3342 35.0855 9.81534 34.6002 9.32657C33.5818 8.30085 32.3422 7.61281 30.8145 7.22554C29.7329 6.95138 27.8245 6.92266 26.7221 7.16412ZM37.3432 13.1895C38.0636 13.7238 38.5203 14.2674 38.832 14.9623C39.2732 15.9454 39.3029 16.4758 39.0293 18.4876C38.6813 21.0474 38.7228 20.907 38.3314 20.8492C38.0215 20.8035 37.9952 20.7559 37.9226 20.111C37.8156 19.1593 37.5542 18.3116 37.1125 17.4823C36.8229 16.939 36.7558 16.6991 36.8169 16.4274C36.9338 15.9076 36.9336 13.7989 36.8164 13.292C36.7606 13.0503 36.754 12.8524 36.8017 12.8524C36.8495 12.8524 37.0931 13.0041 37.3432 13.1895ZM34.5739 17.0428C35.4275 17.8913 35.8718 18.6808 36.0942 19.7444C36.1696 20.1049 36.2242 21.5846 36.2242 23.2713C36.2242 25.8023 36.1938 26.2964 35.9889 27.1022C35.3439 29.6382 33.2609 31.4043 30.5974 31.6739C27.7904 31.9578 25.0185 29.9393 24.2753 27.0699C24.0172 26.0736 24.0249 20.1535 24.2853 19.3851C24.5264 18.6735 25.2667 17.842 26.0106 17.4475C26.6051 17.1321 26.6214 17.1304 29.6428 17.0721L32.678 17.0135L33.1371 16.6325C33.3897 16.4231 33.6372 16.2516 33.6871 16.2516C33.7371 16.2516 34.1361 16.6076 34.5739 17.0428ZM51.5472 22.2916C52.6142 22.5711 53.573 23.1471 54.4675 24.0456C55.4452 25.0277 55.9487 25.9827 56.2713 27.4668C56.411 28.1091 56.8168 29.2323 57.3438 30.4343C58.1482 32.2691 58.1918 32.4134 58.1939 33.2474C58.1967 34.3422 57.8057 35.2326 57.0146 35.9327C56.5654 36.3304 55.4077 36.8754 55.2865 36.7464C55.2653 36.7236 55.3303 36.3214 55.4311 35.8523C55.6084 35.0276 55.6067 34.9889 55.3783 34.6802C55.2129 34.4564 55.0182 34.3502 54.7273 34.3251C54.1867 34.2786 53.876 34.6063 53.7675 35.3371C53.4531 37.4553 51.3036 39.0231 49.2474 38.634C47.87 38.3733 46.8596 37.5858 46.2642 36.3089C45.9656 35.6686 45.956 35.5768 45.9179 33.0159C45.8929 31.3294 45.9275 30.1326 46.0142 29.6895C46.1517 28.9861 46.5745 27.9728 46.7302 27.9728C46.7773 27.9728 47.0685 28.13 47.3773 28.3221C48.5565 29.0556 50.1956 29.3639 52.98 29.3757L53.825 29.3794V30.5385C53.825 31.932 53.983 32.2393 54.6992 32.2393C55.4477 32.2393 55.5735 31.9567 55.5732 30.2747C55.573 27.8053 55.4335 27.6941 52.1961 27.5809C49.77 27.496 49.0241 27.3376 48.0887 26.7084C47.8286 26.5336 47.4787 26.2984 47.3111 26.1859C46.9274 25.9286 46.2668 25.9217 45.9123 26.1715C45.498 26.4633 44.7591 27.6897 44.4793 28.5504C44.258 29.231 44.223 29.6556 44.1792 32.1924C44.1385 34.5485 44.1633 35.2093 44.3172 35.8726C44.4202 36.3171 44.4786 36.7072 44.4467 36.7392C44.346 36.8405 43.3717 36.4138 42.8715 36.0493C41.8813 35.3281 41.3268 33.918 41.5647 32.7268C41.6304 32.3972 42.0245 31.3377 42.4402 30.3724C42.856 29.4069 43.3286 28.0775 43.4904 27.418C43.6523 26.7585 43.9586 25.8883 44.1711 25.4842C44.9239 24.0528 46.581 22.733 48.1797 22.2918C48.9722 22.0732 50.7125 22.073 51.5472 22.2916ZM12.6633 22.6341C14.6224 23.1584 16.1902 24.6587 16.7639 26.5583C16.9501 27.1751 16.993 27.5989 16.9666 28.565L16.9331 29.7896L16.5834 29.8222C16.2749 29.851 16.2114 29.8006 16.0434 29.3944C15.7105 28.589 15.4705 28.5093 13.1503 28.4332C10.7424 28.3542 9.99232 28.1492 8.49496 27.1606C7.51747 26.5153 7.21254 26.4523 6.67193 26.7839C6.23354 27.0527 5.62217 28.1791 5.41376 29.102C5.26164 29.7758 5.25045 29.7896 4.86067 29.7896H4.46296L4.32507 28.8519C4.1409 27.6001 4.14544 26.6045 4.33789 26.062C4.72814 24.9619 5.62625 24.1308 6.83453 23.7521C7.19587 23.6388 7.88499 23.3739 8.36581 23.1632C8.84663 22.9527 9.47606 22.7138 9.76455 22.6326C10.4813 22.4307 11.9058 22.4314 12.6633 22.6341ZM22.3533 23.8049C22.3533 24.478 22.3134 25.0534 22.2647 25.0838C22.0756 25.2012 21.4268 24.8082 21.2535 24.4711C20.9531 23.887 21.0185 23.431 21.4674 22.9796C21.6854 22.7604 21.9739 22.581 22.1085 22.581C22.3415 22.581 22.3533 22.6398 22.3533 23.8049ZM38.5703 22.7646C38.9932 22.9846 39.279 23.6022 39.1824 24.0878C39.1038 24.4828 38.6271 24.9792 38.2349 25.0743C37.975 25.1372 37.9726 25.1258 37.9726 23.8594C37.9726 23.045 38.017 22.581 38.095 22.581C38.1622 22.581 38.3761 22.6637 38.5703 22.7646ZM9.40787 29.624C10.4262 30.0087 11.6532 30.1998 13.1049 30.1998H14.443L14.4059 32.8078C14.3691 35.3872 14.3653 35.4231 14.0447 36.0793C13.4417 37.314 12.3403 38.0549 10.9744 38.1446C9.37838 38.2495 8.11112 37.5209 7.41396 36.0977L7.02534 35.3044L6.98618 32.8124C6.94923 30.4552 7.01439 29.6515 7.30521 28.8824L7.4234 28.5699L8.09154 28.9745C8.45906 29.1971 9.05143 29.4893 9.40787 29.624ZM5.21863 32.5441V33.599H4.8637C4.15407 33.599 3.70332 32.7323 4.06222 32.058C4.18309 31.831 4.76987 31.5034 5.07293 31.4937C5.179 31.4905 5.21863 31.7759 5.21863 32.5441ZM17.1505 31.8245C17.507 32.1395 17.5917 32.5095 17.4085 32.9505C17.2259 33.3898 16.9246 33.599 16.4746 33.599H16.1755V32.5348V31.4705L16.5543 31.5515C16.7626 31.5961 17.0309 31.7189 17.1505 31.8245ZM32.9604 33.488V34.0803L31.5325 34.7602L30.1046 35.4402L28.735 34.7531L27.3654 34.0661V33.5268C27.3654 32.9968 27.3709 32.9889 27.686 33.0698C28.6407 33.3148 29.5819 33.4778 30.0464 33.4789C30.9087 33.4807 32.2973 33.2067 32.9313 32.9094C32.9472 32.9018 32.9604 33.1623 32.9604 33.488ZM27.7147 36.1951L29.2304 36.9159L29.2296 37.631L29.2288 38.3461L27.9333 38.7323C27.2208 38.9448 26.6264 39.103 26.6127 39.0839C26.5988 39.065 26.1771 38.5 25.6754 37.8286L24.7633 36.6077L25.3941 36.0447C25.7411 35.7352 26.0641 35.4801 26.1119 35.4781C26.1598 35.476 26.881 35.7987 27.7147 36.1951ZM34.8532 36.0214C35.2792 36.3692 35.4861 36.6136 35.4233 36.6948C35.3691 36.765 34.9491 37.3374 34.4901 37.9668C33.7702 38.954 33.6189 39.1021 33.3894 39.0442C33.2431 39.0073 32.654 38.8302 32.0803 38.6506L31.0371 38.3241L31.0023 37.6649L30.9674 37.0056L32.4593 36.2461C33.2798 35.8284 34.0036 35.4841 34.0678 35.4811C34.1319 35.478 34.4853 35.7212 34.8532 36.0214ZM10.9447 39.9285H11.8627V40.2859C11.8627 41.0692 11.2929 41.6866 10.5702 41.6866C9.82703 41.6866 9.30122 41.014 9.299 40.0603C9.29842 39.811 9.3363 39.7896 9.66256 39.8552C9.86293 39.8955 10.4399 39.9285 10.9447 39.9285ZM50.911 40.827C50.911 41.9509 49.8722 42.5564 49.0958 41.8848C48.854 41.6757 48.7699 41.4778 48.7256 41.0133L48.6681 40.4123L49.7895 40.4185L50.911 40.4246V40.827ZM1.14712 44.2229C0.599275 44.9232 0.402518 45.9269 0.349949 48.2897C0.301809 50.4563 0.305772 50.5026 0.565356 50.7804C0.903269 51.1421 1.48258 51.1596 1.79112 50.8173C1.9866 50.6005 2.02087 50.3166 2.07728 48.4438C2.13148 46.6473 2.18137 46.2077 2.39783 45.6173C2.53887 45.2328 2.65427 44.7976 2.65427 44.6503C2.65427 43.9413 1.60101 43.6427 1.14712 44.2229ZM21.1241 45.0219L20.838 45.3095V47.9522C20.838 50.4385 20.8517 50.6086 21.0711 50.8292C21.4182 51.1782 22.042 51.1418 22.3448 50.7548C22.5725 50.4637 22.5864 50.2985 22.5864 47.8778V45.3095L22.3002 45.0219C22.1429 44.8637 21.8783 44.7342 21.7122 44.7342C21.5461 44.7342 21.2815 44.8637 21.1241 45.0219ZM38.0466 44.9771L37.7395 45.22V47.9074C37.7395 50.4385 37.753 50.6084 37.9726 50.8292C38.323 51.1815 38.9436 51.1418 39.2523 50.747C39.4907 50.4424 39.4986 50.332 39.4648 47.8062C39.43 45.2095 39.4267 45.1796 39.1544 44.958C38.7978 44.6679 38.4294 44.6743 38.0466 44.9771Z" fill="url(#paint0_linear_331_312)"/>
<circle cx="30.1629" cy="36.8365" r="1.46739" fill="#E31B40"/>
<defs>
<linearGradient id="paint0_linear_331_312" x1="30.1631" y1="7" x2="30.1631" y2="52" gradientUnits="userSpaceOnUse">
<stop stop-color="white"/>
<stop offset="1" stop-color="#C4C4C4"/>
</linearGradient>
</defs>
</svg>
