<svg width="60" height="60" viewBox="0 0 60 60" fill="none" xmlns="http://www.w3.org/2000/svg">
<g clip-path="url(#clip0_331_249)">
<path fill-rule="evenodd" clip-rule="evenodd" d="M6.06972 3.13716C3.65697 3.72709 1.68907 5.78749 1.07465 8.36724C0.555084 10.5487 1.1446 13.1139 2.52907 14.6965L3.0733 15.3187L2.93685 16.202C2.6132 18.2975 2.87429 20.3871 3.659 21.9819C3.8934 22.4583 4.42237 23.1734 4.99604 23.7894C5.7276 24.575 6.00454 24.9763 6.20414 25.5393C6.56056 26.5447 7.1527 27.5606 7.89474 28.4396L8.52036 29.1809V30.3814V31.5819L7.5929 31.7951C5.16263 32.3534 2.8986 34.2487 1.80251 36.6423C0.962512 38.4768 0.972522 38.3747 0.924736 45.5453L0.881598 52.0116H0.226902C-0.309464 52.0116 -0.480824 52.0681 -0.720348 52.3243C-1.09322 52.7229 -1.09322 53.2114 -0.720348 53.61L-0.427915 53.9228H15.0691H30.566V55.6973C30.566 57.4626 30.5677 57.4733 30.88 57.7359C31.2888 58.0798 31.55 58.0692 31.9596 57.6926L32.2939 57.3851L32.3535 46.7455C32.3863 40.8938 32.4409 36.0763 32.4748 36.0401C32.5916 35.9152 36.1882 39.2234 36.5336 39.7735C37.1793 40.8013 37.1689 40.6544 37.2097 49.362L37.2477 57.4789L37.5575 57.7394C37.7279 57.8828 37.938 58 38.0244 58C38.2928 58 38.7707 57.7206 38.8713 57.505C38.9241 57.3918 38.994 54.7145 39.0268 51.5554L39.0864 45.8115L39.447 45.188C39.6704 44.802 40.0297 44.4178 40.3909 44.1789L40.9742 43.7934L48.3719 43.7549C53.5417 43.7281 55.9064 43.7591 56.2239 43.858C56.8438 44.051 57.5968 44.809 57.9321 45.5772C58.21 46.214 58.2101 46.2168 58.2113 51.7943L58.2125 57.3745L58.5051 57.6872C58.8778 58.0859 59.3347 58.0859 59.7074 57.6872L60 57.3745L59.9986 51.7943C59.997 45.7526 59.9689 45.4306 59.3428 44.2882C58.9311 43.537 58.2304 42.7902 57.6298 42.4627L57.1565 42.2045L57.1185 38.5323L57.0804 34.8601L56.6354 33.8979C55.9757 32.4714 55.5326 32.1051 52.5095 30.4877C51.0106 29.6857 49.8099 28.9634 49.702 28.7985C49.5467 28.5616 49.5134 28.1001 49.5134 26.1845V23.8583L49.9664 23.6111C50.5302 23.3036 51.3447 22.4433 51.7195 21.7594C52.3052 20.6906 52.3734 20.0483 52.3734 15.6028C52.3734 10.9586 52.2832 10.1492 51.5956 8.62716C50.5248 6.2565 48.3894 4.51743 46.0515 4.11175C45.0035 3.92993 36.8438 3.93452 36.0237 4.11735C34.2955 4.50278 32.7969 5.76838 32.0333 7.4877C31.6637 8.31997 31.5855 8.64653 31.5415 9.54276C31.5022 10.342 31.5394 10.7487 31.69 11.1703C31.8932 11.7392 32.6002 12.5341 33.1345 12.7944L33.426 12.9364V16.7181C33.426 20.047 33.4538 20.6155 33.6578 21.4687C34.2685 24.0218 35.8456 26.1198 38.0828 27.3552L39.146 27.9423V28.6329V29.3235L35.8391 31.1054C32.1212 33.109 31.645 33.4857 30.9958 34.9381L30.6256 35.7663L30.566 43.8571L30.5065 51.9478L29.434 51.9842L28.3615 52.0203L28.3984 46.1231C28.4224 42.3013 28.3919 40.0668 28.3115 39.7741C28.1486 39.1796 27.4693 38.3439 26.9056 38.0445C26.5435 37.8521 26.0914 37.7924 24.6078 37.7412L22.7607 37.6775L22.6901 36.9757C22.4466 34.5557 20.822 32.4974 18.6197 31.8185L17.9345 31.6073V31.0552C17.9345 30.5223 17.9564 30.4896 18.5601 30.1222C20.4273 28.9858 22.0011 26.6576 22.4941 24.3028C22.5757 23.9125 22.7852 23.4628 23.0299 23.1523C24.1485 21.7332 24.6691 19.7898 24.5659 17.4187C24.3639 12.7796 22.2057 8.98876 18.7257 7.16038C17.3572 6.44138 16.1307 6.12833 14.4373 6.06589L13.0255 6.01378L12.2923 5.20725C11.4704 4.30312 10.7674 3.82239 9.60716 3.37147C8.61999 2.9877 7.09419 2.88666 6.06972 3.13716ZM9.24477 5.24051C9.87421 5.4933 10.9834 6.35461 10.8557 6.4912C10.823 6.52611 10.3739 6.73685 9.85752 6.95945C7.70062 7.88931 5.43028 10.0208 4.30237 12.175L3.71894 13.2892L3.3867 12.7527C1.99091 10.4985 2.74976 7.08635 4.96172 5.66951C6.26194 4.83673 7.84505 4.6781 9.24477 5.24051ZM45.8329 6.01709C47.5692 6.3671 49.1977 7.69832 49.9428 9.37699C50.5505 10.7462 50.6019 11.2899 50.5622 15.9216C50.5279 19.9156 50.5154 20.1162 50.2692 20.6041C49.7664 21.6002 49.0003 22.1677 47.9435 22.3269C47.0971 22.4545 46.7726 22.74 46.7726 23.3576C46.7726 23.7793 47.1403 24.2353 47.4806 24.2353C47.7001 24.2353 47.7138 24.3597 47.7511 26.6881C47.7726 28.0371 47.8352 29.2411 47.89 29.3638C47.9838 29.5735 47.7803 29.5867 44.4616 29.5867H40.9335V28.2391C40.9335 26.9194 40.9262 26.8836 40.5851 26.519C40.3935 26.3141 40.1445 26.1466 40.0316 26.1466C39.9188 26.1466 39.4259 25.9405 38.9364 25.6889C37.2535 24.8234 35.8835 23.0294 35.3893 21.0443C35.1549 20.1024 35.1312 13.0214 35.3625 13.0257C35.6321 13.0308 36.4605 13.4914 36.6846 13.761C37.1268 14.2927 37.2287 14.9155 37.2341 17.1207C37.2384 18.8348 37.2828 19.3929 37.4651 20.0191C37.7478 20.9905 38.2768 21.8802 39.0037 22.6073C40.1887 23.7923 41.3009 24.2353 43.0914 24.2353C44.2042 24.2353 44.2632 24.2213 44.4997 23.8996C44.8197 23.4648 44.8116 23.1834 44.4666 22.7545C44.205 22.4294 44.1035 22.4006 42.9374 22.3211C41.8805 22.249 41.5926 22.1802 41.0662 21.8737C40.3563 21.4607 39.7541 20.799 39.3649 20.0046C39.121 19.5068 39.0902 19.2214 39.0242 16.8454C38.941 13.8473 38.851 13.4921 37.8988 12.4037C37.1519 11.5499 36.4239 11.2335 34.9645 11.1287C33.5075 11.0241 33.3069 10.8732 33.3069 9.88295C33.3069 8.14771 34.4116 6.63072 36.0818 6.07265C36.7071 5.86369 44.8414 5.81731 45.8329 6.01709ZM16.4449 8.24543C17.8674 8.64755 18.8606 9.28143 20.0319 10.5344C20.943 11.5091 21.2052 11.8874 21.6716 12.9004C22.4062 14.4955 22.7025 15.7766 22.7758 17.6735L22.8349 19.2025L22.5364 18.4524C22.0053 17.1184 21.2337 16.5687 19.6624 16.4055C16.6836 16.0958 13.2551 14.977 11.4306 13.7189C10.3273 12.9582 10.1166 13.008 9.0161 14.2902C8.51405 14.8752 7.87353 15.6749 7.59278 16.0676C6.68414 17.3384 5.95925 19.2443 5.69804 21.05L5.59663 21.7508L5.27548 21.1742C4.1664 19.1838 4.44311 15.6423 5.91564 12.9813C7.25578 10.5594 9.81093 8.64806 12.4134 8.12069C13.5341 7.89364 15.4054 7.95162 16.4449 8.24543ZM11.5913 16.001C13.5791 17.0658 15.9606 17.7957 18.7783 18.2038C20.977 18.5224 20.9141 18.4371 20.9118 21.0992C20.9098 23.4953 20.7583 24.3591 20.107 25.6875C19.2926 27.3486 17.8321 28.6276 16.1047 29.1923C15.1204 29.514 13.4371 29.5499 12.4538 29.2701C9.53435 28.4394 7.45061 25.5194 7.45169 22.2604C7.45228 20.6373 7.95814 18.8631 8.79671 17.5437C9.11953 17.0358 10.4083 15.4438 10.4967 15.4438C10.5265 15.4438 11.019 15.6946 11.5913 16.001ZM11.8945 19.3945C11.5093 19.5605 11.3803 19.92 11.3803 20.8283C11.3803 21.5148 11.4236 21.6862 11.6561 21.9197C12.0464 22.3117 12.6085 22.2857 12.9208 21.861C13.1061 21.6092 13.1678 21.341 13.1678 20.7884C13.1678 19.8647 13.1025 19.6848 12.6826 19.4526C12.3016 19.242 12.2565 19.2387 11.8945 19.3945ZM17.6366 19.4134C17.211 19.6622 17.1003 19.9358 17.1003 20.7386C17.1003 21.7228 17.3869 22.1967 17.9819 22.1967C18.6051 22.1967 18.8878 21.7699 18.8878 20.8292C18.8878 19.8629 18.8256 19.6866 18.4025 19.4526C18.0052 19.233 17.95 19.23 17.6366 19.4134ZM12.8699 24.5109C12.2309 24.8818 12.1477 25.5743 12.6843 26.057C13.6631 26.9377 16.9068 26.8957 17.694 25.9923C18.116 25.5081 17.9857 24.8093 17.4267 24.558C17.1313 24.4252 16.9367 24.4378 16.2311 24.6359C15.7677 24.766 15.2755 24.8724 15.1374 24.8724C14.9285 24.8724 14.0584 24.6631 13.287 24.4272C13.1887 24.3972 13.001 24.4349 12.8699 24.5109ZM11.5591 30.9768C12.3246 31.2787 12.5478 31.3058 14.2701 31.3063L16.147 31.3068L16.1458 31.7528C16.1442 32.3707 15.6648 33.4114 15.1809 33.8477C14.6082 34.3641 14.0498 34.5825 13.2901 34.5873C11.6193 34.598 10.4507 33.3319 10.3317 31.3819C10.2773 30.4921 10.2871 30.4436 10.4995 30.5426C10.6235 30.6004 11.1003 30.7959 11.5591 30.9768ZM52.2776 32.4704C55.3017 34.1081 55.3525 34.2116 55.3525 38.7195V41.8185H48.1996C41.4367 41.8185 41.0109 41.8318 40.3919 42.0646C40.0316 42.1999 39.5906 42.4247 39.4117 42.5639L39.0866 42.8172L38.9445 41.6072C38.7938 40.3249 38.382 39.176 37.7608 38.3051C37.5816 38.0539 36.6536 37.1564 35.6986 36.3106C34.7436 35.4647 33.8878 34.6996 33.7966 34.61C33.6595 34.4753 34.1004 34.1948 36.3587 32.9795L39.0864 31.5116L44.7842 31.5048L50.482 31.4979L52.2776 32.4704ZM9.35453 34.26C9.79008 35.0027 10.6736 35.8143 11.3992 36.1385C13.5103 37.0817 16.1624 36.1587 17.2988 34.0855C17.4642 33.7835 17.6884 33.5366 17.7968 33.5367C17.9053 33.5367 18.3158 33.6998 18.709 33.899C19.9006 34.5027 20.7542 35.7436 20.8808 37.0567L20.947 37.7412L14.406 37.744C8.31921 37.7466 7.83159 37.763 7.38364 37.9805C6.73145 38.2974 5.95925 39.2609 5.79349 39.9647C5.62237 40.6913 5.62309 41.7188 5.79504 42.1223C5.97463 42.5439 6.47393 42.7608 6.88243 42.5948C7.31631 42.4184 7.44787 42.0892 7.44787 41.18C7.44787 40.4848 7.48684 40.3556 7.79619 40.0248L8.14452 39.6524H17.0966H26.0486L26.341 39.9652L26.6336 40.2779V45.8149V51.3518L26.2669 51.6817L25.9003 52.0116H17.1449C7.64021 52.0116 7.89522 52.0302 7.59028 51.3143C7.49387 51.0882 7.44787 50.0894 7.44787 48.2232C7.44787 45.5679 7.43834 45.4553 7.18881 45.1712C6.82249 44.7544 6.23024 44.7733 5.90742 45.2121C5.67445 45.5287 5.66039 45.7079 5.66039 48.3664C5.66039 49.9166 5.71032 51.371 5.77121 51.5983L5.88203 52.0116H4.28164H2.68124V45.9798C2.68124 40.39 2.69852 39.8759 2.91659 38.9639C3.50634 36.4984 5.07886 34.688 7.34825 33.8615C8.67993 33.3764 8.85701 33.4116 9.35453 34.26Z" fill="url(#paint0_linear_331_249)"/>
<circle cx="17" cy="46" r="2" fill="#E31B40"/>
</g>
<defs>
<linearGradient id="paint0_linear_331_249" x1="29.5" y1="3" x2="29.5" y2="58" gradientUnits="userSpaceOnUse">
<stop stop-color="white"/>
<stop offset="1" stop-color="#C4C4C4"/>
</linearGradient>
<clipPath id="clip0_331_249">
<rect width="60" height="60" fill="white"/>
</clipPath>
</defs>
</svg>
