<svg width="60" height="60" viewBox="0 0 60 60" fill="none" xmlns="http://www.w3.org/2000/svg">
<path fill-rule="evenodd" clip-rule="evenodd" d="M32.6651 1.19313C32.1525 1.43678 31.5855 2.0362 31.3908 2.54057C31.1918 3.05606 30.6811 5.77764 30.6839 6.30769C30.689 7.27401 31.5406 8.40222 32.4596 8.6602C33.1434 8.85213 34.041 8.81005 34.5136 8.56389C35.3405 8.1329 35.6363 7.68081 36.2511 5.90812C36.764 4.42952 36.8203 4.17269 36.7833 3.48521C36.7282 2.46122 36.3375 1.86777 35.4095 1.39882C34.5419 0.960496 33.3438 0.870721 32.6651 1.19313ZM18.1253 2.52222C17.3891 2.76483 16.6845 3.22586 16.2045 3.77919C15.9644 4.05586 14.2216 6.99264 12.3315 10.3052L8.89522 16.3281L7.39821 16.3679C6.03275 16.4043 5.84471 16.4358 5.25691 16.7276C4.55694 17.0751 4.06077 17.5748 3.6644 18.3314C3.43248 18.7741 3.4073 19.0037 3.36988 21.0147C3.33721 22.7669 3.36511 23.3397 3.50688 23.8326C3.8699 25.0952 4.89581 25.9791 6.28565 26.2265L6.96112 26.3468L6.79985 26.8092C6.56385 27.4854 6.57054 31.6719 6.80859 32.2479C6.90215 32.4743 6.9787 32.6735 6.9787 32.6904C6.9787 32.7075 6.40462 32.7422 5.70284 32.7678C4.60015 32.8079 4.34997 32.8548 3.85992 33.1138C3.1866 33.4697 2.67898 33.9886 2.31278 34.6953C2.0635 35.1762 2.04286 35.3612 2.00839 37.4163C1.96586 39.9463 2.06747 40.5076 2.72548 41.3788C3.01218 41.7585 3.34538 42.0183 3.89043 42.2872L4.65379 42.6639L4.46031 43.2371C4.19346 44.0276 4.17849 47.818 4.43945 48.5113C4.53437 48.7635 4.63667 49.0473 4.66683 49.1419C4.70222 49.2529 4.57509 49.3936 4.30846 49.5385C3.66565 49.8877 2.95888 50.7592 2.73501 51.4787C2.57011 52.0089 2.54425 52.4698 2.57532 54.3242C2.60833 56.2903 2.63929 56.5959 2.85318 57.0633C3.16823 57.7521 3.80968 58.3891 4.52881 58.7277L5.10743 59H19.3404H33.5734L34.1404 58.7318C34.7147 58.4602 35.2528 58.0127 35.5759 57.5379L35.753 57.2774L36.6875 57.6818C37.9429 58.2249 39.2725 58.6037 40.7451 58.8375C42.3485 59.0922 45.3525 59.0111 46.7958 58.6744C53.5019 57.1096 58.4812 51.9161 59.7826 45.129C60.0922 43.5141 60.0672 40.3315 59.7325 38.744C59.1177 35.8282 57.6978 32.925 55.9158 30.9403C55.3661 30.3281 55.216 30.2237 54.885 30.2237C54.406 30.2237 54.0439 30.5624 54.0439 31.0101C54.0439 31.2471 54.2607 31.6017 54.8262 32.2897C58.6129 36.8968 59.4058 43.2252 56.8732 48.6259C54.7924 53.0629 50.517 56.3265 45.765 57.105C44.3863 57.3308 42.1537 57.3308 40.7749 57.105C34.2861 56.0419 29.1279 50.6047 28.3037 43.9591C27.3541 36.3026 32.3572 29.0134 39.7747 27.2468C43.6123 26.3326 47.7033 26.9768 51.046 29.0214C51.6116 29.3674 52.1881 29.6504 52.3271 29.6504C52.6472 29.6504 53.1366 29.1637 53.1366 28.8456C53.1366 28.4386 52.9492 28.2128 52.2058 27.7238C50.7388 26.7587 48.7151 25.9174 46.8991 25.5178C44.6767 25.0287 42.9397 24.9911 40.4063 25.377C39.2048 25.56 39.1835 25.5593 38.932 25.3269C38.5036 24.9309 37.9351 24.6981 37.2408 24.6345C36.8767 24.601 36.5796 24.5422 36.5805 24.5037C36.5814 24.4651 36.6558 24.2272 36.7456 23.975C36.9814 23.3133 36.9841 19.4801 36.7494 18.6811C36.5344 17.949 35.8242 17.1236 35.0617 16.7196C34.4978 16.4208 34.4138 16.4103 32.2125 16.3686L29.9443 16.3256L26.4853 10.2446C22.7531 3.68345 22.5171 3.34235 21.3021 2.75348C20.7626 2.49195 20.4615 2.42843 19.6239 2.39977C18.9752 2.37753 18.429 2.42224 18.1253 2.52222ZM34.451 2.82663C34.909 2.95528 35.1044 3.20889 35.1044 3.67462C35.1044 4.07924 34.233 6.60385 34.0057 6.85781C33.5592 7.35656 32.3826 6.92901 32.3826 6.26814C32.3826 5.65198 32.9527 3.12221 33.1383 2.91492C33.3483 2.68045 33.8178 2.64892 34.451 2.82663ZM20.5312 4.30007C20.7807 4.41714 21.1451 4.68681 21.341 4.89949C21.7515 5.34504 28.9425 17.8962 29.1827 18.5862C29.5811 19.7309 28.9651 21.1412 27.7895 21.7758C27.3996 21.9862 27.1047 22.0264 25.6914 22.0617C24.2127 22.0986 24.0212 22.127 23.7918 22.3423L23.5366 22.5818V29.5388V36.4958L23.278 36.8838C22.8389 37.5426 22.7503 37.5581 19.4198 37.56C16.1562 37.5618 15.8904 37.5203 15.5729 36.9586C15.4611 36.7607 15.4147 35.0748 15.3711 29.6116L15.3144 22.5214L15.0466 22.3023C14.8155 22.1131 14.5882 22.0832 13.3825 22.0832C12.6144 22.0832 11.7302 22.0234 11.4176 21.9505C10.93 21.8368 10.8081 21.8451 10.5602 22.0093C10.2094 22.2416 10.0805 22.6884 10.2534 23.0722C10.4494 23.5068 11.0847 23.71 12.4568 23.7766L13.6818 23.836L13.6476 24.1921L13.6132 24.5483H9.92737C5.78154 24.5483 5.76782 24.5457 5.28821 23.6831C5.07352 23.2968 5.05073 23.0722 5.05073 21.3396C5.05073 19.2019 5.13896 18.8408 5.77349 18.3832C6.05316 18.1815 6.31979 18.1193 7.03541 18.0882L7.94269 18.0489V19.2512C7.94269 20.6421 8.08456 20.9366 8.75414 20.9366C9.39116 20.9366 9.58714 20.6254 9.58714 19.6144C9.58714 19.1394 9.65609 18.5848 9.74047 18.3819C9.98498 17.7936 17.0591 5.44273 17.4028 5.00406C18.0799 4.1399 19.5058 3.81909 20.5312 4.30007ZM42.3359 6.2538C42.1652 6.3093 41.8589 6.45881 41.655 6.58619C41.2361 6.84795 39.2429 9.15425 38.9409 9.72673C38.6572 10.2643 38.6713 11.3325 38.9704 11.957C39.4968 13.0564 40.8272 13.7463 41.9131 13.483C42.5687 13.324 42.9484 13.0588 44.414 11.7365C45.8557 10.4358 46.2022 9.66561 45.8757 8.48672C45.7012 7.85692 44.8079 6.81527 44.1521 6.47704C43.6396 6.21276 42.7854 6.10773 42.3359 6.2538ZM43.7184 8.2761C44.5904 9.0725 44.5034 9.39113 43.0725 10.6431C41.6806 11.8609 41.5383 11.9414 41.1003 11.758C40.6727 11.5789 40.4347 11.233 40.4347 10.7906C40.4347 10.5166 40.6483 10.1915 41.427 9.27991C42.7809 7.69514 42.9846 7.60582 43.7184 8.2761ZM46.2859 16.0038C45.4184 16.3107 44.5763 16.661 44.4146 16.7822C43.2125 17.6831 43.0378 19.5313 44.0425 20.7181C44.536 21.3009 45.1895 21.6187 45.9015 21.622C46.195 21.6234 47.1309 21.4886 47.9815 21.3224C49.8274 20.9617 50.4037 20.6457 50.8596 19.7437C51.5461 18.3859 50.8978 16.3152 49.5852 15.6728C48.8023 15.2896 48.1075 15.3593 46.2859 16.0038ZM48.9456 17.2704C49.2652 17.4433 49.5549 18.5275 49.3833 18.9082C49.2201 19.2704 48.9669 19.3716 47.4787 19.6691C45.8944 19.9859 45.611 19.9772 45.3196 19.6026C45.0511 19.2576 45.0125 18.6723 45.2376 18.361C45.4075 18.1262 47.9061 17.184 48.4093 17.165C48.5848 17.1584 48.8261 17.2058 48.9456 17.2704ZM34.5012 18.365C35.1302 18.8321 35.2175 19.1924 35.2176 21.3206C35.2178 23.5193 35.1299 23.8548 34.4403 24.2885C34.0321 24.5451 33.9733 24.5487 29.6324 24.582L25.2377 24.6157V24.2093V23.803H26.1212C27.6941 23.803 28.8065 23.3763 29.7509 22.4107C30.6789 21.4621 31.1685 19.9393 30.9456 18.6958L30.8306 18.0543L32.506 18.0909C33.9882 18.1233 34.2182 18.1549 34.5012 18.365ZM13.6699 29.5358V32.7461H11.6228C9.42042 32.7461 9.22229 32.7038 8.67985 32.1175C8.4012 31.8163 8.39576 31.7742 8.36117 29.6491C8.32193 27.234 8.38215 26.9642 9.05399 26.5502C9.37993 26.3492 9.63454 26.3262 11.5435 26.3259L13.6699 26.3254V29.5358ZM35.906 26.8437C35.3267 27.1287 34.3871 27.6833 33.8178 28.0762C32.5665 28.9398 30.6067 30.8345 29.8309 31.9308L29.2638 32.732L27.2508 32.739L25.2377 32.7461V29.5358V26.3254H31.0984H36.9592L35.906 26.8437ZM41.4554 30.473C41.05 30.5313 40.2737 30.7297 39.7303 30.9137C35.6597 32.2921 32.7577 35.5608 31.9061 39.7265C31.7206 40.6338 31.6903 41.1243 31.7352 42.4919C31.802 44.5271 32.0336 45.4818 32.8894 47.2501C34.4595 50.4944 37.4088 52.8213 40.8778 53.5525C43.9031 54.1902 47.0411 53.5956 49.5748 51.9046C51.9489 50.3201 53.6226 48.0179 54.459 45.1863C54.7371 44.2448 54.7645 43.9785 54.7725 42.1479C54.7829 39.7339 54.6036 38.8991 53.6521 36.9311C52.5511 34.6539 50.8189 32.8447 48.6405 31.697C46.4301 30.5325 43.9608 30.1118 41.4554 30.473ZM45.8217 32.4032C49.0425 33.2763 51.6467 35.7937 52.6999 39.0522C53.1471 40.4356 53.2663 42.4579 52.9883 43.942C52.2824 47.7094 49.4159 50.7881 45.674 51.7976C44.3793 52.1469 42.1867 52.1465 40.8959 51.7965C38.9329 51.2643 37.4524 50.3728 36.0463 48.8764C35.0411 47.8066 34.3377 46.6124 33.8535 45.1541C33.5324 44.1869 33.4764 43.8416 33.4292 42.5399C33.3882 41.4037 33.4218 40.806 33.5682 40.0748C34.342 36.2074 37.3633 33.1301 41.2286 32.2725C42.4965 31.9911 44.5134 32.0486 45.8217 32.4032ZM13.6699 35.7047C13.6699 36.8074 13.7021 37.0087 13.9634 37.5389C14.1249 37.8664 14.4625 38.3123 14.7138 38.5297C15.5302 39.2361 15.8204 39.2816 19.5024 39.2804C22.7192 39.2793 22.8133 39.2728 23.3689 39.0112C24.6623 38.4022 25.148 37.5314 25.2166 35.6985L25.2628 34.466H26.7247C27.5286 34.466 28.1864 34.4864 28.1864 34.5113C28.1864 34.5361 27.9791 35.079 27.7256 35.7177C27.2098 37.0174 26.7721 38.6475 26.6607 39.6828C26.62 40.0612 26.5629 40.4868 26.5338 40.6287L26.4809 40.8867H15.5997H4.71844L4.33148 40.5433C3.71861 39.9993 3.67087 39.7672 3.71067 37.5276C3.74311 35.7041 3.76874 35.4833 3.98138 35.1906C4.50228 34.4735 4.55569 34.4663 9.33196 34.4662L13.6699 34.466V35.7047ZM26.5367 43.4951C26.6879 45.2161 27.1876 47.2106 27.9012 48.9413C27.9795 49.1315 27.4464 49.1419 17.623 49.1417C7.98317 49.1416 7.23512 49.1276 6.87334 48.941C6.07947 48.5318 6.01891 48.3351 5.97922 46.0381C5.94599 44.1136 5.95914 43.9542 6.18619 43.5458C6.45305 43.0657 6.7453 42.8396 7.26223 42.7132C7.44935 42.6674 11.8451 42.6248 17.0306 42.6182L26.4586 42.6065L26.5367 43.4951ZM29.5473 51.8114C30.2928 52.937 32.1003 54.8163 33.3182 55.7321C33.8016 56.0957 34.1971 56.433 34.1971 56.4819C34.1971 56.5308 34.016 56.7315 33.7948 56.9279L33.3924 57.2851L19.2857 57.2552L5.17899 57.2251L4.83956 56.8964C4.28408 56.3583 4.23871 56.118 4.27772 53.9234C4.31776 51.6735 4.38127 51.4703 5.17219 51.0626C5.5351 50.8755 6.34088 50.8623 17.2423 50.8658L28.9236 50.8695L29.5473 51.8114Z" fill="url(#paint0_linear_331_266)"/>
<circle cx="43.2109" cy="42.2099" r="1.52632" fill="#E31B40"/>
<defs>
<linearGradient id="paint0_linear_331_266" x1="31" y1="1" x2="31" y2="59" gradientUnits="userSpaceOnUse">
<stop stop-color="white"/>
<stop offset="1" stop-color="#C4C4C4"/>
</linearGradient>
</defs>
</svg>
