<svg width="55" height="55" viewBox="0 0 55 55" fill="none" xmlns="http://www.w3.org/2000/svg">
<path fill-rule="evenodd" clip-rule="evenodd" d="M25.4916 2.06606C20.4891 2.58313 15.7196 4.53096 11.7123 7.69345C10.6714 8.51495 8.34758 10.864 7.52041 11.9309C5.92323 13.9909 4.38025 16.7496 3.51891 19.0852C3.03709 20.3916 2.42917 22.8148 2.19294 24.3708C1.93718 26.0556 1.93535 29.7636 2.18948 31.486C3.04604 37.2918 5.50253 42.1945 9.62758 46.3307C11.7919 48.5009 13.9488 50.0465 16.6444 51.3588C19.5304 52.7639 22.7956 53.6778 25.6002 53.8653C26.5183 53.9267 26.5234 53.9257 26.7443 53.6451C27.02 53.2948 27.0276 52.9437 26.7653 52.6816C26.53 52.4464 26.4402 52.4252 25.034 52.274C18.7301 51.5957 12.4091 47.9608 8.50408 42.7686C4.2814 37.1539 2.63835 30.3175 3.88694 23.5576C5.5073 14.7853 11.7788 7.5854 20.2545 4.76667C25.6704 2.96562 31.2494 3.07062 36.6159 5.07476C41.2669 6.81167 45.5867 10.2585 48.3708 14.4541C50.4909 17.6489 51.9052 21.4669 52.2891 25.0315C52.4404 26.437 52.4616 26.5268 52.6969 26.762C52.9592 27.0241 53.3104 27.0165 53.6609 26.741C53.9416 26.5202 53.9426 26.5151 53.8812 25.5975C53.8032 24.4324 53.5906 23.1925 53.1913 21.5756C52.0822 17.0832 49.442 12.5478 46.0503 9.30788C41.9572 5.39799 37.054 2.99926 31.5423 2.2106C30.1592 2.0127 26.7872 1.93209 25.4916 2.06606ZM25.6442 6.03399C22.9256 6.33852 20.4029 7.09598 17.9761 8.33646C10.5791 12.1177 5.9158 19.7127 5.9158 27.9792C5.9158 33.9302 8.3071 39.5744 12.5944 43.7429C13.7885 44.904 14.3942 45.3971 15.7291 46.2955C19.6194 48.9135 24.0633 50.1795 28.7457 50.0035C30.5976 49.9339 31.7966 49.7659 33.4745 49.3408C36.3025 48.6243 39.2344 47.1791 41.5496 45.3605L42.22 44.8337V46.3714V47.9092L41.2794 48.5222C38.3216 50.45 34.3046 51.9074 30.9322 52.2765C29.5049 52.4326 29.433 52.4495 29.2009 52.6816C28.9386 52.9437 28.9462 53.2948 29.2219 53.6451C29.4428 53.9257 29.4479 53.9267 30.3659 53.8653C33.8798 53.6303 38.0772 52.2558 41.3811 50.2581L42.22 49.7508L42.2204 51.342C42.2209 53.1224 42.304 53.4001 42.9564 53.7976C43.2657 53.9862 43.4732 53.9997 46.069 54C49.1635 54.0004 49.3584 53.9655 49.7437 53.3424C49.9424 53.021 49.9487 52.8473 49.9487 47.661V42.3112H51.4875C53.239 42.3112 53.5422 42.212 53.8646 41.5331C54.1512 40.9291 54.0282 40.5491 53.0535 39.0271L52.1691 37.6465L52.5814 36.4467C53.2935 34.3743 53.9147 31.3309 53.9147 29.9143C53.9147 29.4981 53.871 29.3826 53.6467 29.2064C53.3095 28.9412 52.9559 28.9375 52.6969 29.1964C52.4623 29.4309 52.4568 29.455 52.2479 31.181C52.0898 32.4879 51.6601 34.4326 51.2968 35.4856L51.1092 36.0293L50.3206 34.7949C49.8868 34.116 49.5077 33.4974 49.4781 33.4203C49.4486 33.3432 49.5193 32.8079 49.6354 32.2306C50.7774 26.5503 49.5724 20.5724 46.3105 15.7363C43.203 11.129 38.6621 7.92916 33.3115 6.57626C31.0156 5.99567 27.9325 5.77764 25.6442 6.03399ZM31.2881 7.69944C35.486 8.44755 39.0834 10.2326 42.0593 13.0444C45.3642 16.1669 47.5269 20.233 48.2728 24.7266C48.5059 26.1307 48.5792 28.6403 48.4276 30.0237C48.3578 30.6602 48.2677 31.241 48.2273 31.3143C48.1786 31.4028 47.9805 31.1752 47.638 30.6373C47.3543 30.1917 46.9935 29.743 46.8363 29.6401C46.4733 29.4025 45.7202 29.4047 45.3543 29.6444C45.0628 29.8353 38.4324 40.0281 38.2389 40.5829C38.0866 41.0196 38.2563 41.568 38.6649 41.9597L38.9787 42.2604L40.5994 42.2928L42.22 42.3252V42.5701C42.22 42.7539 41.996 43.0013 41.321 43.5628C38.2862 46.0875 35.2273 47.532 31.4406 48.2287C29.8681 48.518 26.3218 48.543 24.7798 48.2755C20.9809 47.6168 17.6387 46.0867 14.8139 43.7132C10.969 40.4824 8.55127 36.2366 7.67783 31.181C7.43214 29.7591 7.43214 26.1993 7.67783 24.7774C8.409 20.5455 10.2027 16.9112 13.0413 13.9096C16.4059 10.3518 20.7976 8.154 25.7459 7.55186C26.856 7.41677 30.2015 7.50581 31.2881 7.69944ZM32.5272 14.7609C31.7276 15.0179 31.6206 15.1862 29.4946 19.534C28.3852 21.8029 27.2049 24.2082 26.8718 24.879L26.2661 26.0988L26.2602 22.9314C26.255 20.1251 26.2325 19.6939 26.0627 19.1488C25.5614 17.5385 24.4628 16.5431 22.7214 16.1209C21.8892 15.9191 20.1449 15.8979 19.2884 16.0791C17.3592 16.4873 16.015 17.828 15.6712 19.687C15.6021 20.0606 15.5749 21.4362 15.5978 23.3933C15.6329 26.3799 15.6441 26.5299 15.8748 27.1152C16.1868 27.907 16.5898 28.4891 17.1356 28.9362C18.9064 30.3866 22.4311 30.4885 24.4253 29.1471C24.7041 28.9596 24.9323 28.8216 24.9323 28.8405C24.9323 28.8596 23.9262 30.9416 22.6965 33.4674C21.4668 35.9932 20.407 38.2389 20.3414 38.4577C20.0753 39.3455 20.6542 40.5101 21.6128 41.0157C22.4786 41.4723 23.856 41.2579 24.4908 40.5677C24.6115 40.4364 25.8242 38.0449 27.1856 35.2533L29.661 30.1775L29.7119 33.3728L29.7627 36.5682L30.0876 37.2537C30.532 38.1916 30.8507 38.5808 31.564 39.0569C32.3898 39.6081 33.2931 39.8722 34.5949 39.9431C35.8345 40.0106 37.047 39.8123 37.9204 39.3994C39.0912 38.8458 40.0014 37.6623 40.2775 36.3346C40.4567 35.4734 40.4225 30.1139 40.2329 29.3094C39.9156 27.9642 39.1418 26.9965 37.9154 26.4114C36.9175 25.9354 36.1731 25.8104 34.6735 25.8671C33.3236 25.9181 32.4499 26.1395 31.7203 26.6153C31.5106 26.752 31.3389 26.8381 31.3389 26.8065C31.3389 26.775 32.3287 24.7275 33.5384 22.2565C35.87 17.4944 35.9877 17.1765 35.7204 16.367C35.5597 15.8805 34.9592 15.2072 34.4581 14.9516C33.9936 14.7148 32.9819 14.6149 32.5272 14.7609ZM33.8531 16.3889C34.3651 16.7009 34.3738 16.9809 33.9025 17.9974C32.5101 21.0015 23.373 39.5386 23.2331 39.643C22.9237 39.874 22.4016 39.7972 22.0771 39.473C21.9136 39.3095 21.7798 39.0992 21.7798 39.0056C21.7798 38.757 32.6461 16.4657 32.8405 16.3154C33.079 16.1311 33.4776 16.16 33.8531 16.3889ZM21.8485 17.5187C22.8421 17.6568 23.6021 18.0097 24.0618 18.5466C24.7114 19.3052 24.7432 19.5343 24.7088 23.2185C24.6793 26.3759 24.6693 26.5217 24.4553 26.9216C23.9751 27.8184 23.1063 28.3263 21.7394 28.5091C19.4554 28.8145 17.7271 28.0135 17.2572 26.4316C17.0343 25.6815 17.0314 20.3252 17.2535 19.5777C17.4885 18.7868 17.91 18.2866 18.6466 17.9249C19.5868 17.463 20.5599 17.3395 21.8485 17.5187ZM19.7631 18.846C19.5208 18.9658 19.2137 19.2288 19.0806 19.4303C18.6748 20.045 18.6063 20.6662 18.6454 23.3828C18.6792 25.7424 18.6952 25.9213 18.9063 26.3189C19.2934 27.0475 19.929 27.382 20.9268 27.382C21.9534 27.382 22.6474 26.9887 23.0113 26.2004C23.1794 25.8363 23.1991 25.5016 23.1991 22.9986C23.1991 20.4956 23.1794 20.1609 23.0113 19.7968C22.6396 18.9917 21.9802 18.6278 20.8933 18.6279C20.3931 18.6279 20.0826 18.6878 19.7631 18.846ZM21.5561 20.2745C21.7298 20.4481 21.7298 25.5491 21.5561 25.7227C21.4115 25.8672 20.5743 25.883 20.3561 25.7452C20.2287 25.6648 20.1986 25.2371 20.1731 23.1449C20.1371 20.1942 20.1479 20.1525 20.9483 20.1525C21.2154 20.1525 21.489 20.2074 21.5561 20.2745ZM36.7942 27.5838C37.3568 27.757 37.5922 27.8992 38.0142 28.3207C38.822 29.1277 38.8642 29.3558 38.8642 32.9158C38.8642 36.3998 38.815 36.6727 38.0475 37.4431C37.3226 38.1707 36.6667 38.3817 35.1016 38.3906C33.5234 38.3996 32.8804 38.2196 32.1513 37.5643C31.2841 36.785 31.2371 36.5466 31.2379 32.9306C31.2382 31.2346 31.2831 29.6987 31.3382 29.5003C31.6052 28.54 32.4005 27.7958 33.4673 27.5083C34.254 27.2964 35.9877 27.3357 36.7942 27.5838ZM34.0894 28.614C33.5657 28.7899 33.0191 29.3892 32.8805 29.9393C32.7288 30.5413 32.7218 35.2988 32.8716 35.8385C33.4042 37.7553 36.558 37.7982 37.1896 35.8974C37.3245 35.4915 37.3458 34.9639 37.3195 32.6865L37.288 29.9613L37.0183 29.5028C36.6395 28.8587 36.0799 28.5647 35.1602 28.5262C34.7645 28.5096 34.2825 28.5491 34.0894 28.614ZM35.6274 30.1803C35.7981 30.3346 35.8134 30.5559 35.8134 32.8545C35.8134 34.7023 35.78 35.4062 35.686 35.5347C35.4951 35.7955 34.8556 35.868 34.5442 35.6641L34.288 35.4963V32.9139C34.288 30.7019 34.3109 30.3087 34.4478 30.1718C34.6616 29.9581 35.3876 29.9633 35.6274 30.1803ZM49.1957 35.8567C50.8535 38.4283 52.2324 40.5896 52.2596 40.6595C52.2981 40.7578 51.9516 40.7865 50.727 40.7865C49.0345 40.7865 48.7211 40.8542 48.5362 41.2599C48.4579 41.4317 48.4233 43.189 48.4233 46.9917V52.4757H46.0844H43.7454V46.8965C43.7454 41.557 43.7371 41.3069 43.5512 41.0773C43.3629 40.8446 43.3047 40.8364 41.6128 40.8051C40.6536 40.7874 39.8829 40.7376 39.9003 40.6944C40.0148 40.4101 46.0483 31.1417 46.1075 31.1592C46.1482 31.1712 47.538 33.2851 49.1957 35.8567Z" fill="url(#paint0_linear_331_102)" stroke="url(#paint1_linear_331_102)" stroke-width="0.8"/>
<defs>
<linearGradient id="paint0_linear_331_102" x1="28" y1="2" x2="28" y2="54" gradientUnits="userSpaceOnUse">
<stop stop-color="#E31B40"/>
<stop offset="1" stop-color="#B53232"/>
</linearGradient>
<linearGradient id="paint1_linear_331_102" x1="28" y1="2" x2="28" y2="54" gradientUnits="userSpaceOnUse">
<stop stop-color="#E31B40"/>
<stop offset="1" stop-color="#B53232"/>
</linearGradient>
</defs>
</svg>
