<svg width="55" height="55" viewBox="0 0 55 55" fill="none" xmlns="http://www.w3.org/2000/svg">
<path fill-rule="evenodd" clip-rule="evenodd" d="M22.3851 2.21152C21.8852 2.32098 20.9415 2.67759 20.2878 3.00412C19.33 3.48258 18.8682 3.83576 17.9073 4.82476C16.1264 6.65822 15.3976 8.35031 15.1846 11.1473L15.0895 12.3944L12.4805 12.3949C10.1238 12.3954 9.8275 12.4229 9.41588 12.6787C8.84501 13.0335 8.43381 13.7106 8.33636 14.4563C8.29512 14.7724 7.72453 22.6634 7.06851 31.9918C5.92775 48.2133 5.88567 48.9791 6.1035 49.5607C6.23604 49.9147 6.54056 50.3316 6.83208 50.5584L7.33304 50.9479L24.2617 50.9901C35.8744 51.019 41.3509 50.985 41.7017 50.8815C42.277 50.7118 43.024 49.9293 43.1717 49.3419C43.2985 48.8367 42.6987 40.245 42.5116 39.8887C42.3065 39.498 41.6024 39.5275 41.3456 39.9377C41.1698 40.2183 41.1831 40.7897 41.4522 44.5147C41.6761 47.6145 41.7191 48.8539 41.6106 49.0755L41.4617 49.3801L24.5803 49.4163L7.69894 49.4525L7.5478 49.1145C7.43357 48.8588 7.68985 44.6335 8.60062 31.7612C9.26278 22.4029 9.80387 14.666 9.80303 14.5679C9.80234 14.4698 9.92747 14.2615 10.0813 14.1047C10.3389 13.842 10.5473 13.8196 12.7378 13.8196H15.1146L15.1167 17.0621C15.119 20.629 15.1848 20.9836 15.8604 21.0631C16.6377 21.1548 16.6526 21.0838 16.6526 17.2942V13.8196H24.3425H32.0324V17.1372C32.0324 20.8005 32.0921 21.0885 32.8513 21.0885C33.5542 21.0885 33.5704 21.0026 33.5704 17.283V13.8196H36.1415C38.3824 13.8196 38.7514 13.8517 39.015 14.0692C39.3065 14.3098 39.3425 14.6771 40.0218 24.2955C40.5454 31.7103 40.7778 34.3546 40.9267 34.5929C41.1713 34.9849 41.6903 35.0103 42.0136 34.6463C42.2373 34.3943 42.2102 33.8022 41.5413 24.3487C41.1509 18.832 40.7695 14.1215 40.6937 13.8806C40.618 13.6398 40.3336 13.2229 40.0618 12.9542L39.5677 12.4656L36.604 12.3944L33.6403 12.3231L33.5589 10.9691C33.4033 8.37938 32.61 6.56373 30.8475 4.76347C29.9607 3.85785 29.4763 3.49412 28.537 3.02934C26.526 2.03393 24.4541 1.75857 22.3851 2.21152ZM26.0484 3.71319C27.3314 3.98242 28.7916 4.80951 29.7953 5.83556C31.2984 7.372 32.0324 9.1687 32.0324 11.3116V12.3968L24.3775 12.36L16.7225 12.3231L16.7509 11.081C16.8617 6.2476 21.3137 2.71949 26.0484 3.71319ZM12.8414 17.6322C11.8506 18.6869 11.5535 20.6109 12.1624 22.0291C13.3647 24.8294 17.0403 25.425 19.014 23.1392C20.2923 21.6589 20.3557 19.2512 19.1552 17.7668C18.2102 16.5981 17.0719 17.5031 17.968 18.7107C19.734 21.0908 16.9346 24.2593 14.527 22.6053C13.225 21.7109 12.9513 20.1514 13.8571 18.7888C14.0845 18.4466 14.2718 18.0353 14.2732 17.8745C14.2794 17.1589 13.4223 17.0138 12.8414 17.6322ZM29.767 17.6322C29.0591 18.4023 28.7614 19.2146 28.7617 20.3759C28.762 21.2506 28.8282 21.5744 29.1267 22.1575C30.5264 24.8918 33.9873 25.3911 35.9317 23.1392C37.2101 21.6589 37.2734 19.2512 36.0729 17.7668C35.1279 16.5981 33.9897 17.5031 34.8858 18.7107C36.6518 21.0908 33.8524 24.2593 31.4448 22.6053C30.1428 21.7109 29.869 20.1514 30.7749 18.7888C31.0022 18.4466 31.1896 18.0353 31.191 17.8745C31.1971 17.1589 30.3367 17.0124 29.767 17.6322ZM43.1349 23.4402C42.9232 23.7694 42.9231 23.8233 43.1335 24.1506C43.3989 24.5635 43.6013 24.6188 45.108 24.6902C46.5208 24.7572 47.5344 25.2041 48.5978 26.2295C50.0051 27.5862 50.5772 29.0521 50.4481 30.9706C50.3139 32.968 49.0863 34.8981 47.3888 35.7809C46.068 36.4679 45.8478 36.4814 36.029 36.4814H26.8017L28.788 34.4394C29.8804 33.3162 30.7741 32.2859 30.7741 32.1496C30.7741 31.6821 30.4958 31.3505 30.1036 31.3505C29.7951 31.3505 29.227 31.8587 27.1162 34.0228C25.6827 35.4927 24.4689 36.8363 24.4189 37.0088C24.3675 37.1864 24.4175 37.4955 24.5342 37.7214C24.873 38.3776 29.7057 43.1802 30.0272 43.1802C30.376 43.1802 30.7741 42.7555 30.7741 42.3832C30.7741 42.2184 29.9849 41.3045 28.8147 40.114L26.8551 38.1205L36.3997 38.0437C45.1381 37.9734 46.009 37.945 46.7131 37.7072C48.0488 37.2559 48.8503 36.7552 49.8204 35.7664C52.736 32.7943 52.7252 28.1524 49.796 25.2218C48.3722 23.7972 46.6117 23.0839 44.5198 23.0839C43.4411 23.0839 43.3487 23.1077 43.1349 23.4402Z" fill="url(#paint0_linear_331_93)" stroke="url(#paint1_linear_331_93)"/>
<defs>
<linearGradient id="paint0_linear_331_93" x1="29" y1="2" x2="29" y2="51" gradientUnits="userSpaceOnUse">
<stop stop-color="#E31B40"/>
<stop offset="1" stop-color="#B53232"/>
</linearGradient>
<linearGradient id="paint1_linear_331_93" x1="29" y1="2" x2="29" y2="51" gradientUnits="userSpaceOnUse">
<stop stop-color="#E31B40"/>
<stop offset="1" stop-color="#B53232"/>
</linearGradient>
</defs>
</svg>
