<svg width="55" height="55" viewBox="0 0 55 55" fill="none" xmlns="http://www.w3.org/2000/svg">
<path fill-rule="evenodd" clip-rule="evenodd" d="M20.6861 8.90988C6.99583 12.0274 4.86141 12.0275 4.55786 12.5782C4.37268 13.0049 4.55789 13.3071 4.55789 26.2839C4.55789 36.7042 4.58765 40.0457 4.68354 40.3731C4.85126 40.9458 5.70729 41.8094 6.27491 41.9786C6.59039 42.0727 8.49383 42.1054 13.6422 42.1054H20.5843L20.8379 41.8495C21.1735 41.5109 21.1749 41.1664 20.8379 40.7826L20.5843 40.6776H13.6422L6.71853 40.4373L6.46494 40.1814L6.02409 39.9255V26.8365V20.292V13.7475H24.1446H42.0781L42.5217 13.9581L42.6792 14.286L42.5854 18.5908V22.9221H37.4564C33.7315 22.9221 32.211 22.9568 31.9021 23.0489C31.3345 23.2181 30.4785 24.0818 30.3108 24.6545C30.1407 25.2352 30.1407 28.9496 30.3108 29.5303C30.4785 30.103 31.3345 30.9667 31.9021 31.1359C32.2136 31.2287 33.8546 31.2627 38.0294 31.2627H43.7314L43.985 31.0067L44.2387 30.7509V22.4958C44.2387 16.3193 44.2071 14.1328 44.1131 13.8117C43.9453 13.239 43.0893 12.5002 42.5217 12.331C42.279 12.2587 41.5284 12.331 40.7243 12.331H39.2581L39.2786 9.61538C39.2786 7.98553 39.236 7.00614 39.153 6.72225C38.9852 6.14957 38.1292 5.2859 37.5616 5.11669C37.3276 5.04694 36.9556 4.99461 36.7349 5.00044C36.5142 5.00618 29.3226 6.94328 20.6861 8.90988ZM37.474 6.72225L37.7918 6.95494V9.61538V12.331H25.3025H12.3776L24.14 9.52134C30.2781 8.12253 35.5792 6.91023 35.9202 6.82724C36.8282 6.60642 37.1843 6.42981 37.474 6.72225ZM42.5854 27.0924V29.5946H37.4656H32.3457L32.0922 29.3386C31.8405 29.0849 31.8385 29.0666 31.8385 27.0924C31.8385 25.1182 31.8405 25.0999 32.0922 24.8462L32.3457 24.5902H37.4656H42.5854V27.0924ZM25.7525 34.8736C25.1573 35.1728 24.6727 35.7468 24.4955 36.362C24.4241 36.6104 24.3983 39.1749 24.419 43.9903L24.596 51.2444L24.7627 51.7547C24.9565 52.0709 25.2678 52.3849 25.5813 52.5805L26.0871 52.896H38.4519H50.8167L51.3226 52.5805C51.6361 52.3849 51.9473 52.0709 52.1412 51.7546L52.4539 51.2443V43.7735V36.3028L52.1407 35.7916C51.7961 35.2293 51.3341 35.0423 50.7611 34.8817C50.5205 34.8142 46.0928 34.8131 38.343 34.8128H26.3054L25.7525 34.8736ZM50.7611 36.4415L50.9877 36.7788V43.7735V50.9411L50.7171 51.2443L50.3449 51.4298H38.4519H26.5509L26.2004 51.2444L26.0517 50.7682V43.7735V36.7788L26.3054 36.523L26.5589 36.267H38.4519H50.3449L50.7611 36.4415ZM28.7854 38.1911C28.6255 38.3524 28.5317 38.5661 28.5317 38.7692C28.5317 38.9723 28.6255 39.186 28.7854 39.3473L29.039 39.6032H31.4251H33.8112L34.0648 39.3473C34.2248 39.186 34.3185 38.9723 34.3185 38.7692C34.3185 38.5661 34.2248 38.3524 34.0648 38.1911L33.8112 37.9351H31.4251H29.039L28.7854 38.1911ZM38.1936 40.6446C38.0799 40.6928 37.3863 41.343 36.6521 42.0894C35.5089 43.2516 35.3175 43.4935 35.3175 43.7746C35.3175 44.057 35.513 44.3 36.7216 45.5193C37.9318 46.7405 38.1707 46.936 38.4519 46.936C38.7332 46.936 38.972 46.7405 40.1823 45.5193C41.3927 44.2982 41.5864 44.0573 41.5864 43.7735C41.5864 43.4895 41.3963 43.2538 40.2001 42.0551C39.4375 41.2911 38.7206 40.6413 38.6069 40.6113C38.4933 40.5813 38.3073 40.5963 38.1936 40.6446ZM39.0732 43.2014L39.6356 43.7759L39.0437 44.3731L38.4519 44.9702L37.8601 44.3731L37.2682 43.7759L37.8307 43.2014C38.1401 42.8853 38.4196 42.6267 38.4519 42.6267C38.4843 42.6267 38.7638 42.8853 39.0732 43.2014ZM42.839 48.1998C42.6791 48.361 42.5854 48.5748 42.5854 48.7779C42.5854 48.981 42.6791 49.1947 42.839 49.356L43.0926 49.6119H45.4787H47.8649L48.1185 49.356C48.2784 49.1947 48.3721 48.981 48.3721 48.7779C48.3721 48.5748 48.2784 48.361 48.1185 48.1998L47.8649 47.9438H45.4787H43.0926L42.839 48.1998Z" fill="url(#paint0_linear_331_84)" stroke="url(#paint1_linear_331_84)"/>
<defs>
<linearGradient id="paint0_linear_331_84" x1="28.4647" y1="5" x2="28.4647" y2="52.896" gradientUnits="userSpaceOnUse">
<stop stop-color="#E31B40"/>
<stop offset="1" stop-color="#B53232"/>
</linearGradient>
<linearGradient id="paint1_linear_331_84" x1="28.4647" y1="5" x2="28.4647" y2="52.896" gradientUnits="userSpaceOnUse">
<stop stop-color="#E31B40"/>
<stop offset="1" stop-color="#B53232"/>
</linearGradient>
</defs>
</svg>
