<svg width="7" height="16" viewBox="0 0 7 16" fill="none" xmlns="http://www.w3.org/2000/svg">

<path fill-rule="evenodd" clip-rule="evenodd" d="M4.64359 0.0248653C3.91676 0.179543 3.31739 0.693527 3.11904 1.33227C3.04154 1.58181 3.02751 2.01796 3.08859 2.27767C3.22617 2.86248 3.73336 3.39944 4.3476 3.61052C4.67335 3.72247 5.14963 3.74889 5.48504 3.67365C6.36013 3.47731 7 2.72277 7 1.88719C7 1.36848 6.83638 0.978657 6.46016 0.601134C6.18223 0.322264 6.0133 0.21491 5.66545 0.0961007C5.40611 0.00752591 4.89309 -0.0282483 4.64359 0.0248653ZM2.76358 5.44189C2.26558 5.49413 1.64566 5.67337 0.695028 6.03997L0.209345 6.22729L0.0995085 6.66961C0.0391124 6.91289 -0.00542418 7.11686 0.000534745 7.1229C0.0065247 7.12891 0.166578 7.08328 0.356239 7.02143C0.979567 6.81824 1.58859 6.80125 1.95888 6.9768C2.22287 7.10193 2.34462 7.3901 2.34456 7.88946C2.34447 8.36451 2.23249 8.85612 1.65985 10.8953C1.22717 12.436 1.12795 12.8581 1.06994 13.4043C0.977425 14.2758 1.14362 14.8464 1.63185 15.3332C2.11297 15.8129 2.68999 16.0037 3.64811 15.9999C4.26048 15.9975 4.51954 15.9571 5.03231 15.7841C5.52126 15.6191 6.51457 15.2331 6.55376 15.1928C6.58654 15.1591 6.79352 14.328 6.77403 14.3084C6.76903 14.3033 6.67142 14.3335 6.55708 14.3753C5.97209 14.5894 5.2721 14.6344 4.87636 14.4832C4.66742 14.4033 4.56811 14.3109 4.47401 14.1085C4.41699 13.9859 4.4088 13.9129 4.41088 13.5451C4.41414 12.9676 4.48267 12.6525 5.0303 10.697C5.52557 8.92842 5.58134 8.70191 5.63519 8.24004C5.76231 7.14963 5.6319 6.61702 5.10994 6.09528C4.90966 5.89506 4.78486 5.79976 4.61022 5.7135C4.09459 5.45892 3.47291 5.36749 2.76358 5.44189Z" fill="#B50909"/>
</svg>
