<svg width="189" height="56" viewBox="0 0 189 56" fill="none" xmlns="http://www.w3.org/2000/svg">
<g clip-path="url(#clip0_3001_2)">
<path fill-rule="evenodd" clip-rule="evenodd" d="M29.3638 23.1447C29.3638 26.5153 26.6358 29.2487 23.2716 29.2487C19.907 29.2487 17.1789 26.5153 17.1789 23.1447C17.1789 19.7735 19.907 17.0407 23.2716 17.0407C23.6292 17.0407 23.9793 17.0722 24.32 17.1314L29.58 11.948C27.7172 10.8921 25.5646 10.2895 23.2711 10.2895C19.7282 10.2895 16.5205 11.7287 14.1989 14.0543C11.8777 16.3805 10.4413 19.5943 10.4413 23.1441C10.4413 24.2836 10.5888 25.403 10.8754 26.4746C11.273 28.2579 12.3231 29.8703 13.9215 31.9956L27.7768 50.4177L23.5789 56.0001L8.09102 35.4075C6.4693 33.2512 5.14677 31.0222 4.39521 28.2096C4.24514 27.6478 4.11946 27.0804 4.01919 26.5088H0V19.7795H4.01324C4.51494 16.8756 5.65603 14.1912 7.28417 11.8759L4.50899 9.09037L9.25696 4.35819L12.0191 7.13004C14.3311 5.496 17.0131 4.35279 19.9135 3.84898V0H26.6292V3.84898C29.5166 4.35004 32.1873 5.48577 34.4921 7.10779L37.4125 4.23008L42.1085 9.01434L39.2362 11.8443C40.8768 14.1667 42.0255 16.8626 42.5295 19.7795H46.4262V26.5088H42.5295C41.9822 29.6759 40.6754 32.5835 38.8033 35.034L41.448 37.6881L36.6995 42.4197L33.8826 39.5925C32.5524 40.4562 31.1106 41.1619 29.5843 41.6836L25.2005 35.8543C27.9713 35.4358 30.4518 34.1296 32.3438 32.2344C34.665 29.9082 36.1008 26.6945 36.1008 23.1441C36.1008 20.7789 35.4625 18.5629 34.3507 16.659L29.2002 21.7343C29.3075 22.1871 29.3638 22.6594 29.3638 23.1447Z" fill="#E32640"/>
<path d="M169.499 26.4878L174.645 7.49131H183.854L189.001 26.4878H183.854L182.906 22.6883H175.593L174.645 26.4878H169.499ZM176.677 18.3464H181.823L180.198 12.1046H178.302L176.677 18.3464ZM151.444 26.4878V21.8745L160.789 12.3759V12.1046H151.715V7.49121H167.29V12.1046L157.945 21.6031V21.8745H167.56V26.4878H151.444H151.444ZM134.044 26.4878V7.49131H148.67V12.1047H139.054V14.9542H146.774V19.0251H139.054V21.8746H148.67V26.4879H134.044V26.4878ZM114.341 12.1046V7.49121H131.269V12.1046H125.31V26.4878H120.299V12.1046H114.341H114.341ZM95.6746 26.4878V7.49131H105.155C107.412 7.49131 109.24 8.12862 110.64 9.40439C112.039 10.6796 112.739 12.2582 112.739 14.1399C112.739 16.5822 111.475 18.4823 108.946 19.8389L112.874 26.4879H107.457L104.071 20.7888H100.686V26.4879H95.6746V26.4878ZM100.686 16.1749H105.019C105.796 16.1749 106.418 15.9763 106.888 15.5783C107.358 15.1799 107.592 14.7011 107.592 14.1398C107.592 13.579 107.358 13.0996 106.888 12.7012C106.418 12.3038 105.796 12.1046 105.019 12.1046H100.686V16.1749ZM73.9169 26.4878L79.063 7.49131H88.2724L93.4185 26.4878H88.2724L87.3242 22.6883H80.0113L79.063 26.4878H73.9169ZM81.0949 18.3464H86.2411L84.6162 12.1046H82.7198L81.0949 18.3464ZM56.335 26.4878V7.49131H65.5437C67.873 7.49131 69.7645 8.15636 71.2182 9.48581C72.6719 10.8154 73.3985 12.4575 73.3985 14.4112C73.3985 16.365 72.6719 18.0072 71.2182 19.3372C69.7645 20.6667 67.873 21.3318 65.5437 21.3318H61.3457V26.4879H56.335V26.4878ZM61.3457 16.7184H65.4083C66.3478 16.7184 67.0559 16.5099 67.5349 16.0935C68.0133 15.6777 68.2523 15.1169 68.2523 14.4112C68.2523 13.706 68.0133 13.1452 67.5349 12.7288C67.0559 12.313 66.3478 12.1046 65.4083 12.1046H61.3457V16.7184Z" fill="#FEFEFE"/>
<path d="M56.292 51.6205L61.4381 32.6234H70.6474L75.7935 51.6205H70.6474L69.6992 47.8209H62.3863L61.4381 51.6205H56.292ZM63.4694 43.479H68.6156L66.9907 37.2372H65.0949L63.4694 43.479ZM77.4185 44.0214V32.6233H82.4293V43.8857C82.4293 45.0257 82.7451 45.9214 83.3774 46.5729C84.0091 47.2238 84.8669 47.5495 85.9505 47.5495C87.0342 47.5495 87.8918 47.2238 88.5236 46.5729C89.1553 45.9214 89.4718 45.0257 89.4718 43.8857V32.6233H94.4819V44.0214C94.4819 46.4822 93.7152 48.4545 92.1803 49.9376C90.6453 51.4212 88.5691 52.1627 85.9505 52.1627C83.3324 52.1627 81.2557 51.4212 79.7207 49.9376C78.1857 48.4545 77.4185 46.4822 77.4185 44.0214ZM97.1216 37.2372V32.6233H114.05V37.2372H108.091V51.6205H103.08V37.2372H97.1215H97.1216ZM135.071 41.9736C135.071 44.6913 133.971 47.1521 132.193 48.9333C130.416 50.7144 127.96 51.8169 125.247 51.8169C122.535 51.8169 120.079 50.7144 118.301 48.9333C116.523 47.1521 115.423 44.6913 115.423 41.9736C115.423 39.256 116.523 36.7947 118.301 35.0136C120.079 33.2324 122.535 32.1299 125.247 32.1299C127.96 32.1299 130.416 33.2324 132.193 35.0136C133.971 36.7947 135.071 39.256 135.071 41.9736ZM128.711 45.4443C129.597 44.5566 130.146 43.3292 130.146 41.9736C130.146 40.6176 129.597 39.3902 128.711 38.5026C127.825 37.6144 126.6 37.0651 125.247 37.0651C123.894 37.0651 122.669 37.615 121.783 38.5026C120.897 39.3902 120.349 40.6176 120.349 41.9736C120.349 43.3292 120.897 44.5566 121.783 45.4443C122.669 46.3318 123.894 46.8818 125.247 46.8818C126.6 46.8818 127.825 46.3324 128.711 45.4443Z" fill="white"/>
</g>
<defs>
<clipPath id="clip0_3001_2">
<rect width="189" height="56" fill="white"/>
</clipPath>
</defs>
</svg>
