<svg width="231" height="54" viewBox="0 0 231 54" fill="none" xmlns="http://www.w3.org/2000/svg">
<path fill-rule="evenodd" clip-rule="evenodd" d="M20.8095 53.3325L4.44614 31.9256C2.05985 28.6139 0.65332 24.5495 0.65332 20.156C0.65332 9.02404 9.67737 0.000166118 20.8093 0C31.9411 0.000166118 40.9651 9.02404 40.9651 20.156C40.9651 24.5495 39.5586 28.614 37.1723 31.9256L32.5981 37.9097L26.9429 30.5114L29.567 27.0783C29.6435 26.9819 29.7179 26.8843 29.791 26.7854L29.8083 26.7628H29.8073C31.1681 24.9126 31.9726 22.6283 31.9726 20.1556C31.9726 13.99 26.9746 8.99231 20.8093 8.99231C14.6438 8.99231 9.64597 13.9902 9.64597 20.1556C9.64597 22.5462 10.398 24.7611 11.6774 26.5771H11.6766L11.6856 26.5887C11.8499 26.8211 12.0225 27.0472 12.2034 27.2662L26.4688 45.9282L20.8093 53.3323L20.8095 53.3325Z" fill="#FEFEFE"/>
<path fill-rule="evenodd" clip-rule="evenodd" d="M21.2966 14.6583C21.511 14.6792 21.722 14.7126 21.9286 14.7578L22.059 14.7238L22.3903 14.0003L22.4474 13.9726L22.722 14.0369L22.9818 14.1463L23.0117 14.2023L22.8544 14.9824L22.94 15.0864C23.1363 15.1724 23.3265 15.2696 23.5101 15.3774L23.6456 15.3856L24.1842 14.7998L24.247 14.7912L24.4884 14.9371L24.7017 15.1213L24.7128 15.1839L24.3222 15.877L24.3718 16.0035L24.3706 16.0034C24.5302 16.1454 24.6816 16.2967 24.8234 16.4564V16.4551L24.9498 16.5047L25.6431 16.1142L25.7057 16.1253L25.8899 16.3386L26.0358 16.5798L26.0271 16.6428L25.4414 17.1813L25.4495 17.3169C25.5572 17.5003 25.6544 17.6905 25.7404 17.8868L25.8446 17.9724L26.6247 17.8152L26.6806 17.8451L26.7901 18.1049L26.8544 18.3795L26.8266 18.4367L26.103 18.7679L26.069 18.8987C26.1142 19.105 26.1479 19.3158 26.1688 19.5302V19.5301L26.2421 19.6447L27.0326 19.7362L27.0767 19.7819L27.1004 20.063L27.0767 20.3439L27.0326 20.3897L26.2421 20.4811L26.1688 20.5957C26.1479 20.8103 26.1145 21.0213 26.0692 21.2278L26.103 21.3579L26.8266 21.6891L26.8544 21.7463L26.7901 22.0209L26.6806 22.2808L26.6247 22.3107L25.8446 22.1534L25.7406 22.2388C25.6545 22.4352 25.5573 22.6255 25.4495 22.8091L25.4414 22.9445L26.0271 23.483L26.0358 23.546L25.8899 23.7872L25.7055 24.0007L25.6431 24.0118L24.9498 23.6211L24.8234 23.6708L24.8236 23.6692C24.6816 23.829 24.5301 23.9806 24.3703 24.1224H24.3718L24.3222 24.2488L24.7128 24.942L24.7017 25.0045L24.4884 25.1887L24.247 25.3348L24.1842 25.3259L23.6456 24.7404L23.5099 24.7483L23.5101 24.748C23.3269 24.8558 23.1367 24.953 22.9403 25.0391L22.8544 25.1435L23.0117 25.9235L22.9818 25.9796L22.722 26.0889L22.4474 26.1534L22.3903 26.1255L22.059 25.402L21.9286 25.3681C21.722 25.4133 21.5112 25.4467 21.2966 25.4675L21.2969 25.4678L21.1823 25.5411L21.0907 26.3315L21.0451 26.3755L20.764 26.3992L20.4829 26.3755L20.4372 26.3315L20.3459 25.5411L20.2312 25.4678C20.0166 25.4469 19.8057 25.4133 19.5992 25.3681L19.4689 25.402L19.1377 26.1255L19.0805 26.1534L18.8061 26.0889L18.5461 25.9796L18.5162 25.9235L18.6736 25.1435L18.5882 25.0396C18.3918 24.9533 18.2014 24.8562 18.0179 24.7483L17.8825 24.7404L17.3439 25.3259L17.281 25.3348L17.0398 25.1887L16.8263 25.0045L16.8152 24.942L17.2059 24.2488L17.1562 24.1224H17.1577C16.9979 23.9804 16.8464 23.829 16.7046 23.6692V23.6708L16.5781 23.6211L15.8849 24.0118L15.8225 24.0007L15.6381 23.7872L15.4922 23.546L15.501 23.483L16.0866 22.9445L16.0786 22.8089L16.079 22.8091C15.9711 22.6257 15.874 22.4356 15.7879 22.2391L15.6834 22.1534L14.9035 22.3107L14.8473 22.2808L14.738 22.0209L14.6736 21.7463L14.7013 21.6891L15.4249 21.358L15.4588 21.2276C15.4136 21.021 15.3803 20.81 15.3593 20.5954L15.3592 20.5957L15.2859 20.4811L14.4955 20.3897L14.4513 20.3439L14.4277 20.063L14.4513 19.7819L14.4955 19.7362L15.2859 19.6447L15.3592 19.5301V19.5302C15.3801 19.3156 15.4136 19.1046 15.4588 18.898L15.4249 18.7679L14.7013 18.4367L14.6736 18.3795L14.738 18.1049L14.8473 17.8451L14.9035 17.8152L15.6834 17.9725L15.7874 17.887C15.8735 17.6907 15.9706 17.5004 16.0786 17.3169L16.0866 17.1813L15.501 16.6428L15.4922 16.5798L15.6381 16.3386L15.8225 16.1253L15.8849 16.1142L16.5781 16.5047L16.7046 16.4551V16.4566C16.8466 16.2969 16.9979 16.1454 17.1577 16.0034L17.1562 16.0035L17.2059 15.8771L16.8152 15.1839L16.8263 15.1213L17.0398 14.9371L17.281 14.7912L17.3439 14.7998L17.8825 15.3856L18.0181 15.3774L18.0179 15.3779C18.2011 15.2701 18.3913 15.1728 18.5877 15.0867L18.6736 14.9824L18.5162 14.2023L18.5461 14.1463L18.8061 14.0369L19.0807 13.9726L19.1377 14.0003L19.4689 14.7238L19.5993 14.7578C19.806 14.7126 20.017 14.6792 20.2316 14.6583L20.2312 14.6582L20.3459 14.5849L20.4372 13.7943L20.4829 13.7503L20.764 13.7266L21.0451 13.7503L21.0907 13.7943L21.1823 14.5849L21.2969 14.6582L21.2966 14.6583V14.6583ZM20.7643 17.9518C21.9298 17.9518 22.8747 18.8967 22.8747 20.0622C22.8747 21.2278 21.9298 22.1727 20.7643 22.1727C19.5987 22.1727 18.6538 21.2278 18.6538 20.0622C18.6538 18.8967 19.5987 17.9518 20.7643 17.9518Z" fill="#E31A40"/>
<path d="M51.054 37L55.293 17.02H63.42C65.022 17.02 66.345 17.317 67.389 17.911C68.433 18.487 69.207 19.243 69.711 20.179C70.215 21.115 70.467 22.114 70.467 23.176C70.467 24.058 70.287 24.94 69.927 25.822C69.585 26.686 69.063 27.478 68.361 28.198C67.677 28.918 66.831 29.494 65.823 29.926C64.815 30.34 63.654 30.547 62.34 30.547H57.615L56.238 37H51.054ZM62.826 21.529H59.532L58.56 26.065H62.556C63.42 26.065 64.086 25.804 64.554 25.282C65.022 24.76 65.256 24.202 65.256 23.608C65.256 23.068 65.058 22.591 64.662 22.177C64.284 21.745 63.672 21.529 62.826 21.529ZM78.5621 22.42C79.3541 22.42 80.0021 22.537 80.5061 22.771C81.0101 22.987 81.4061 23.239 81.6941 23.527C82.0001 23.815 82.2071 24.076 82.3151 24.31C82.4411 24.526 82.5041 24.634 82.5041 24.634H82.7201L83.1251 22.69H88.2551L85.2851 37H80.1551L80.4791 35.434H80.2631C80.2631 35.434 80.2001 35.533 80.0741 35.731C79.9481 35.911 79.7411 36.118 79.4531 36.352C79.1651 36.586 78.7781 36.802 78.2921 37C77.8061 37.18 77.2031 37.27 76.4831 37.27C75.3131 37.27 74.3411 36.991 73.5671 36.433C72.8111 35.875 72.2441 35.137 71.8661 34.219C71.5061 33.301 71.3261 32.311 71.3261 31.249C71.3261 30.223 71.4881 29.197 71.8121 28.171C72.1361 27.127 72.6041 26.173 73.2161 25.309C73.8461 24.427 74.6111 23.725 75.5111 23.203C76.4111 22.681 77.4281 22.42 78.5621 22.42ZM79.8041 26.497C79.1201 26.497 78.5261 26.713 78.0221 27.145C77.5361 27.559 77.1581 28.081 76.8881 28.711C76.6361 29.341 76.5101 29.971 76.5101 30.601C76.5101 31.303 76.6811 31.915 77.0231 32.437C77.3831 32.941 77.9411 33.193 78.6971 33.193C79.3811 33.193 79.9661 32.986 80.4521 32.572C80.9561 32.14 81.3341 31.609 81.5861 30.979C81.8561 30.349 81.9911 29.728 81.9911 29.116C81.9911 28.414 81.8111 27.802 81.4511 27.28C81.1091 26.758 80.5601 26.497 79.8041 26.497ZM88.0704 37L91.1214 22.69H96.1974L95.7114 24.958H95.8734C96.2874 24.184 96.8454 23.572 97.5474 23.122C98.2674 22.654 99.1224 22.42 100.112 22.42C100.544 22.42 100.859 22.456 101.057 22.528C101.255 22.582 101.354 22.609 101.354 22.609L100.274 27.631C100.274 27.631 100.157 27.613 99.9234 27.577C99.7074 27.523 99.4194 27.496 99.0594 27.496C98.1414 27.496 97.3584 27.712 96.7104 28.144C96.0624 28.576 95.5314 29.161 95.1174 29.899C94.7034 30.637 94.3974 31.465 94.1994 32.383L93.2004 37H88.0704ZM108.07 37.27C106.864 37.27 105.919 37.081 105.235 36.703C104.551 36.325 104.056 35.839 103.75 35.245C103.462 34.633 103.309 33.994 103.291 33.328C103.273 32.662 103.327 32.032 103.453 31.438L104.452 26.74H102.157L103.021 22.69H105.316L106.072 19.18H111.229L110.473 22.69H113.119L112.255 26.74H109.609L108.61 31.438C108.484 32.05 108.547 32.527 108.799 32.869C109.051 33.193 109.537 33.355 110.257 33.355C110.545 33.355 110.788 33.337 110.986 33.301C111.202 33.247 111.31 33.22 111.31 33.22L110.5 37C110.5 37 110.266 37.045 109.798 37.135C109.348 37.225 108.772 37.27 108.07 37.27ZM121.274 37.27C119.654 37.27 118.331 36.955 117.305 36.325C116.279 35.695 115.514 34.876 115.01 33.868C114.524 32.842 114.281 31.762 114.281 30.628C114.281 29.638 114.452 28.657 114.794 27.685C115.154 26.713 115.685 25.831 116.387 25.039C117.107 24.247 117.989 23.617 119.033 23.149C120.077 22.663 121.292 22.42 122.678 22.42C124.028 22.42 125.153 22.663 126.053 23.149C126.953 23.617 127.655 24.247 128.159 25.039C128.663 25.813 128.987 26.677 129.131 27.631C129.275 28.585 129.266 29.548 129.104 30.52L128.996 31.141H119.33C119.366 31.915 119.582 32.518 119.978 32.95C120.374 33.382 120.923 33.598 121.625 33.598C122.183 33.598 122.624 33.481 122.948 33.247C123.272 33.013 123.506 32.788 123.65 32.572C123.794 32.338 123.866 32.221 123.866 32.221H128.672C128.672 32.221 128.6 32.392 128.456 32.734C128.33 33.076 128.105 33.499 127.781 34.003C127.475 34.489 127.034 34.984 126.458 35.488C125.9 35.992 125.198 36.415 124.352 36.757C123.506 37.099 122.48 37.27 121.274 37.27ZM119.735 28.306H124.595C124.685 27.676 124.541 27.154 124.163 26.74C123.803 26.308 123.254 26.092 122.516 26.092C121.814 26.092 121.22 26.299 120.734 26.713C120.248 27.127 119.915 27.658 119.735 28.306ZM129.94 37L130.669 33.517L138.202 26.74H132.235L133.126 22.69H145.735L144.979 26.173L137.446 32.95H143.548L142.684 37H129.94ZM153.234 22.42C154.026 22.42 154.674 22.537 155.178 22.771C155.682 22.987 156.078 23.239 156.366 23.527C156.672 23.815 156.879 24.076 156.987 24.31C157.113 24.526 157.176 24.634 157.176 24.634H157.392L157.797 22.69H162.927L159.957 37H154.827L155.151 35.434H154.935C154.935 35.434 154.872 35.533 154.746 35.731C154.62 35.911 154.413 36.118 154.125 36.352C153.837 36.586 153.45 36.802 152.964 37C152.478 37.18 151.875 37.27 151.155 37.27C149.985 37.27 149.013 36.991 148.239 36.433C147.483 35.875 146.916 35.137 146.538 34.219C146.178 33.301 145.998 32.311 145.998 31.249C145.998 30.223 146.16 29.197 146.484 28.171C146.808 27.127 147.276 26.173 147.888 25.309C148.518 24.427 149.283 23.725 150.183 23.203C151.083 22.681 152.1 22.42 153.234 22.42ZM154.476 26.497C153.792 26.497 153.198 26.713 152.694 27.145C152.208 27.559 151.83 28.081 151.56 28.711C151.308 29.341 151.182 29.971 151.182 30.601C151.182 31.303 151.353 31.915 151.695 32.437C152.055 32.941 152.613 33.193 153.369 33.193C154.053 33.193 154.638 32.986 155.124 32.572C155.628 32.14 156.006 31.609 156.258 30.979C156.528 30.349 156.663 29.728 156.663 29.116C156.663 28.414 156.483 27.802 156.123 27.28C155.781 26.758 155.232 26.497 154.476 26.497Z" fill="#FEFEFE"/>
<path d="M161.716 37L172.597 17.02H179.59L181.993 37H176.863L176.512 33.652H169.141L167.386 37H161.716ZM171.463 29.224H176.08L175.324 21.853L171.463 29.224ZM188.078 37.27C186.728 37.27 185.756 36.766 185.162 35.758C184.586 34.732 184.478 33.373 184.838 31.681L186.755 22.69H191.885L190.103 31.087C189.977 31.735 190.013 32.239 190.211 32.599C190.427 32.959 190.814 33.139 191.372 33.139C191.948 33.139 192.407 32.95 192.749 32.572C193.109 32.194 193.352 31.699 193.478 31.087L195.26 22.69H200.39L197.366 37H192.236L192.641 34.975H192.479C191.939 35.695 191.291 36.262 190.535 36.676C189.797 37.072 188.978 37.27 188.078 37.27ZM207.474 37.27C206.268 37.27 205.323 37.081 204.639 36.703C203.955 36.325 203.46 35.839 203.154 35.245C202.866 34.633 202.713 33.994 202.695 33.328C202.677 32.662 202.731 32.032 202.857 31.438L203.856 26.74H201.561L202.425 22.69H204.72L205.476 19.18H210.633L209.877 22.69H212.523L211.659 26.74H209.013L208.014 31.438C207.888 32.05 207.951 32.527 208.203 32.869C208.455 33.193 208.941 33.355 209.661 33.355C209.949 33.355 210.192 33.337 210.39 33.301C210.606 33.247 210.714 33.22 210.714 33.22L209.904 37C209.904 37 209.67 37.045 209.202 37.135C208.752 37.225 208.176 37.27 207.474 37.27ZM220.759 37.27C219.139 37.27 217.807 36.955 216.763 36.325C215.719 35.695 214.936 34.876 214.414 33.868C213.91 32.86 213.658 31.789 213.658 30.655C213.658 29.665 213.838 28.684 214.198 27.712C214.576 26.74 215.125 25.858 215.845 25.066C216.565 24.256 217.456 23.617 218.518 23.149C219.598 22.663 220.831 22.42 222.217 22.42C223.819 22.42 225.142 22.735 226.186 23.365C227.248 23.995 228.031 24.814 228.535 25.822C229.057 26.812 229.318 27.883 229.318 29.035C229.318 30.025 229.129 31.006 228.751 31.978C228.373 32.95 227.824 33.841 227.104 34.651C226.384 35.443 225.493 36.082 224.431 36.568C223.369 37.036 222.145 37.27 220.759 37.27ZM220.948 33.166C221.596 33.166 222.154 32.977 222.622 32.599C223.09 32.203 223.45 31.699 223.702 31.087C223.954 30.457 224.08 29.791 224.08 29.089C224.08 28.405 223.909 27.811 223.567 27.307C223.225 26.785 222.685 26.524 221.947 26.524C221.317 26.524 220.759 26.722 220.273 27.118C219.805 27.496 219.445 28 219.193 28.63C218.941 29.242 218.815 29.899 218.815 30.601C218.815 31.285 218.986 31.888 219.328 32.41C219.67 32.914 220.21 33.166 220.948 33.166Z" fill="#E31A40"/>
</svg>
