<svg width="24" height="25" viewBox="0 0 24 25" fill="none" xmlns="http://www.w3.org/2000/svg">
<path fill-rule="evenodd" clip-rule="evenodd" d="M4.95261 0.756119C4.17082 1.05652 2.71274 2.49277 1.35691 4.29808C0.819654 5.01346 0.398527 5.66416 0.177324 6.12081L0 6.48678L0.0566459 6.9777C0.505754 10.8717 3.74504 15.958 8.09005 19.5917C11.154 22.154 14.4621 23.8109 17.1868 24.1479C17.6357 24.2034 17.6622 24.2012 17.9455 24.0852C19.1017 23.6117 21.8303 21.4167 22.8628 20.1294C23.5185 19.312 23.6149 18.9189 23.311 18.3012C23.1044 17.881 22.8856 17.6885 21.7242 16.9056C19.3569 15.3096 17.6647 14.4454 16.9096 14.4467C16.346 14.4476 16.0266 14.681 15.1086 15.7625C14.786 16.1427 14.4934 16.4538 14.4586 16.4538C14.3476 16.4538 13.5587 16.1322 13.0833 15.8932C11.404 15.049 9.99723 13.8036 8.9599 12.2427C8.57502 11.6636 8.02348 10.5817 7.84674 10.0591L7.72924 9.71168L7.92119 9.54035C8.02675 9.44609 8.34452 9.17111 8.62726 8.92927C9.50111 8.18205 9.70661 7.89238 9.74271 7.35733C9.75812 7.12847 9.73518 6.96238 9.65281 6.7058C9.50229 6.2373 8.97227 5.16452 8.48139 4.33485C7.92437 3.39339 6.71925 1.58466 6.44722 1.28176C6.04796 0.837254 5.36576 0.597324 4.95261 0.756119Z" fill="#C4C4C4"/>
</svg>
