<svg width="97" height="93" viewBox="0 0 97 93" fill="none" xmlns="http://www.w3.org/2000/svg">
<path fill-rule="evenodd" clip-rule="evenodd" d="M74.3742 0.644587C73.4732 1.06605 71.4173 2.48284 70.7772 3.12342C70.6359 3.26486 70.4797 3.39199 70.4302 3.40605C70.3065 3.4411 69.1396 4.48906 68.9126 4.76887C68.8114 4.8938 68.6541 5.01703 68.5631 5.04283C68.4722 5.0686 68.4087 5.12818 68.422 5.17515C68.4353 5.22221 68.2682 5.39051 68.0506 5.54924C67.8331 5.70787 67.6048 5.91233 67.5433 6.00337C67.4819 6.09448 67.3825 6.18295 67.3226 6.19994C67.2627 6.21692 67.2247 6.26968 67.2382 6.31721C67.2639 6.40806 67.2224 6.45134 66.1648 7.4362C65.8003 7.77563 65.4963 8.11661 65.4893 8.19379C65.4825 8.27094 65.4449 8.3431 65.406 8.35415C65.3671 8.36517 65.0862 8.6373 64.7819 8.95896C64.2108 9.56243 63.4675 10.3202 63.1554 10.6171C63.0574 10.7102 62.9872 10.8218 62.9995 10.8648C63.0116 10.9078 62.9575 10.9612 62.8792 10.9834C62.8008 11.0056 62.7304 11.0935 62.7228 11.1787C62.7151 11.264 62.6648 11.3462 62.611 11.3614C62.5571 11.3767 62.3389 11.6198 62.1259 11.9017C61.9129 12.1835 61.7112 12.422 61.6776 12.4315C61.5286 12.4737 60.4764 13.7217 60.4369 13.9029C60.4128 14.0138 60.3298 14.1224 60.2525 14.1443C60.1753 14.1662 60.0408 14.3119 59.9538 14.4682C59.7109 14.9041 59.3698 15.3006 59.1951 15.3502C59.1084 15.3747 58.9579 15.542 58.8606 15.7218C58.5905 16.2215 58.3315 16.5737 58.0023 16.8891C57.8376 17.0468 57.6145 17.3428 57.5065 17.5468C57.3985 17.7509 57.185 18.0347 57.032 18.1775C56.879 18.3203 56.6409 18.6212 56.5028 18.8462C56.072 19.5483 55.574 20.2025 55.4419 20.2399C55.3722 20.2597 55.3249 20.3102 55.3368 20.3523C55.3708 20.4722 55.0097 21.1678 54.8969 21.1998C54.8412 21.2156 54.754 21.297 54.7031 21.3806C54.6524 21.4643 54.4947 21.6772 54.3529 21.8537C54.0159 22.2734 53.7501 22.6756 53.3461 23.3771C53.1647 23.692 52.8979 24.0535 52.7533 24.1803C52.6086 24.3072 52.3693 24.6011 52.2216 24.8335C52.0738 25.0659 51.9007 25.2708 51.8367 25.289C51.7728 25.3072 51.7358 25.3764 51.7546 25.4428C51.7734 25.5091 51.542 25.8806 51.2403 26.2682C50.9386 26.6557 50.7031 27.0213 50.7169 27.0807C50.7307 27.1401 50.6891 27.2283 50.6245 27.2768C50.4582 27.4014 49.6232 28.5333 49.4235 28.9047C49.3314 29.0758 49.1804 29.3678 49.0879 29.5536C48.9953 29.7394 48.7483 30.0985 48.5389 30.3517C48.3297 30.6048 48.1337 30.9252 48.1034 31.0636C48.0732 31.2021 47.7514 31.7082 47.3883 32.1884C47.0254 32.6687 46.693 33.1766 46.6499 33.3171C46.5189 33.7443 46.0604 34.5425 45.8088 34.7816C45.6782 34.9058 45.4797 35.163 45.3678 35.3531C45.2559 35.5433 45.0989 35.7475 45.019 35.8069C44.9392 35.8662 44.8891 35.969 44.9079 36.0352C44.9266 36.1013 44.8731 36.2316 44.7889 36.3246C44.7047 36.4177 44.6513 36.5484 44.6703 36.6152C44.6892 36.682 44.4911 37.0435 44.23 37.4187C43.9689 37.7939 43.6591 38.2563 43.5414 38.4464C43.4237 38.6364 43.1879 38.9631 43.0172 39.1724C42.8466 39.3817 42.6874 39.692 42.6635 39.862C42.6094 40.246 42.1429 40.6371 41.7983 40.5872C41.3831 40.527 40.231 39.6086 39.3964 38.6727C37.9678 37.0708 37.6847 36.7152 37.4079 36.1755C37.2592 35.8855 37.0802 35.6078 37.0101 35.5584C36.9401 35.5091 36.9103 35.4609 36.944 35.4513C36.9776 35.4418 36.9288 35.3548 36.8355 35.258C36.6844 35.1013 36.5904 34.9546 36.2192 34.2978C36.1653 34.2023 36.055 33.9596 35.974 33.7585C35.8931 33.5573 35.7447 33.2823 35.6443 33.1473C35.544 33.0122 35.4577 32.8802 35.4525 32.854C35.4474 32.8278 35.3569 32.662 35.2514 32.4856C35.0571 32.1605 34.914 31.8319 34.5386 30.848C34.2833 30.1789 33.8259 29.1811 33.7373 29.0999C33.7014 29.067 33.5319 28.6131 33.3607 28.0913C33.1895 27.5695 32.8794 26.7151 32.6717 26.1926C32.4639 25.6701 32.1372 24.834 31.9458 24.3346C31.7543 23.8352 31.5565 23.3703 31.5061 23.3015C31.4215 23.1859 31.1326 22.5347 30.5145 21.0658C30.1181 20.1239 29.3605 18.767 28.9743 18.3076C28.2711 17.4707 27.2393 16.9785 26.3612 17.0609C25.7883 17.1147 24.8181 17.6225 24.4138 18.0802C23.9376 18.6193 23.9882 18.7886 24.5758 18.622C24.8231 18.5518 25.0463 18.457 25.0718 18.4113C25.1244 18.3168 25.2603 18.2409 25.7978 18.0059C26.095 17.8759 26.2955 17.8627 26.735 17.9437C27.3483 18.0569 28.2019 18.5901 28.2949 18.918C28.326 19.0277 28.4364 19.1868 28.5402 19.2715C28.6442 19.3562 28.8222 19.6443 28.9361 19.9115C29.05 20.1788 29.1962 20.436 29.2611 20.483C29.3258 20.53 29.4199 20.7072 29.4699 20.8768C29.52 21.0464 29.6832 21.3997 29.8327 21.6618C29.9821 21.924 30.2071 22.4714 30.3325 22.8782C30.4579 23.2851 30.6117 23.6719 30.6742 23.7377C30.7368 23.8036 31.0129 24.4733 31.288 25.2258C31.563 25.9784 31.8633 26.7087 31.9553 26.8487C32.1113 27.0865 32.6528 28.4451 33.181 29.9241C33.3066 30.2761 33.4884 30.7002 33.5849 30.8667C33.902 31.4141 34.2819 32.235 34.3828 32.5911C34.4374 32.7835 34.5393 33.0011 34.6094 33.0745C34.6793 33.1479 34.9113 33.574 35.1247 34.0214C35.3382 34.4687 35.6436 34.9704 35.8036 35.1361C35.9636 35.302 36.1153 35.5109 36.1407 35.6006C36.2618 36.0275 37.5453 37.7466 38.5155 38.7811C38.7206 38.9998 38.9857 39.287 39.1046 39.4194C39.3765 39.7221 39.7556 40.1028 39.884 40.2022C39.938 40.2439 40.1534 40.4055 40.3628 40.5615C40.5721 40.7174 40.7555 40.8875 40.7703 40.9397C40.7851 40.9918 41.0057 41.1307 41.2606 41.2483C41.5155 41.366 41.711 41.5082 41.695 41.5642C41.6791 41.6204 41.628 41.6555 41.5815 41.6422C41.469 41.6101 41.1157 42.2957 41.0381 42.6968C40.9761 43.0165 40.6388 43.6661 40.602 43.5363C40.5912 43.4984 40.4417 43.6093 40.2697 43.7825C40.0977 43.9558 39.9673 44.1339 39.98 44.1785C40.0202 44.3206 39.678 45.0456 39.5542 45.0807C39.4886 45.0993 39.431 45.195 39.4261 45.2932C39.4212 45.3914 39.2492 45.7554 39.044 46.102L38.6707 46.7321L37.7647 46.9525C37.2665 47.0737 36.4372 47.2013 35.9218 47.236C35.4065 47.2706 34.6157 47.3529 34.1644 47.4187C33.3696 47.5347 32.6906 47.5751 31.644 47.5687C31.3671 47.567 30.7076 47.5779 30.1783 47.5929C28.6162 47.6371 26.3073 47.1749 24.8863 46.5334C24.2561 46.2489 23.6272 45.7703 22.864 44.9944C22.6102 44.7365 22.3691 44.5721 22.2882 44.6019C22.1951 44.6362 22.1476 44.5913 22.1451 44.4664C22.1428 44.3635 22.0944 44.2927 22.0373 44.3089C21.8906 44.3504 22.0695 44.9052 22.305 45.139C22.4135 45.2467 22.6397 45.4918 22.8077 45.6838C24.2477 47.3302 28.0072 48.4966 31.3042 48.32C31.8215 48.2923 32.5187 48.2786 32.8535 48.2896C33.1883 48.3006 33.6111 48.2892 33.7931 48.2643C34.7323 48.1356 35.5576 48.0537 36.0494 48.0405C36.3512 48.0323 36.846 47.9831 37.1491 47.9307C37.6092 47.8514 37.7085 47.8654 37.751 48.0154C37.779 48.1142 37.8548 48.1819 37.9193 48.1658C37.9839 48.1497 37.9392 48.2317 37.8202 48.3481C37.6972 48.4684 37.6262 48.6388 37.6558 48.7431C37.6844 48.8439 37.648 48.9434 37.575 48.9641C37.5019 48.9848 37.3896 49.1299 37.3253 49.2866C37.261 49.4432 37.1694 49.5825 37.1217 49.596C37.0069 49.6286 36.7453 50.1402 36.7803 50.2637C36.8173 50.3942 36.4173 51.4187 36.2353 51.6594C36.1069 51.8293 35.4023 53.1074 34.8866 54.1057C34.7861 54.3003 34.6844 54.5556 34.6608 54.6731C34.637 54.7905 34.5191 54.9737 34.3989 55.08C34.2786 55.1863 34.1969 55.332 34.2172 55.4038C34.2376 55.4755 34.1884 55.661 34.108 55.8161C34.0275 55.9711 33.8355 56.3706 33.6813 56.7039C33.527 57.0372 33.2891 57.5142 33.1526 57.7639C33.0161 58.0136 32.9128 58.2476 32.9231 58.2838C32.9333 58.32 32.8053 58.5864 32.6387 58.8759C32.4719 59.1653 32.3479 59.4456 32.363 59.4988C32.378 59.5519 32.3593 59.6053 32.3212 59.6173C32.2831 59.6293 32.1795 59.8621 32.091 60.1347C32.0024 60.4073 31.8099 60.8049 31.6631 61.0183C31.5162 61.2317 31.412 61.4622 31.4314 61.5307C31.4508 61.5991 31.4143 61.7493 31.3501 61.8643C31.2861 61.9794 31.2386 62.098 31.2447 62.1279C31.2508 62.1578 31.1015 62.4752 30.9127 62.8333C30.724 63.1913 30.4911 63.7191 30.3952 64.0063C30.2993 64.2934 30.1413 64.6063 30.0439 64.7018C29.9465 64.7972 29.8842 64.936 29.9052 65.0103C29.9263 65.0845 29.8669 65.3138 29.7732 65.5197C29.4716 66.1829 29.3909 66.3867 29.4071 66.4438C29.4158 66.4745 29.3122 66.7474 29.177 67.0503C29.0418 67.3532 28.9443 67.6477 28.9605 67.7046C28.9766 67.7615 28.9585 67.8173 28.9202 67.8286C28.8819 67.8398 28.7908 68.0355 28.7178 68.2635C28.6447 68.4915 28.5416 68.7267 28.4884 68.7863C28.4353 68.8458 28.3556 69.078 28.3114 69.3022C28.2672 69.5264 28.1734 69.7531 28.1031 69.8057C28.0327 69.8585 27.988 69.9466 28.0035 70.0015C28.0362 70.1167 27.8643 70.6368 27.5978 71.2293C27.2237 72.0612 27.079 72.4344 27.0022 72.7662C26.921 73.1172 26.7096 73.6812 26.5207 74.0504C26.4612 74.1668 26.3909 74.361 26.3646 74.4818C26.3382 74.6028 26.1801 75.0102 26.0131 75.3872C25.846 75.7643 25.7133 76.1304 25.7181 76.201C25.723 76.2715 25.6547 76.4334 25.5664 76.5606C25.4781 76.688 25.4215 76.8473 25.4406 76.9145C25.4597 76.9819 25.3095 77.327 25.1068 77.6815C24.904 78.036 24.7527 78.3795 24.7704 78.4448C24.7881 78.5103 24.6867 78.7932 24.5451 79.0737C24.4035 79.3542 24.2996 79.6256 24.3141 79.6769C24.3287 79.7282 24.2713 79.898 24.1867 80.0542C24.102 80.2103 23.9937 80.5064 23.946 80.712C23.8465 81.1409 23.8079 81.2436 23.5617 81.7327C23.4632 81.9283 23.3687 82.1931 23.3518 82.3209C23.3144 82.6031 23.2191 82.929 23.1111 83.1443C23.0669 83.2323 23.0472 83.3619 23.0671 83.4322C23.087 83.5025 23.0421 83.6367 22.967 83.7302C22.892 83.8239 22.7342 84.177 22.6164 84.5149C22.4986 84.8529 22.3402 85.2737 22.2645 85.4501C22.1887 85.6265 22.0998 85.9322 22.0667 86.1295C22.0336 86.3268 21.9273 86.5797 21.8304 86.6917C21.7335 86.8035 21.6623 87.0302 21.6723 87.1954C21.6823 87.3605 21.652 87.5066 21.6049 87.5199C21.5577 87.5333 21.5366 87.6056 21.5579 87.6807C21.5792 87.7557 21.5256 87.8858 21.4388 87.9697C21.3521 88.0536 21.2953 88.1732 21.3128 88.2355C21.3301 88.2978 21.1886 88.6703 20.9982 89.0631C20.8078 89.4559 20.6751 89.7902 20.7033 89.806C20.7315 89.8218 20.6324 90.116 20.483 90.4598C20.3336 90.8035 20.225 91.133 20.2417 91.192C20.2584 91.2509 20.221 91.3375 20.1585 91.3843C20.0959 91.4313 20.0485 91.5902 20.053 91.7377C20.0634 92.0738 20.383 92.3697 20.7248 92.3595C20.8611 92.3554 20.9833 92.3894 20.9962 92.435C21.0092 92.4808 21.1035 92.4944 21.2058 92.4654C21.3594 92.4219 21.3743 92.3505 21.2908 92.0561C21.2166 91.7944 21.2361 91.6223 21.3639 91.4088C21.4598 91.2489 21.573 90.8917 21.6157 90.6152C21.6584 90.3386 21.7234 90.1038 21.76 90.0934C21.7967 90.083 21.8873 89.9561 21.9615 89.8113C22.0671 89.6049 22.0628 89.4648 21.9421 89.1622C21.7729 88.7386 21.8242 88.6154 22.2015 88.5389C22.354 88.508 22.4662 88.4093 22.5061 88.2709C22.551 88.1154 22.5388 88.0605 22.4642 88.0817C22.3886 88.1031 22.3795 88.065 22.432 87.9462C22.4827 87.8311 22.4618 87.7362 22.3625 87.6333C22.1961 87.4606 22.2236 87.3194 22.4695 87.085C22.5674 86.9916 22.6315 86.8589 22.612 86.79C22.5925 86.7211 22.6892 86.5756 22.827 86.4665C23.0083 86.3231 23.0487 86.2317 22.9732 86.136C22.6993 85.7891 22.6889 85.7063 22.897 85.5295C23.0132 85.4307 23.0928 85.2951 23.0737 85.228C23.0547 85.161 23.1366 85.011 23.2556 84.8946C23.3747 84.7782 23.4276 84.6938 23.3734 84.707C23.2162 84.7451 23.1464 84.0489 23.281 83.7858C23.3475 83.6559 23.3916 83.5133 23.3791 83.469C23.3666 83.4248 23.4694 83.3091 23.6077 83.212C23.8015 83.076 23.8434 82.9786 23.7902 82.788C23.7359 82.5932 23.7873 82.4822 24.0321 82.266C24.268 82.0576 24.3198 81.9517 24.2468 81.8276C24.1938 81.7375 24.1972 81.6506 24.2543 81.6344C24.3115 81.6181 24.3214 81.4752 24.2765 81.3166C24.2171 81.1073 24.2416 81.0007 24.3661 80.9275C24.4603 80.8719 24.5094 80.8009 24.4752 80.7697C24.4411 80.7383 24.5031 80.6362 24.613 80.5428C24.723 80.4493 24.7954 80.3107 24.7738 80.2347C24.7523 80.1587 24.7937 79.9988 24.8659 79.8793C24.9381 79.7597 24.993 79.5277 24.9879 79.3637C24.9788 79.0705 25.2667 78.5522 25.4349 78.5588C25.4821 78.5606 25.4861 78.5305 25.4438 78.4917C25.4016 78.453 25.4519 78.3233 25.5557 78.2035C25.6594 78.0837 25.7208 77.9028 25.6921 77.8015C25.6633 77.6998 25.7024 77.5995 25.7794 77.5777C25.8561 77.5559 25.9071 77.4962 25.8925 77.4449C25.878 77.3937 25.9185 77.3368 25.9823 77.3186C26.0463 77.3003 26.0718 77.1577 26.0391 77.0016C25.9554 76.602 26.0423 76.295 26.2564 76.2343C26.3569 76.2058 26.4286 76.1452 26.4156 76.0994C26.4027 76.0537 26.4927 75.9583 26.6157 75.8875C26.8 75.7814 26.8127 75.7405 26.6882 75.6548C26.5818 75.5816 26.5679 75.542 26.6414 75.5211C26.6988 75.5049 26.7266 75.4237 26.7031 75.3408C26.6533 75.1653 27.1236 74.277 27.2915 74.2294C27.3542 74.2116 27.3662 74.1447 27.3184 74.0807C27.2657 74.0103 27.3006 73.9235 27.4067 73.861C27.5031 73.8042 27.5505 73.7113 27.512 73.6548C27.425 73.5269 27.7061 73.0044 27.8899 72.9523C28.0094 72.9184 28.0205 72.8729 27.9564 72.6795C27.9477 72.653 28.0118 72.5034 28.099 72.3469C28.1862 72.1905 28.2513 71.8559 28.2437 71.6034C28.2362 71.351 28.2712 71.1328 28.3216 71.1185C28.3721 71.1042 28.3975 71.0364 28.3781 70.9681C28.3587 70.8997 28.4367 70.696 28.5513 70.5155C28.666 70.3349 28.742 70.1247 28.7203 70.0482C28.6987 69.9718 28.7437 69.8914 28.8205 69.8696C28.8972 69.8478 28.9726 69.8745 28.988 69.9287C29.0034 69.983 29.0505 69.9896 29.0927 69.9434C29.1349 69.8973 29.1285 69.7152 29.0785 69.5388C29.0285 69.3624 29.0319 69.2056 29.0861 69.1903C29.1402 69.1749 29.1494 69.1301 29.1065 69.0907C29.0635 69.0514 29.0635 68.9808 29.1064 68.9338C29.1492 68.8869 29.1588 68.7588 29.1277 68.649C29.0837 68.4939 29.103 68.4673 29.2145 68.5297C29.4266 68.6483 29.4874 68.6014 29.4789 68.3256C29.4747 68.1894 29.5779 67.9778 29.7082 67.8554C29.8499 67.7223 29.9242 67.5587 29.893 67.4487C29.8643 67.3475 29.8964 67.2491 29.9642 67.2298C30.1322 67.1822 30.3554 66.728 30.3859 66.3712C30.4 66.2063 30.5104 66.0041 30.6384 65.9087C30.8817 65.7274 31.2129 64.8279 31.0808 64.7069C31.0372 64.6669 31.035 64.5974 31.076 64.5525C31.1171 64.5075 31.1096 64.4159 31.0594 64.3489C30.9924 64.2592 31.0387 64.207 31.2349 64.1514C31.5408 64.0646 31.6361 63.8346 31.5873 63.3007C31.5685 63.0959 31.6141 62.8979 31.6916 62.8469C32.1674 62.5342 32.3254 62.3103 32.4315 61.7986C32.4619 61.6515 32.5447 61.4556 32.6152 61.3632C32.6858 61.2709 32.727 61.1372 32.7069 61.0661C32.6867 60.9951 32.7322 60.8601 32.8079 60.7664C32.8836 60.6725 32.977 60.4401 33.0153 60.2497C33.0536 60.0594 33.1742 59.8009 33.2831 59.6751C33.392 59.5492 33.4996 59.2918 33.5222 59.103C33.5447 58.9141 33.6181 58.744 33.6853 58.7249C33.9034 58.6631 34.2678 57.761 34.2939 57.2184C34.2986 57.1201 34.3366 57.0301 34.3784 57.0183C34.4202 57.0064 34.4571 56.9054 34.4605 56.7937C34.4639 56.6819 34.5212 56.5751 34.5878 56.5562C34.6544 56.5373 34.8604 56.1978 35.0456 55.8016C35.2307 55.4054 35.5409 54.8034 35.7347 54.4636C35.9286 54.1238 36.08 53.8204 36.0713 53.7894C36.0625 53.7585 36.1208 53.6053 36.2009 53.449C36.4828 52.8989 36.7099 52.2766 36.7442 51.9599C36.7635 51.7811 36.9137 51.4943 37.0846 51.3097C37.4457 50.9199 37.8109 50.3432 37.7266 50.296C37.6939 50.2777 37.7554 50.161 37.863 50.0367C37.9708 49.9123 38.0433 49.7552 38.0241 49.6877C38.005 49.6202 38.0661 49.5142 38.1599 49.4522C38.2537 49.3902 38.2967 49.3087 38.2555 49.2709C38.2143 49.2332 38.3178 49.0492 38.4855 48.862C38.7613 48.5543 38.9797 48.0625 38.8204 48.1076C38.7852 48.1176 38.8081 48.0208 38.8714 47.8925C38.9971 47.6378 38.8102 47.6909 41.43 47.1659C43.8756 46.6757 47.6061 45.4675 48.7946 44.7806C48.9608 44.6845 49.3193 44.5132 49.5912 44.3999C50.0998 44.1878 51.4987 43.4443 52.6589 42.7693C53.5128 42.2725 53.8796 42.1751 54.3328 42.3251C54.6888 42.443 54.8714 42.5827 55.4789 43.2014C55.6354 43.3609 55.8142 43.5059 55.8761 43.5236C55.938 43.5412 56.0945 43.689 56.2239 43.8518C56.3535 44.0148 56.6557 44.2849 56.8957 44.4523C57.293 44.7292 57.3227 44.7734 57.2271 44.9449C57.1693 45.0486 57.0729 45.1475 57.0126 45.1649C56.8786 45.2034 56.4496 45.9012 56.4844 46.024C56.4982 46.0727 56.4363 46.1336 56.3469 46.1595C56.2576 46.1854 56.0421 46.4051 55.8681 46.6477C55.6941 46.8902 55.5001 47.1034 55.4368 47.1213C55.3735 47.1393 55.2856 47.2359 55.2414 47.336C55.1972 47.436 54.9564 47.7064 54.7063 47.9368C54.4563 48.1672 54.1732 48.535 54.0773 48.7543C53.9814 48.9736 53.72 49.3015 53.4964 49.4829C53.2729 49.6644 53.0764 49.8478 53.0597 49.8906C53.0031 50.0363 52.5515 50.5569 52.459 50.5831C52.4083 50.5975 52.3483 50.6712 52.3255 50.7468C52.275 50.9147 52.1413 51.0578 51.3859 51.7521C51.0387 52.0712 50.7989 52.3704 50.8012 52.4817C50.8052 52.6743 50.2728 53.2165 50.0052 53.2923C49.9239 53.3154 49.809 53.4273 49.7499 53.5409C49.5684 53.8898 49.4299 54.0595 49.2951 54.0977C49.2241 54.1178 49.114 54.2397 49.0505 54.3684C48.987 54.4972 48.8931 54.6144 48.8418 54.6289C48.7907 54.6434 48.6391 54.8021 48.5049 54.9815C48.3707 55.1609 48.1381 55.3926 47.988 55.4965C47.838 55.6003 47.5324 55.89 47.3091 56.1402C47.0856 56.3904 46.6956 56.7296 46.4423 56.894C46.189 57.0583 45.9911 57.2261 46.0026 57.2668C46.0142 57.3075 45.9687 57.3563 45.9016 57.3754C45.8344 57.3944 45.63 57.543 45.4472 57.7056C45.2644 57.8681 45.0357 58.0236 44.9388 58.0511C44.8419 58.0785 44.7132 58.2011 44.6529 58.3235C44.5924 58.446 44.4086 58.6129 44.2442 58.6948C44.0799 58.7766 43.8459 58.9378 43.7241 59.053C43.6025 59.1681 43.4506 59.2774 43.3867 59.2959C43.3229 59.3143 43.2825 59.3714 43.297 59.4226C43.3116 59.4739 43.2671 59.5318 43.1982 59.5513C43.1293 59.5708 42.9621 59.6879 42.8267 59.8116C42.6911 59.9352 42.4467 60.0942 42.2832 60.1649C40.6766 60.8603 40.5801 60.8928 40.2401 60.8518C39.8421 60.8038 39.4967 60.5533 39.4108 60.2503C39.3777 60.1337 39.3088 60.05 39.2576 60.0645C39.2064 60.0791 39.1478 60.0319 39.1274 59.9599C39.1044 59.8786 39.1599 59.8275 39.2734 59.8252C39.4314 59.822 39.44 59.7626 39.3357 59.3946C39.2286 59.0168 39.1694 58.9497 38.8215 58.8124C38.2007 58.5673 38.1108 58.7764 38.2646 60.1079C38.3203 60.5906 38.3751 60.7498 38.5484 60.9335C38.6665 61.0587 38.7761 61.206 38.792 61.2607C38.8423 61.434 39.7133 61.9608 39.9934 61.9872C40.4194 62.0273 42.4791 61.5408 42.492 61.397C42.4979 61.3313 42.6304 61.209 42.7863 61.1252C42.9423 61.0415 43.306 60.758 43.5945 60.4952C43.8829 60.2324 44.2441 59.9513 44.3971 59.8705C44.55 59.7898 44.7079 59.6493 44.748 59.5585C44.7882 59.4676 44.9154 59.3665 45.0308 59.3337C45.1461 59.301 45.2748 59.1966 45.3167 59.1016C45.3587 59.0067 45.5368 58.8883 45.7126 58.8384C45.9331 58.7759 46.0018 58.7199 45.9342 58.6578C45.8703 58.5993 45.8901 58.5727 45.9906 58.5819C46.0813 58.5902 46.1857 58.4905 46.2433 58.3406C46.312 58.162 46.4122 58.079 46.5769 58.0646C46.7308 58.0512 46.8981 57.9293 47.0602 57.7125C47.1966 57.5301 47.4326 57.3171 47.5846 57.2392C47.7366 57.1611 47.8278 57.0669 47.7873 57.0298C47.7468 56.9927 47.8627 56.92 48.0447 56.8684C48.3155 56.7916 48.3661 56.7401 48.3222 56.5853C48.2926 56.4811 48.3349 56.351 48.4161 56.2962C48.4972 56.2413 48.679 56.1005 48.82 55.9834C48.961 55.8663 49.1175 55.7589 49.1677 55.7446C49.2181 55.7303 49.2573 55.6286 49.255 55.5185C49.2526 55.4011 49.329 55.2962 49.44 55.2647C49.5441 55.2352 49.6433 55.1618 49.6604 55.1015C49.6775 55.0413 49.7707 54.9696 49.8674 54.9422C49.9643 54.9147 50.0611 54.8273 50.0828 54.7478C50.1154 54.6285 51.3466 53.1216 51.8146 52.6283C51.8865 52.5526 52.078 52.3058 52.2404 52.0797C52.4027 51.8537 52.5647 51.6606 52.6004 51.6504C52.6362 51.6403 52.7481 51.518 52.8491 51.3786C52.9502 51.2392 53.1089 51.1036 53.2017 51.0773C53.2946 51.0509 53.3892 50.9675 53.412 50.8918C53.4682 50.7046 53.8888 50.1954 54.1442 50.0052C54.259 49.9198 54.3368 49.7932 54.3171 49.724C54.2794 49.5909 55.1302 48.3157 55.2863 48.2714C55.3367 48.2571 55.5003 48.0748 55.6499 47.8663C55.7994 47.6578 55.9773 47.4714 56.0452 47.4522C56.1132 47.4329 56.1888 47.3253 56.2132 47.213C56.2377 47.1007 56.4186 46.8655 56.6153 46.6902C56.8121 46.5149 57.0595 46.2121 57.1653 46.0172C57.2788 45.8077 57.4888 45.6014 57.6786 45.5127C57.9915 45.3664 58.0349 45.3822 59.3467 46.1171C60.6757 46.8618 62.5184 47.7457 63.123 47.9284C63.2937 47.98 63.889 48.1933 64.4457 48.4023C65.0025 48.6114 65.7481 48.8386 66.1027 48.9074C66.7021 49.0237 67.1844 49.2269 66.991 49.2818C66.9447 49.2949 66.8952 49.4448 66.8808 49.615C66.8664 49.7852 66.7883 49.9433 66.7071 49.9663C66.6259 49.9893 66.5707 50.0477 66.5844 50.0961C66.5981 50.1445 66.4833 50.3922 66.3292 50.6467C65.8374 51.459 65.5028 52.1058 65.3613 52.5178C65.2856 52.7382 65.1833 52.9832 65.1341 53.0623C64.9027 53.434 64.7216 53.8065 64.7403 53.8724C64.7516 53.9123 64.6975 54.1546 64.6201 54.4108C64.5426 54.6669 64.4938 54.9005 64.5115 54.9296C64.5292 54.9588 64.4107 55.2337 64.2482 55.5406C64.0857 55.8474 63.9838 56.1429 64.0218 56.1971C64.0597 56.2512 64.0351 56.4344 63.9671 56.6041C63.8991 56.7739 63.7714 57.1045 63.6835 57.3389C63.5956 57.5733 63.446 57.9632 63.3512 58.2054C63.2564 58.4475 63.1963 58.7072 63.2176 58.7824C63.239 58.8576 63.1751 59.0314 63.0758 59.1685C62.9765 59.3055 62.9105 59.4718 62.9293 59.5379C62.948 59.6041 62.8964 59.7853 62.8146 59.9407C62.5911 60.365 62.3501 61.0401 62.382 61.1526C62.3975 61.2073 62.3683 61.2639 62.3171 61.2784C62.266 61.2929 62.2398 61.3601 62.259 61.4277C62.2782 61.4954 62.2082 61.7272 62.1035 61.943C61.9989 62.1587 61.9274 62.3854 61.9449 62.4468C61.9622 62.5081 61.9278 62.6295 61.8682 62.7163C61.8087 62.8032 61.8009 62.9363 61.851 63.0122C61.9062 63.0959 61.8698 63.2451 61.758 63.3921C61.6337 63.5559 61.6077 63.6848 61.6775 63.7907C61.7343 63.8768 61.7367 63.9598 61.6828 63.9751C61.471 64.0351 61.3325 64.8357 61.432 65.4252L61.5325 66.0207L61.919 66.0673C62.1317 66.093 62.3374 66.105 62.3762 66.094C62.5248 66.0518 62.8576 65.3035 62.7762 65.1946C62.7279 65.13 62.7563 65.0408 62.8413 64.9898C63.003 64.8928 63.3003 64.2122 63.2396 64.0781C63.2194 64.0336 63.2615 63.8446 63.3332 63.6581C63.4048 63.4717 63.4691 63.2431 63.4762 63.1501C63.4832 63.0571 63.6088 62.6745 63.7555 62.3001C63.9021 61.9256 64.0019 61.5485 63.9773 61.4618C63.9528 61.3753 63.9857 61.1555 64.0504 60.9737C64.1202 60.7774 64.1255 60.5705 64.0634 60.4651C63.9888 60.3383 64.0066 60.2591 64.1255 60.1891C64.2172 60.135 64.2698 60.0119 64.2424 59.9153C64.2151 59.8189 64.2526 59.6323 64.3259 59.5007C64.4005 59.3668 64.4239 59.1374 64.379 58.9792C64.3342 58.821 64.3507 58.6578 64.4166 58.6084C64.4814 58.5599 64.5825 58.2531 64.6412 57.9266C64.7 57.6002 64.8362 57.1459 64.9441 56.9172C65.0519 56.6885 65.2118 56.2809 65.2995 56.0114C65.3874 55.7419 65.5834 55.2672 65.7355 54.9565C65.8874 54.6459 65.9661 54.4047 65.9102 54.4205C65.8543 54.4364 65.797 54.4087 65.7829 54.3591C65.7688 54.3095 65.8153 54.2737 65.886 54.2796C66.0249 54.2911 66.1344 53.8265 66.057 53.5535C66.0308 53.4611 66.0542 53.373 66.1088 53.3575C66.248 53.318 66.7809 52.2915 66.936 51.7639C67.0071 51.5222 67.119 51.2573 67.1849 51.1752C67.2507 51.093 67.3459 50.8062 67.3965 50.5376C67.4988 49.9947 67.8214 49.3483 68.0177 49.2927C68.0881 49.2727 68.6382 49.2712 69.2403 49.2892C70.8334 49.337 71.1774 49.2973 72.676 48.8932C74.0451 48.5242 74.8817 48.2191 75.1811 47.9797C75.2712 47.9078 75.5128 47.7379 75.7181 47.6024C75.9233 47.4669 76.1133 47.2596 76.1403 47.1418C76.1673 47.0241 76.2343 46.8065 76.2889 46.6583C76.4284 46.2806 76.3848 46.2156 76.0549 46.3092C75.8427 46.3693 75.7682 46.4448 75.7714 46.5966C75.7738 46.7131 75.7173 46.7971 75.641 46.7901C75.5061 46.7779 74.8168 47.248 74.7624 47.3895C74.7465 47.4308 73.9779 47.6711 73.0544 47.9234C71.4811 48.3532 71.3006 48.3828 70.1904 48.3941C69.5388 48.4008 68.8598 48.3764 68.6816 48.34L68.3576 48.2737L68.5283 47.9512C68.6223 47.7738 68.6859 47.5819 68.6697 47.5249C68.6535 47.4678 68.7582 47.1991 68.9024 46.9277C69.0466 46.6563 69.1541 46.3973 69.1413 46.3522C69.1285 46.3072 69.2408 45.9853 69.3907 45.6368C69.5407 45.2883 69.6567 44.9794 69.6484 44.9503C69.6401 44.9212 69.7208 44.7278 69.8276 44.5206C69.9345 44.3133 70.008 44.0941 69.991 44.0334C69.9741 43.9728 70.0364 43.8727 70.1295 43.8112C70.2226 43.7497 70.2909 43.6706 70.2813 43.6356C70.2715 43.6005 70.3525 43.3992 70.4612 43.1884C70.57 42.9775 70.6668 42.6696 70.6765 42.5043C70.6891 42.2906 70.7416 42.2079 70.858 42.2185C70.9613 42.2279 70.9878 42.2023 70.9299 42.1492C70.8793 42.1029 70.9421 41.8317 71.0691 41.5465C71.1963 41.2613 71.3611 40.8433 71.4353 40.6176C71.5094 40.3918 71.7045 39.963 71.8686 39.6646C72.0328 39.3662 72.144 39.0862 72.1157 39.0422C72.0719 38.9741 72.2108 38.648 72.7404 37.5758C72.7908 37.4738 72.8242 37.363 72.8148 37.3296C72.7874 37.2331 73.4662 35.667 73.5451 35.6446C73.5841 35.6335 73.613 35.523 73.6092 35.3989C73.6054 35.2749 73.7082 35.0619 73.8377 34.9257C73.9672 34.7895 74.0621 34.6389 74.0485 34.5909C74.0349 34.5429 74.0781 34.386 74.1445 34.2422C74.2109 34.0983 74.323 33.8554 74.3935 33.7024C74.464 33.5493 74.513 33.3934 74.5024 33.3561C74.4918 33.3186 74.5565 33.2447 74.6462 33.1919C74.7406 33.1362 74.8018 32.9714 74.7915 32.8004C74.7817 32.638 74.8415 32.3934 74.9244 32.257C75.1804 31.8359 75.3636 31.4304 75.3383 31.3413C75.3069 31.2305 75.7324 30.4943 75.8473 30.4607C75.9381 30.4342 76.0463 29.9446 76.0003 29.7689C75.986 29.7148 76.2029 29.2035 76.4822 28.6327C76.7614 28.0619 76.9806 27.5622 76.9693 27.5223C76.958 27.4822 77.0714 27.1644 77.2214 26.816C77.3714 26.4677 77.4802 26.1337 77.4632 26.0739C77.4463 26.0141 77.5835 25.7005 77.7682 25.3771C77.9943 24.9812 78.0824 24.7127 78.0379 24.5556C78.0015 24.4272 78.0136 24.3103 78.0647 24.2958C78.1159 24.2813 78.1414 24.2116 78.1213 24.141C78.1013 24.0704 78.133 23.9427 78.1916 23.8571C78.2503 23.7715 78.2688 23.5974 78.2327 23.4701C78.1966 23.3428 78.2364 23.0845 78.3212 22.896C78.505 22.4869 78.3807 21.8919 78.0841 21.7605C77.7888 21.6299 76.9919 21.906 76.603 22.2738C76.4189 22.4479 76.2174 22.6049 76.155 22.6228C76.0927 22.6407 75.889 22.8345 75.7023 23.0535C75.5156 23.2724 75.1946 23.5761 74.989 23.7283C74.7834 23.8805 74.6008 24.0341 74.5832 24.0696C74.5536 24.1294 73.8568 24.7619 73.3841 25.1579C73.2725 25.2515 73.1472 25.417 73.1057 25.5256C73.0644 25.6342 72.9547 25.7446 72.862 25.7709C72.6938 25.8186 71.8436 26.7672 71.4596 27.3353C71.3481 27.5004 71.2165 27.6469 71.1672 27.6608C71.1179 27.6748 70.9858 27.7949 70.8737 27.9278C70.1264 28.8133 69.9035 29.0909 69.7856 29.2828C69.7122 29.4022 69.6149 29.5104 69.5693 29.5233C69.5236 29.5363 69.3072 29.7562 69.0882 30.0121C68.8693 30.268 68.6487 30.4891 68.5979 30.5035C68.5472 30.5179 68.4527 30.6368 68.3881 30.7678C68.3234 30.8989 68.217 31.0013 68.1517 30.9953C68.0864 30.9894 67.967 31.1349 67.8864 31.3186C67.8057 31.5025 67.6918 31.6664 67.6332 31.6831C67.5746 31.6997 67.4878 31.8376 67.4403 31.9895C67.3928 32.1413 67.2875 32.2844 67.2064 32.3074C67.0722 32.3455 66.9846 32.4588 66.5863 33.1083C66.5162 33.2228 66.3247 33.4486 66.1608 33.61C65.997 33.7715 65.7304 34.0741 65.5683 34.2823C65.3615 34.5479 65.163 34.6934 64.9025 34.7698C64.5472 34.8741 64.5273 34.9024 64.4374 35.4336C64.3787 35.7801 64.2573 36.0695 64.1141 36.2044C63.988 36.3232 63.8066 36.5445 63.7111 36.6962C63.6157 36.8479 63.5037 36.9815 63.4623 36.9933C63.3543 37.0239 63.043 37.6056 63.0747 37.7175C63.0894 37.7693 62.9367 37.9485 62.7353 38.1158C62.534 38.2831 62.3856 38.4776 62.4056 38.5482C62.4256 38.6186 62.1692 38.9155 61.8359 39.208C61.5026 39.5004 61.2239 39.8054 61.2166 39.8858C61.2094 39.9662 60.9756 40.2694 60.6971 40.5598C60.4186 40.8501 60.1212 41.2021 60.036 41.342C59.9509 41.4819 59.7665 41.6874 59.6261 41.7985C59.4856 41.9096 59.3681 42.0878 59.3649 42.1945C59.3615 42.3011 59.2273 42.5107 59.0663 42.6603C58.9055 42.8098 58.7192 43.0431 58.6523 43.1787C58.5854 43.3143 58.4795 43.4397 58.4169 43.4575C58.3544 43.4752 58.269 43.5674 58.2271 43.6623C58.0474 44.0695 57.6703 43.9925 56.7593 43.3629C56.2596 43.0174 55.034 41.7126 55.0493 41.5424C55.0555 41.4737 55.1893 41.3515 55.3466 41.2708C55.504 41.1901 55.8234 40.9572 56.0566 40.7531C56.2897 40.5492 56.5459 40.3637 56.6258 40.3411C56.7057 40.3184 56.7592 40.2579 56.7447 40.2067C56.7302 40.1554 56.7626 40.1009 56.8166 40.0856C56.9669 40.043 59.4816 37.7272 59.6415 37.4842C59.7618 37.3013 60.1189 36.8731 60.5871 36.3502C60.6546 36.2749 60.8496 36.049 61.0207 35.8482C61.1917 35.6474 61.3969 35.4647 61.4767 35.4421C61.5564 35.4195 61.7384 35.1867 61.8808 34.9248C62.0233 34.6629 62.1786 34.4377 62.2258 34.4243C62.273 34.4109 62.3097 34.3066 62.3073 34.1924C62.3049 34.0782 62.3834 33.9374 62.4816 33.8795C62.5799 33.8216 62.6474 33.7266 62.6317 33.6682C62.6132 33.5995 62.6365 33.5885 62.6983 33.6373C62.7506 33.6785 62.9236 33.7201 63.0827 33.7296C63.2417 33.7392 63.4771 33.8517 63.6059 33.9797C63.9306 34.3026 64.1289 34.4116 64.2168 34.3154C64.3071 34.2165 64.1196 33.8124 63.7206 33.2454C63.1903 32.4922 63.1305 32.3073 63.3222 32.0136C63.4164 31.869 63.4757 31.6875 63.4539 31.6103C63.432 31.5331 63.4584 31.4573 63.5126 31.442C63.5667 31.4266 63.5778 31.3836 63.5372 31.3464C63.4966 31.3092 63.5119 31.0533 63.5711 30.7777C63.6304 30.5022 63.6644 30.226 63.6468 30.164C63.6293 30.102 63.7044 29.9358 63.8138 29.7948C64.0243 29.5235 64.5755 28.6969 64.9396 28.1071C65.0594 27.9129 65.1956 27.7432 65.2423 27.7299C65.2889 27.7167 65.3943 27.576 65.4763 27.4173C65.5584 27.2586 65.7109 27.0907 65.8152 27.0443C65.9415 26.9883 66.0061 26.8501 66.0082 26.6319C66.0099 26.4514 66.0428 26.2949 66.0813 26.284C66.1198 26.2731 66.2753 26.0592 66.4267 25.8085C66.5781 25.558 66.9577 24.986 67.2701 24.5375C67.5825 24.089 67.8297 23.6791 67.8193 23.6267C67.8089 23.5743 67.8779 23.4006 67.9725 23.2408C68.083 23.0541 68.1033 22.9273 68.0292 22.8858C67.9552 22.8444 67.8584 22.9132 67.7585 23.0785C67.673 23.22 67.5701 23.345 67.5298 23.3564C67.4895 23.3679 67.3648 23.5618 67.2528 23.7873C67.1406 24.0129 67.0206 24.2055 66.986 24.2154C66.9251 24.2326 66.6329 24.6849 65.8114 26.0333C65.5972 26.3847 65.3872 26.6821 65.3444 26.6943C65.3017 26.7064 65.1318 26.9584 64.967 27.2543C64.8021 27.5502 64.6268 27.8038 64.5775 27.8178C64.5282 27.8317 64.3088 28.0802 64.0899 28.3699C63.5997 29.0187 63.3644 29.0588 62.894 28.5737C62.2204 27.8791 60.641 27.5237 59.072 27.7137C57.7426 27.8746 55.2432 28.726 54.9806 29.1072C54.9314 29.1788 54.7424 29.3113 54.5606 29.4016C54.379 29.4919 54.2385 29.5948 54.2485 29.63C54.2585 29.6653 54.1213 29.7354 53.9436 29.7858C53.7335 29.8454 53.5615 29.976 53.4516 30.1596C53.3585 30.3149 53.2138 30.4354 53.1293 30.4276C53.0449 30.42 52.8955 30.5246 52.7973 30.6601C52.6991 30.7955 52.5572 30.9239 52.482 30.9452C52.4067 30.9665 52.3094 31.0651 52.2657 31.1642C52.2219 31.2633 52.0842 31.4401 51.9595 31.5573C51.8349 31.6744 51.7651 31.7997 51.8045 31.8358C51.8437 31.8718 51.8246 31.9398 51.7619 31.9869C51.6986 32.0343 51.6672 32.4099 51.6914 32.8295C51.731 33.5144 51.692 34.3795 51.6011 34.8296C51.5595 35.0356 51.6564 35.9075 51.7391 36.0711C51.7715 36.1352 51.7692 36.253 51.7341 36.3327C51.6475 36.5289 52.1079 38.4942 52.266 38.6029C52.3335 38.6494 52.4211 38.811 52.4607 38.9619C52.5002 39.1129 52.5939 39.3419 52.6688 39.4708C52.7647 39.6357 52.7724 39.7639 52.6948 39.9033C52.634 40.0123 52.5568 40.086 52.5231 40.0672C52.4895 40.0484 52.2615 40.1542 52.0167 40.3024C51.7717 40.4505 51.4718 40.6192 51.3501 40.6773C51.2283 40.7354 50.8899 40.8977 50.598 41.0381C48.903 41.8534 46.2076 42.1808 44.8211 41.7398C44.6057 41.6712 44.1596 41.5407 43.8297 41.4496C42.8181 41.1704 42.7971 41.1535 43.0197 40.8041C43.1245 40.6398 43.286 40.414 43.3788 40.3025C43.4716 40.191 43.533 40.0486 43.5153 39.9862C43.4811 39.8655 44.0954 38.7852 44.5219 38.2159C44.6627 38.028 44.855 37.6693 44.9493 37.4188C45.0436 37.1683 45.1831 36.9439 45.2592 36.92C45.3354 36.8962 45.5081 36.675 45.643 36.4285C45.778 36.182 46.0949 35.6739 46.3473 35.2993C46.5998 34.9246 46.7967 34.5752 46.7849 34.5227C46.7639 34.4282 47.4053 33.3761 47.7082 33.0083C48.0368 32.6093 49.0244 31.1718 49.2934 30.7008C49.761 29.8823 49.9755 29.5566 50.4925 28.8796C50.7646 28.5231 51.1092 28.0081 51.2581 27.7352C51.4069 27.4621 51.6233 27.1085 51.7388 26.9492C52.1321 26.4072 52.6158 25.7233 52.9161 25.285C53.0808 25.0445 53.2737 24.7904 53.3446 24.7205C53.4156 24.6504 53.6134 24.3642 53.7843 24.0844C53.955 23.8046 54.1966 23.4603 54.3211 23.3192C54.7519 22.8309 55.2118 22.2095 55.4821 21.7507C55.6314 21.4974 55.8427 21.2058 55.9517 21.1029C56.0607 21 56.1671 20.8505 56.1881 20.7706C56.2091 20.6908 56.3913 20.4563 56.5931 20.2494C56.7949 20.0426 57.0918 19.6743 57.253 19.4311C57.4142 19.1879 57.7734 18.6998 58.0511 18.3464C58.3288 17.9929 58.6031 17.6303 58.6606 17.5406C58.718 17.4508 58.9364 17.1841 59.1458 16.9478C59.5563 16.4848 59.5654 16.4736 59.8895 16.0258C60.128 15.6963 60.9748 14.6523 61.1797 14.4351C61.2509 14.3595 61.4665 14.1058 61.6588 13.8714C61.851 13.637 62.0711 13.4273 62.1478 13.4056C62.2244 13.3838 62.4335 13.1162 62.6122 12.8108C62.7911 12.5054 63.0869 12.1416 63.2696 12.0023C63.4525 11.8631 63.6198 11.6843 63.6415 11.6049C63.6632 11.5257 63.7207 11.4495 63.7694 11.4357C63.818 11.4219 63.9158 11.3149 63.9865 11.1979C64.2492 10.7642 64.4601 10.5351 64.6453 10.4824C64.7499 10.4525 64.9465 10.261 65.0821 10.0568C65.2177 9.85251 65.3584 9.67106 65.395 9.65364C65.4315 9.63623 65.5051 9.60399 65.5586 9.58186C65.6121 9.55977 65.6886 9.45311 65.7287 9.34489C65.7687 9.23659 65.8491 9.13456 65.9075 9.11802C65.9658 9.10148 66.0018 9.04657 65.9875 8.99598C65.9731 8.94547 66.0792 8.80142 66.2234 8.67589C66.3675 8.55036 66.689 8.23208 66.9381 7.96846C67.1872 7.70496 67.4413 7.47504 67.503 7.45755C67.5647 7.44007 67.6759 7.32517 67.7502 7.20222C67.8246 7.07925 68.0629 6.81286 68.2798 6.61021C69.0888 5.8545 69.321 5.6431 69.7146 5.30296C69.9366 5.11115 70.1233 4.91879 70.1295 4.87557C70.1357 4.83232 70.1795 4.78587 70.227 4.77242C70.3114 4.74847 70.9501 4.23909 71.2223 3.97859C71.2978 3.90634 71.423 3.82926 71.5004 3.80732C71.5779 3.78535 71.6294 3.72545 71.6148 3.6742C71.6003 3.62295 71.6696 3.55799 71.769 3.52982C71.8683 3.50165 71.9635 3.42936 71.9806 3.36914C71.9977 3.30892 72.0918 3.23694 72.1897 3.20919C72.2874 3.18147 72.5781 2.97985 72.8356 2.76119C73.2914 2.37391 73.4859 2.25596 74.4869 1.7593C75.0767 1.46665 75.6253 1.39094 75.9016 1.56409C76.0811 1.67658 76.1375 1.8285 76.327 2.70993C76.4472 3.26883 76.5131 3.79973 76.4734 3.88971C76.4337 3.9797 76.4306 4.16402 76.4664 4.29932C76.5733 4.70173 76.4352 5.48093 76.07 6.53685C75.9409 6.91019 75.8513 7.27207 75.8708 7.34103C75.8904 7.40998 75.8584 7.53644 75.7997 7.62203C75.7411 7.70762 75.709 7.8337 75.7284 7.90229C75.7479 7.97096 75.6964 8.13858 75.614 8.2748C75.5317 8.41099 75.4978 8.51302 75.5387 8.50144C75.5796 8.48983 75.5369 8.58861 75.444 8.72096C75.351 8.85335 75.3113 8.982 75.3558 9.00703C75.4002 9.03198 75.5001 8.91698 75.5778 8.7514C75.6555 8.58581 75.7788 8.43336 75.8517 8.41268C75.9247 8.39197 75.9475 8.32561 75.9024 8.26522C75.8572 8.20484 75.8857 8.0831 75.9657 7.99478C76.0457 7.90636 76.0874 7.75056 76.0585 7.64852C76.0296 7.54639 76.0456 7.45164 76.0941 7.4379C76.2459 7.39485 76.5343 6.84505 76.4889 6.68515C76.4652 6.60138 76.477 6.52363 76.5153 6.51236C76.5536 6.5011 76.6435 6.31586 76.715 6.10058C76.8247 5.77037 76.8185 5.67799 76.6749 5.5086C76.5814 5.3983 76.5395 5.29812 76.582 5.28606C76.7136 5.24877 77.077 4.56404 77.1462 4.22317C77.1823 4.0451 77.2465 3.88959 77.2888 3.87759C77.423 3.83955 76.9849 1.64785 76.7395 1.12958C76.3322 0.269128 75.5291 0.104415 74.3742 0.644587ZM74.6384 10.6947C74.4967 11.048 74.5039 11.1334 74.6624 10.9802C74.7472 10.8984 74.852 10.7509 74.8955 10.6525C74.9609 10.5042 74.9505 10.4803 74.8349 10.5131C74.7581 10.5349 74.6697 10.6166 74.6384 10.6947ZM72.6667 14.6514C72.6274 14.79 72.7506 14.7551 72.8993 14.5855C72.9975 14.4736 72.9914 14.4616 72.8555 14.4987C72.7688 14.5225 72.6838 14.5912 72.6667 14.6514ZM72.4886 15.0615C72.3141 15.3748 72.4297 15.4759 72.6128 15.1701C72.7065 15.0134 72.7794 14.8717 72.7747 14.855C72.7513 14.7723 72.5813 14.895 72.4886 15.0615ZM72.1508 15.7582C72.0633 15.8658 71.9402 16.1148 71.8774 16.3116L71.7631 16.6694L71.927 16.3461C72.0172 16.1683 72.117 16.0154 72.1486 16.0064C72.2365 15.9815 72.4196 15.6239 72.3612 15.5913C72.333 15.5755 72.2383 15.6507 72.1508 15.7582ZM69.8505 19.7848C69.8659 19.8391 69.913 19.8458 69.9552 19.7996C69.9974 19.7534 70.0267 19.6971 70.0202 19.6745C70.0138 19.6519 69.9667 19.6453 69.9156 19.6598C69.8644 19.6743 69.8351 19.7306 69.8505 19.7848ZM69.4779 20.2814C69.3465 20.4737 69.3425 20.521 69.4603 20.4903C69.6206 20.4483 69.81 20.1234 69.7075 20.0662C69.6747 20.0477 69.5713 20.1446 69.4779 20.2814ZM68.9101 21.2536C68.893 21.3139 68.9209 21.3512 68.972 21.3367C69.0232 21.3222 69.079 21.2611 69.0961 21.2009C69.1132 21.1407 69.0853 21.1033 69.0342 21.1178C68.983 21.1323 68.9272 21.1934 68.9101 21.2536ZM68.7102 21.6123C68.6931 21.6725 68.721 21.7099 68.7722 21.6954C68.8234 21.6809 68.8792 21.6198 68.8963 21.5596C68.9134 21.4993 68.8855 21.4619 68.8343 21.4765C68.7832 21.491 68.7273 21.5521 68.7102 21.6123ZM68.5585 21.9633C68.5738 22.0175 68.621 22.0242 68.6631 21.978C68.7053 21.9318 68.7346 21.8756 68.7282 21.853C68.7218 21.8303 68.6747 21.8237 68.6235 21.8382C68.5723 21.8528 68.5431 21.9091 68.5585 21.9633ZM58.6436 28.6472C59.4375 28.5276 60.9145 28.632 61.4938 28.8489C62.1136 29.0808 62.3429 29.3364 62.4387 29.9022C62.476 30.123 62.5641 30.336 62.6344 30.3752C62.7251 30.4259 62.7143 30.4602 62.5973 30.4934C62.5066 30.5191 62.3875 30.6208 62.3326 30.7194C62.1341 31.0756 61.3629 31.0609 60.9568 30.6931C60.2993 30.0974 56.5548 30.297 54.7443 31.0242C54.6698 31.0541 54.3664 31.1402 54.0698 31.2156C53.6753 31.3158 53.5207 31.3173 53.4935 31.2211C53.4486 31.0628 54.01 30.5582 54.4845 30.3303C54.6729 30.2398 54.885 30.1104 54.9558 30.0427C55.2768 29.7357 57.3483 28.8468 57.9691 28.7498C58.075 28.7333 58.3785 28.6871 58.6436 28.6472ZM76.9356 23.5714C77.0819 23.7176 76.9861 24.2169 76.5596 25.5294C76.4106 25.9877 76.2657 26.4411 76.2376 26.5368C76.0367 27.221 75.8807 27.6332 75.8156 27.6517C75.7737 27.6635 75.7124 27.8042 75.6794 27.9643C75.6463 28.1244 75.5175 28.4148 75.3931 28.6097C75.2686 28.8045 75.1821 29.0176 75.2007 29.0833C75.2342 29.2016 74.7185 30.4983 74.5981 30.5981C74.4292 30.7385 74.3607 31.0012 74.4525 31.1572C74.52 31.2721 74.5095 31.3442 74.4216 31.3691C74.2854 31.4077 73.8681 32.1823 73.9079 32.3226C73.92 32.3652 73.8486 32.5122 73.7492 32.6492C73.6499 32.7863 73.5771 32.9285 73.5876 32.9654C73.6066 33.0323 73.4531 33.4186 73.0744 34.2572C72.964 34.5016 72.8858 34.7442 72.9005 34.7961C72.9153 34.8481 72.8489 34.981 72.7532 35.0915C72.6574 35.2021 72.5521 35.4753 72.5191 35.6986C72.4861 35.9219 72.3554 36.211 72.2287 36.3409C72.102 36.4709 72.0203 36.6547 72.0472 36.7495C72.0741 36.8442 71.9475 37.1952 71.7658 37.5294C71.5842 37.8637 71.4476 38.1795 71.4622 38.2312C71.4769 38.283 71.3816 38.5054 71.2505 38.7253C71.1194 38.9453 71.0286 39.1834 71.0488 39.2544C71.0689 39.3254 71.0041 39.4957 70.9048 39.6328C70.8054 39.7698 70.7359 39.9233 70.7502 39.9738C70.7786 40.0739 70.461 40.906 70.2812 41.2023C70.2197 41.3037 70.1774 41.4743 70.1871 41.5815C70.1968 41.6887 70.1289 41.8393 70.0361 41.9161C69.9433 41.993 69.8498 42.1809 69.8283 42.3337C69.7924 42.5891 69.6712 42.8614 69.437 43.2129C69.2631 43.474 69.067 43.9634 69.0958 44.0646C69.1116 44.1207 69.0402 44.3104 68.9371 44.4864C68.7716 44.7692 68.6838 44.9857 68.48 45.6152C68.4506 45.7062 68.3691 45.8975 68.299 46.0403C67.8391 46.9767 67.5435 47.6647 67.5288 47.8323C67.5194 47.9392 67.4258 48.051 67.3207 48.0809C67.0897 48.1464 65.4427 47.8418 65.4103 47.7275C65.3977 47.6831 65.2355 47.6294 65.0498 47.6083C64.3415 47.5279 61.5686 46.4138 59.9325 45.5522C59.1802 45.156 58.5154 44.6794 58.4645 44.4997C58.4468 44.4374 58.5658 44.2241 58.729 44.0256C58.8921 43.827 59.0282 43.5897 59.0315 43.4983C59.0377 43.324 59.2897 43.0275 59.911 42.4631C60.1149 42.2779 60.2878 42.0581 60.2953 41.9746C60.3028 41.8911 60.4484 41.6931 60.6189 41.5348C60.7893 41.3764 60.9683 41.1204 61.0166 40.966C61.0649 40.8116 61.1974 40.6316 61.3111 40.5661C61.4248 40.5007 61.5164 40.372 61.5145 40.2803C61.5127 40.1886 61.6153 40.017 61.7425 39.8988C61.8698 39.7806 62.0652 39.5277 62.1769 39.3368C62.2886 39.1458 62.4996 38.8531 62.6458 38.6864C62.792 38.5197 63.0234 38.1942 63.16 37.9633C63.468 37.4426 64.1071 37.0167 64.4368 37.1125C64.6269 37.1677 64.6759 37.1389 64.7921 36.9024C64.8663 36.7517 64.953 36.485 64.9849 36.3099C65.0734 35.8252 65.3795 35.3351 66.0927 34.5363C66.4493 34.1369 66.8686 33.6218 67.0245 33.3917C67.436 32.7842 67.4747 32.7347 67.5571 32.7114C67.5981 32.6997 67.7227 32.5406 67.8338 32.3577C67.945 32.1747 68.2009 31.8824 68.4024 31.708C68.6041 31.5336 68.9038 31.1988 69.0687 30.9638C69.2335 30.7289 69.5166 30.3714 69.6977 30.1692C69.8789 29.9671 70.0957 29.7246 70.1795 29.6304C70.2633 29.5362 70.4992 29.2479 70.7036 28.9897C70.9081 28.7316 71.1698 28.4584 71.2853 28.3826C71.4009 28.3069 71.573 28.1385 71.668 28.0083C71.763 27.8783 71.8747 27.7623 71.9165 27.7504C71.9582 27.7386 72.1393 27.5545 72.3188 27.3413C72.4985 27.128 72.7027 26.923 72.7727 26.8854C72.8425 26.848 72.9337 26.7283 72.9751 26.6197C73.0165 26.5111 73.1476 26.3946 73.2663 26.361C73.3851 26.3273 73.5165 26.2221 73.5584 26.1271C73.6004 26.0322 73.7202 25.9302 73.8248 25.9006C73.9294 25.871 73.981 25.8276 73.9393 25.8044C73.8548 25.7571 74.6731 24.9554 74.8601 24.9024C74.9258 24.8837 75.0316 24.7631 75.0951 24.6344C75.1586 24.5056 75.277 24.3794 75.3579 24.3542C75.4389 24.3288 75.6442 24.1604 75.8142 23.9801C76.1809 23.5909 76.7483 23.3842 76.9356 23.5714ZM57.6334 31.1109C59.2663 30.9597 60.2154 31.0648 60.9799 31.4814C61.5413 31.7872 61.6129 31.8799 61.3464 31.9554C61.2471 31.9836 61.1529 32.0521 61.1372 32.1077C61.1214 32.1633 60.9911 32.2718 60.8478 32.3488C60.7044 32.4258 60.597 32.5235 60.609 32.566C60.6416 32.6811 59.7323 33.9043 59.4268 34.1562C59.2811 34.2763 59.0604 34.4277 58.9364 34.4926C58.8123 34.5574 58.6178 34.7692 58.5039 34.9631C58.39 35.157 58.1741 35.3816 58.024 35.4622C57.8739 35.5427 57.7322 35.6958 57.709 35.8021C57.6858 35.9085 57.5247 36.0663 57.3509 36.1528C57.1773 36.2393 56.9164 36.4998 56.7715 36.7316C56.6265 36.9633 56.4774 37.1616 56.4402 37.1721C56.4029 37.1827 56.2578 37.2898 56.1177 37.41C55.7407 37.7338 55.1295 38.1447 54.9442 38.1988C54.8549 38.2249 54.7937 38.2883 54.8082 38.3396C54.8227 38.3908 54.7494 38.4569 54.6453 38.4864C54.5411 38.516 54.3781 38.6299 54.283 38.7397C54.1772 38.862 53.9471 38.9739 53.69 39.0285L53.2699 39.1176L53.0404 38.3825C52.9143 37.9782 52.7696 37.5232 52.7192 37.3714C52.601 37.0165 52.4136 36.031 52.443 35.9188C52.4554 35.8714 52.4547 35.6771 52.4413 35.4871C52.4279 35.297 52.4375 35.0905 52.4626 35.028C52.4877 34.9655 52.475 34.7995 52.4344 34.659C52.3282 34.2921 52.5539 33.3352 52.838 32.9474C53.0669 32.635 53.4102 32.4237 54.5392 31.9C55.1191 31.6311 56.8882 31.1799 57.6334 31.1109ZM21.5608 43.7333C21.5745 43.7816 21.6349 43.835 21.695 43.8522C21.7552 43.8694 21.7858 43.818 21.7632 43.7381C21.7406 43.6583 21.6801 43.6047 21.629 43.6192C21.5778 43.6337 21.5471 43.685 21.5608 43.7333ZM61.7202 33.2109C61.738 33.4576 61.6931 33.63 61.599 33.6774C61.5169 33.7188 61.2738 34.0599 61.0588 34.4353C60.5391 35.3425 60.4466 35.4626 59.9931 35.8193C59.7803 35.9865 59.6036 36.1986 59.6006 36.2904C59.5975 36.3821 59.5301 36.5027 59.451 36.5583C59.3719 36.6139 59.1335 36.8449 58.9214 37.0717C58.7093 37.2985 58.4156 37.5932 58.2687 37.7267C58.1218 37.86 57.996 38.0316 57.9891 38.108C57.9823 38.1842 57.8906 38.271 57.7855 38.3008C57.5637 38.3637 56.8995 39.0241 56.8422 39.2387C56.8207 39.319 56.7255 39.4067 56.6305 39.4337C56.5354 39.4606 56.2082 39.6946 55.9034 39.9538C55.484 40.3103 55.2176 40.4619 54.8081 40.5769C54.5105 40.6604 54.2411 40.7144 54.2096 40.6967C54.178 40.6791 54.0909 40.5292 54.0159 40.3636C53.8821 40.0679 53.8887 40.0551 54.3928 39.6391C54.6749 39.406 54.9372 39.2071 54.9756 39.1969C55.014 39.1867 55.2756 38.9772 55.5569 38.7313C55.8382 38.4855 56.0939 38.277 56.125 38.2682C56.1561 38.2594 56.3039 38.1063 56.4533 37.928C56.6028 37.7496 57.1625 37.204 57.6971 36.7155C58.2317 36.2269 58.7602 35.724 58.8716 35.5977C58.9829 35.4715 59.2399 35.1895 59.4426 34.9708C59.6454 34.7522 59.9573 34.3781 60.1356 34.1395C60.3139 33.9008 60.5985 33.5669 60.768 33.3973C60.9375 33.2278 61.1878 32.9781 61.3242 32.8423C61.6146 32.553 61.6772 32.6112 61.7202 33.2109ZM43.4727 42.2525C43.9701 42.3852 44.623 42.5634 44.9235 42.6486C46.0972 42.981 48.0892 42.8174 49.7365 42.2534C50.3411 42.0463 50.9911 41.7863 51.1808 41.6756C51.3705 41.5648 51.8145 41.3207 52.1674 41.1331L52.809 40.792L53.1708 40.9944C53.3698 41.1057 53.518 41.2479 53.5004 41.3104C53.4826 41.3729 53.2418 41.5404 52.9652 41.6827C51.7453 42.3102 51.2272 42.5988 51.0688 42.7396C50.9753 42.8225 50.7397 42.9486 50.5452 43.0198C50.3507 43.091 49.8558 43.3212 49.4455 43.5315C49.0353 43.7418 48.5005 44.0093 48.2572 44.126C48.0139 44.2426 47.6804 44.4223 47.516 44.5252C47.3517 44.6281 47.0702 44.7519 46.8905 44.8004C46.7107 44.8487 45.9857 45.0831 45.2792 45.3212C42.553 46.2396 38.9389 46.7873 39.9307 46.1317C40.0238 46.0702 40.0833 45.961 40.0629 45.889C40.0425 45.8172 40.1659 45.6154 40.337 45.4406C40.5082 45.2659 40.6347 45.074 40.6182 45.0142C40.6017 44.9544 40.7535 44.6115 40.9557 44.2521C41.1578 43.8927 41.3152 43.5704 41.3054 43.536C41.2716 43.4167 41.4332 43.1102 41.8861 42.4345C42.1622 42.0223 42.4753 41.9864 43.4727 42.2525ZM73.8715 59.3355C73.8052 59.4793 73.7749 59.7261 73.8041 59.8839C73.8474 60.1173 73.9264 60.1936 74.2277 60.2924C74.6242 60.4225 74.882 60.3954 74.9322 60.2185C74.9493 60.1582 75.0415 60.0868 75.1373 60.0596C75.2329 60.0325 75.3558 59.9301 75.4105 59.8321C75.4849 59.6984 75.5277 59.68 75.5809 59.7584C75.6678 59.886 76.2412 59.3726 76.2639 59.1468C76.2932 58.8566 75.6778 58.749 75.0211 58.9296C74.6867 59.0215 74.3184 59.0916 74.2026 59.0854C74.0512 59.0771 73.9582 59.1475 73.8715 59.3355Z" fill="url(#paint0_linear_461_26)"/>
<line x1="15" y1="45.75" x2="82" y2="45.75" stroke="#FF0101" stroke-width="0.5"/>
<defs>
<linearGradient id="paint0_linear_461_26" x1="38.3027" y1="10.8157" x2="58.4582" y2="81.9032" gradientUnits="userSpaceOnUse">
<stop stop-color="white"/>
<stop offset="1" stop-color="#C4C4C4"/>
</linearGradient>
</defs>
</svg>
