<?xml version="1.0" encoding="utf-8"?><svg viewBox="0 0 502.66 502.66" xmlns="http://www.w3.org/2000/svg" xmlns:xlink="http://www.w3.org/1999/xlink"><style>:root>svg{display:none}:root>svg:target{display:block}</style><svg fill="none" viewBox="0 0 8 17" id="arrow-up" xmlns="http://www.w3.org/2000/svg"><path d="M4.354.646a.5.5 0 00-.708 0L.464 3.828a.5.5 0 10.708.708L4 1.707l2.828 2.829a.5.5 0 10.708-.708L4.354.646zM4.5 17V1h-1v16h1z" fill="#E31B40"/></svg><svg viewBox="0 0 49 24" id="burger" xmlns="http://www.w3.org/2000/svg"><path d="M48.13 0H0v3.057h48.13zm0 20.748H0v3.057h48.13zm0-10.374H12.667v3.057H48.13z"/></svg><svg fill="none" viewBox="0 0 8 7" id="checkbox" xmlns="http://www.w3.org/2000/svg"><path d="M.818 1.09L4 5.546l1.59-2.227 1.592-2.227" stroke="#01BF2B" stroke-width="1.273"/></svg><svg viewBox="0 0 24 24" id="close" xmlns="http://www.w3.org/2000/svg"><path d="M7.257 17.45l-.707-.707 4.243-4.243L6.55 8.257l.707-.707 4.243 4.243 4.243-4.243.707.707-4.243 4.243 4.243 4.243-.707.707-4.243-4.243-4.243 4.243z"/></svg><svg fill="none" viewBox="0 0 65 65" id="guarantee__grid-item-1" xmlns="http://www.w3.org/2000/svg"><path d="M36.871 46.147a.904.904 0 01-1.08-1.43l4.615-4.538c.297-.292.767-.32 1.17-.427a.995.995 0 10-1.214-1.232c-.114.4-.149.87-.446 1.161l-4.615 4.534a.903.903 0 01-1.41-1.105l6.385-10.755a.999.999 0 01.306-.322l2.883-1.918.034-.023a1 1 0 011.267.13l1.053 1.068 4.14 4.212a1 1 0 01.108 1.27l-1.997 2.884a1 1 0 01-.327.3l-10.872 6.19zm8.559-16.464a1 1 0 01-.054-1.342l1.884-2.257a1 1 0 011.48-.06l5.486 5.58a1 1 0 01-.086 1.48l-2.29 1.843a1 1 0 01-1.34-.078l-5.08-5.166z" fill="#2D2C2C"/><path d="M42.818 10a3 3 0 013 3v11.598c0 .274-.096.54-.271.75-.703.847-2.079.35-2.079-.75v-9.25a3 3 0 00-3-3H15.345a3 3 0 00-3 3v28.687c0 1.108.279 1.899.815 2.384.738.667 1.98.603 3.065.36 1.304-.294 2.726-.01 3.754.844 4.893 4.065 12.506 5.302 20.291 5.933 1.728.14 3.194-1.238 3.194-2.972v-5.47a1.177 1.177 0 012.354 0v7.866c0 1.665-1.341 3.004-3.005 2.94C34.193 55.582 10 53.855 10 45.061V13a3 3 0 013-3h29.818z" fill="#2D2C2C"/><path d="M23.186 16.164h9.447a.845.845 0 110 1.69h-9.447a.845.845 0 110-1.69zm-4.8 4.576h19.046a.845.845 0 010 1.69H18.385a.845.845 0 110-1.69zm0 3.451h19.046a.845.845 0 010 1.691H18.385a.845.845 0 010-1.69zm0 3.452h19.046a.845.845 0 110 1.69H18.385a.845.845 0 110-1.69zm19.891 4.444a.698.698 0 01-.698.698H18.385a.845.845 0 010-1.69h18.964c.513 0 .928.416.928.929v.063zm-9.518 13.791c-1.306-.067-2.516-1.56-3.793-3.141a.845.845 0 01.082-1.221.823.823 0 011.168.114l.048.06c.753.932 2.015 2.493 2.58 2.522.011 0 .027 0 .078-.052.75-.762 1.727-1.564 2.637-1.103.092.048.179.109.256.18.38.335.535.908.46 1.71a4.98 4.98 0 01-.043.354c-.093.58-.06 1.143.014 1.494.05.237.272.337.487.225.205-.107.504-.308.916-.684a.188.188 0 01.262.01l.92.965a.158.158 0 01-.002.22c-.46.435-1.432 1.286-2.439 1.286a1.618 1.618 0 01-.762-.186c-1.446-.761-1.088-3.302-1.038-3.59a.062.062 0 00-.103-.057c-.13.112-.254.23-.374.353a1.723 1.723 0 01-1.354.54z" fill="#2D2C2C"/></svg><svg fill="none" viewBox="0 0 65 65" id="guarantee__grid-item-2" xmlns="http://www.w3.org/2000/svg"><path d="M36.935 46.925c-.09 0-.178.015-.27.015-.92 0-1.789-.246-2.553-.462-.603-.17-1.172-.331-1.61-.331-.437 0-1.006.16-1.608.33-.766.217-1.633.463-2.555.463-.349 0-.697-.037-1.037-.113-1.351-.308-2.31-1.159-3.156-1.908-.454-.406-.882-.783-1.247-.958-.365-.176-.938-.277-1.539-.385-.89-.158-1.875-.34-2.781-.847l-5.557 11.07 10.396.134 5.952 8.068 7.565-15.076zm9.479-4.187c-.895.5-1.872.676-2.757.84-.42.064-.836.154-1.244.27l-.1.03a2.828 2.828 0 00-.278.11c-.025.013-.146.092-.27.167-.316.235-.617.486-.904.754-.54.481-1.174 1.038-1.942 1.447l-5.566 11.078 2.297 4.547 5.738-8.318 10.595.126-5.569-11.05z" fill="#F4F0F0"/><path d="M54 24.03c0-1.588-1.413-3.015-1.756-4.502-.35-1.539.3-3.427-.376-4.828-.675-1.401-2.576-2.075-3.54-3.288-.962-1.214-1.199-3.214-2.43-4.188-1.233-.974-3.201-.752-4.614-1.44-1.39-.662-2.45-2.363-3.992-2.713-1.501-.338-3.186.712-4.79.712-1.603 0-3.289-1.05-4.79-.712-1.537.35-2.6 2.05-4.001 2.713-1.413.687-3.402.475-4.615 1.438s-1.45 2.964-2.432 4.188c-.982 1.224-2.857 1.878-3.532 3.29-.676 1.411-.026 3.29-.376 4.828C12.418 21.014 11 22.442 11 24.029c0 1.587 1.418 3.02 1.762 4.515.35 1.539-.3 3.426.375 4.815.676 1.413 2.576 2.076 3.538 3.301.962 1.226 1.201 3.202 2.432 4.177.104.078.213.148.327.21 1.216.725 2.992.609 4.288 1.228 1.4.675 2.464 2.376 4.001 2.726 1.501.338 3.19-.725 4.79-.725 1.601 0 3.289 1.063 4.79.725.265-.064.52-.164.759-.297.972-.518 1.784-1.486 2.702-2.116.03-.019.062-.034.091-.053.144-.096.293-.183.448-.26.175-.08.355-.147.54-.2 1.205-.395 2.679-.39 3.738-1.013.118-.067.23-.142.338-.225 1.216-.975 1.45-2.964 2.431-4.177.981-1.213 2.864-1.876 3.54-3.301.675-1.39.026-3.276.375-4.815C52.587 27.05 54 25.63 54 24.029zM41.351 38.126a16.645 16.645 0 117.803-14.097 16.543 16.543 0 01-7.803 14.097z" fill="#F4F0F0"/><path d="M32.503 9.338A14.676 14.676 0 1047.2 24.035 14.713 14.713 0 0032.503 9.338z" fill="#F4F0F0"/><path fill-rule="evenodd" clip-rule="evenodd" d="M32.306 34.333l-5.931-7.76a7.306 7.306 0 1111.863 0l-1.658 2.169-2.05-2.682.95-1.244c.029-.035.056-.07.082-.107l.006-.008a4.047 4.047 0 10-6.572-.067l.003.004c.06.084.122.166.188.246l5.17 6.764-2.05 2.685z" fill="#2D2C2C"/><path fill-rule="evenodd" clip-rule="evenodd" d="M32.483 20.312c.078.008.154.02.23.036l.046-.012.12-.262.021-.01.1.023.094.04.01.02-.056.283.03.038c.072.03.14.066.207.105l.05.003.195-.212.023-.004.087.053.077.067.004.023-.141.251.018.046c.058.052.112.106.163.164l.046.018.252-.142.022.004.067.077.053.088-.003.023-.212.195.002.05c.04.066.075.134.106.206l.038.03.282-.056.02.01.04.095.024.1-.01.02-.263.12-.012.047c.016.075.029.152.036.23l.027.04.286.034.016.017.009.101-.009.102-.016.017-.286.033-.027.042a1.96 1.96 0 01-.036.229l.012.047.263.12.01.02-.024.1-.04.094-.02.011-.282-.057-.038.031a1.94 1.94 0 01-.106.207l-.002.049.212.195.003.023-.053.088-.067.077-.022.004-.252-.142-.046.018a1.952 1.952 0 01-.164.164l-.017.046.141.251-.004.023-.077.067-.087.053-.023-.004-.195-.212-.05.003a1.898 1.898 0 01-.206.105l-.031.038.057.283-.011.02-.094.04-.1.023-.02-.01-.12-.262-.048-.012a1.985 1.985 0 01-.229.036l-.041.026-.034.287-.016.016-.102.008-.102-.008-.017-.016-.033-.287-.041-.026a1.98 1.98 0 01-.23-.036l-.047.012-.12.262-.02.01-.1-.023-.094-.04-.01-.02.056-.283-.03-.037a1.979 1.979 0 01-.207-.106l-.05-.003-.195.212-.023.004-.087-.053-.077-.067-.004-.023.141-.251-.018-.046a1.952 1.952 0 01-.163-.164l-.046-.018-.252.142-.022-.004-.067-.078-.053-.087.003-.023.212-.195-.002-.05a1.947 1.947 0 01-.106-.206l-.038-.03-.282.056-.02-.01-.04-.095-.024-.1.01-.02.263-.12.012-.047a1.943 1.943 0 01-.036-.23l-.027-.04-.286-.034-.016-.017-.009-.102.009-.101.016-.017.286-.033.027-.042c.007-.078.02-.154.036-.229l-.012-.047-.263-.12-.01-.02.024-.1.04-.095.02-.01.282.057.038-.031c.031-.072.066-.14.106-.207l.003-.05-.213-.194-.003-.023.053-.088.067-.077.022-.004.252.142.046-.018c.051-.058.106-.113.164-.164l.017-.046-.141-.251.004-.023.077-.067.087-.053.023.004.195.212.05-.003c.066-.039.135-.074.206-.105l.031-.038-.057-.283.011-.02.094-.04.1-.023.02.01.12.262.048.012c.075-.016.151-.028.229-.036l.041-.026.034-.287.016-.016.102-.008.102.008.016.016.034.287.041.026zm-.193 1.194a.765.765 0 110 1.53.765.765 0 010-1.53z" fill="#2D2C2C"/></svg><svg fill="none" viewBox="0 0 65 65" id="guarantee__grid-item-3" xmlns="http://www.w3.org/2000/svg"><path fill-rule="evenodd" clip-rule="evenodd" d="M35.709 7.495a.6.6 0 00-.978-.353l-7.015 5.921a.6.6 0 00.184 1.023l8.635 3.115a.6.6 0 00.794-.67l-.584-3.261a22.905 22.905 0 019.026 1.654 22.213 22.213 0 019.314 7.049 21.5 21.5 0 014.328 10.698 21.542 21.542 0 01-1.84 11.402 22.296 22.296 0 01-7.513 8.965 22.995 22.995 0 01-11.12 4.04 22.91 22.91 0 01-11.641-2.01 22.238 22.238 0 01-7.185-5.281h19.85a2 2 0 002-2V25.546a2 2 0 00-2-2H5a2 2 0 00-2 2v22.24a2 2 0 002 2h12.507a24.176 24.176 0 008.952 7.097 24.91 24.91 0 0012.66 2.188 24.995 24.995 0 0012.086-4.393 24.296 24.296 0 008.185-9.771 23.542 23.542 0 002.01-12.46 23.5 23.5 0 00-4.73-11.693 24.214 24.214 0 00-10.15-7.685 24.912 24.912 0 00-10.133-1.79l-.678-3.784zM8.566 30.114a1 1 0 011-1h26.627a1 1 0 011 1v2.771a1 1 0 01-1 1H9.566a1 1 0 01-1-1v-2.771zm15.796 8.469a1 1 0 00-1 1v1.702a1 1 0 001 1h7.256a1 1 0 001-1v-1.702a1 1 0 00-1-1h-7.256z" fill="#F4F0F0"/></svg><svg fill="none" viewBox="0 0 65 65" id="guarantee__grid-item-4" xmlns="http://www.w3.org/2000/svg"><path fill-rule="evenodd" clip-rule="evenodd" d="M31.813 8.208c-1.328.42-2.57 1.588-3.107 2.919-.24.592-.24.613-.27 5.642-.028 4.845-.02 5.076.181 5.738.416 1.368 1.572 2.616 2.93 3.163.576.231.715.24 4.256.29l3.661.052.128.373c.39 1.132 1.369 2.2 2.554 2.786 1.242.613 1.879.617 2.167.014.15-.315.15-.383-.003-.832-.206-.602-.216-1.567-.022-2.031l.145-.347 2.383-.035c2.21-.032 2.425-.052 2.977-.272 1.355-.541 2.515-1.792 2.931-3.161.201-.662.209-.893.18-5.738-.029-5.029-.03-5.05-.269-5.642-.544-1.35-1.787-2.505-3.142-2.924-.654-.202-.904-.207-8.859-.202-7.857.006-8.21.014-8.821.207zm9.792 3.193c1.111.261 1.93.93 2.404 1.967.503 1.098.496 2.288-.02 3.305-.143.284-.586.785-1.12 1.269-.983.892-1.26 1.336-1.385 2.223-.047.332-.144.675-.215.76-.346.417-.958.36-1.271-.118-.151-.23-.159-.353-.06-.949.191-1.153.699-2.023 1.72-2.948.953-.864 1.157-1.203 1.157-1.922 0-1.302-.906-2.13-2.314-2.115-.761.008-1.201.16-1.653.57-.453.411-.572.775-.627 1.917-.062 1.273-.193 1.516-.819 1.516-.569 0-.755-.269-.8-1.157-.071-1.413.287-2.52 1.067-3.3.991-.99 2.45-1.368 3.936-1.018zm-30.219 2.524c-1.327.42-2.57 1.587-3.107 2.918l-.24.595-.027 13.219c-.027 12.983-.024 13.23.178 13.894.26.86.908 1.831 1.566 2.351.525.415 1.082.743 1.148.678.02-.02-.03-.233-.113-.472a7.759 7.759 0 01-.25-1.146c-.064-.451-.194-.852-.353-1.093-.588-.89-.572-.48-.54-14.273.022-9.914.057-12.73.159-13.028.272-.797 1.245-1.769 2.04-2.037.287-.098 2.146-.136 7.657-.16l7.276-.033v-1.626l-7.379.005c-7.054.006-7.407.015-8.015.208zm43.174 1.463c0 .98.024 1.12.252 1.465.588.89.572.48.542 14.273-.032 14.482.058 13.19-.99 14.237-1.016 1.015-.483.956-8.96.99l-7.367.03-.07.38a4.517 4.517 0 01-.262.815l-.191.437 7.885-.028 7.885-.028.595-.24c1.357-.547 2.515-1.796 2.928-3.158.206-.676.208-.862.181-13.904l-.027-13.22-.24-.594c-.306-.758-1.052-1.73-1.675-2.185l-.486-.353v1.084zm-40.64 2.676c-.117.148-.212.394-.212.547 0 .154.095.4.211.548l.212.27H25.54l.212-.27a.842.842 0 000-1.095l-.212-.27H14.131l-.212.27zm0 3.266c-.117.148-.212.395-.212.548 0 .153.095.4.211.548l.212.269H25.54l.212-.27a.843.843 0 000-1.095l-.212-.269H14.131l-.212.27zm27.2.778c.418.372.444.73.08 1.094-.369.368-.632.39-.98.08-.417-.373-.443-.731-.078-1.095.368-.368.631-.39.979-.08zm-23.115 2.489c-.117.148-.212.394-.212.547 0 .154.095.4.212.548l.211.27h7.324l.212-.27c.116-.148.212-.394.212-.548 0-.153-.096-.4-.212-.547l-.212-.27h-7.324l-.211.27zm8.265 4.056c-1.362.566-2.246 1.378-2.825 2.595l-.392.824-3.626.032c-3.53.032-3.641.04-4.22.273-1.36.548-2.516 1.795-2.931 3.163-.201.662-.209.893-.18 5.738.028 5.028.03 5.05.269 5.642.544 1.35 1.787 2.505 3.142 2.923.653.202.912.208 8.822.208 7.91 0 8.17-.006 8.823-.208 1.355-.418 2.598-1.574 3.142-2.923.24-.592.24-.614.27-5.642.028-4.845.02-5.076-.181-5.738-.416-1.37-1.576-2.62-2.93-3.161-.553-.22-.768-.24-2.978-.272l-2.383-.035-.145-.347c-.191-.457-.185-1.44.013-2 .396-1.122-.382-1.616-1.69-1.072zm12.978 6.56c-.116.148-.212.394-.212.547 0 .154.096.4.212.548l.212.27h11.409l.212-.27a.842.842 0 000-1.095l-.212-.27H39.46l-.212.27zm-9.49 2.451a.72.72 0 01.133.925c-.321.49-6.406 6.782-6.647 6.874a.745.745 0 01-.472.004c-.312-.12-3.171-2.827-3.272-3.099-.1-.266.09-.76.343-.895.457-.245.691-.12 1.928 1.024l1.213 1.123 2.833-2.965c1.557-1.63 2.928-3.033 3.047-3.116.24-.17.627-.116.895.125zm9.5.782c-.304.324-.297.883.015 1.176l.236.222h11.34l.221-.237c.304-.323.298-.882-.014-1.175l-.236-.222H39.48l-.222.236zm-.01 3.3c-.116.148-.212.394-.212.547 0 .154.096.4.212.548l.212.269h7.303l.222-.236c.304-.324.297-.882-.014-1.175-.234-.22-.28-.222-3.874-.222H39.46l-.212.269zm-3.28 8.24a7.067 7.067 0 01-1.277.9c-1.313.688-1.54.72-5.444.771l-3.507.046-.31.66c-.28.602-.305.734-.263 1.453.077 1.338.774 2.4 1.91 2.908l.614.276 4.932-.03 4.933-.029.51-.271a3.46 3.46 0 001.5-1.566c.333-.725.333-2.031 0-2.756-.45-.983-1.453-1.736-2.473-1.857l-.498-.059-.03-.487-.03-.487-.568.529zm-7.082 2.439c.47.92 1.294 1.581 2.398 1.924 1.858.578 3.974-.265 4.83-1.924.21-.408.532-.436 1.183-.102.549.28.82.755.82 1.432 0 .627-.201 1.012-.687 1.314l-.385.24H32.5c-4.183 0-4.572-.015-4.881-.184-.478-.261-.735-.733-.736-1.35 0-.698.265-1.168.82-1.453.651-.333.974-.305 1.183.103z" fill="#2D2C2C"/></svg><svg viewBox="0 0 502.664 502.664" id="icon" xmlns="http://www.w3.org/2000/svg"><path d="M153.821 358.226L0 274.337v-46.463l153.821-83.414v54.574L46.636 250.523l107.185 53.431v54.272zm26.273 29.358L282.103 115.08h32.227L212.084 387.584h-31.99zm168.749-29.358v-54.272l107.164-52.999-107.164-52.59v-53.927l153.821 83.522v46.183l-153.821 84.083z"/></svg><svg fill="none" viewBox="0 0 10 13" id="map-point" xmlns="http://www.w3.org/2000/svg"><path fill-rule="evenodd" clip-rule="evenodd" d="M4.9.006c-.557.067-.876.139-1.234.279A4.619 4.619 0 001.37 2.254a4.9 4.9 0 00-.63 2.973c.192 1.602 1.286 3.813 3.1 6.263.43.579.98 1.272 1.107 1.392.167.157.374.157.541 0 .126-.12.678-.813 1.107-1.392 1.633-2.204 2.68-4.206 3.01-5.76.086-.4.113-.66.113-1.075a4.72 4.72 0 00-1.313-3.267C7.708.661 6.887.22 5.922.056 5.694.017 5.065-.014 4.9.006zm.6 2.35c.909.129 1.66.81 1.906 1.727.065.241.09.727.05.99a2.37 2.37 0 01-1.254 1.754 2.076 2.076 0 01-1.21.228 1.908 1.908 0 01-.76-.228 2.37 2.37 0 01-1.255-1.753c-.04-.264-.015-.75.05-.991C3.33 2.95 4.404 2.2 5.5 2.356z" fill="#E31B40"/></svg><svg fill="none" viewBox="0 0 12 11" id="phone--red" xmlns="http://www.w3.org/2000/svg"><path fill-rule="evenodd" clip-rule="evenodd" d="M2.931.023c-.366.14-1.05.814-1.685 1.66-.252.335-.45.64-.553.854l-.084.171.027.23c.21 1.825 1.73 4.208 3.766 5.91 1.436 1.201 2.987 1.977 4.265 2.135.21.026.223.025.355-.029.542-.222 1.822-1.25 2.306-1.853.307-.383.352-.568.21-.857-.097-.197-.2-.287-.744-.654-1.11-.748-1.903-1.153-2.257-1.152-.265 0-.414.11-.845.616-.15.179-.288.324-.304.324-.052 0-.422-.15-.645-.262a5.01 5.01 0 01-1.933-1.71 5.874 5.874 0 01-.522-1.024l-.055-.163.09-.08c.05-.044.198-.173.33-.286.41-.35.507-.486.524-.737a.732.732 0 00-.042-.305c-.07-.22-.32-.722-.55-1.111-.26-.441-.825-1.29-.953-1.43-.187-.209-.507-.321-.7-.247z" fill="#E31B40"/></svg><svg fill="none" viewBox="0 0 15 24" id="slider-next" xmlns="http://www.w3.org/2000/svg"><path d="M2 2l10 10L2 22" stroke="#A61B2D" stroke-width="4"/></svg><svg fill="none" viewBox="0 0 15 24" id="slider-prev" xmlns="http://www.w3.org/2000/svg"><path d="M13 2L3 12l10 10" stroke="#A61B2D" stroke-width="4"/></svg><svg viewBox="0 0 44 43" id="social-button" xmlns="http://www.w3.org/2000/svg"><path fill-rule="evenodd" clip-rule="evenodd" d="M1.116.143c-.35.174-.742.559-.94.924-.138.254-.15 1.106-.171 12.182-.016 8.24.006 12.015.07 12.253.115.433.621 1.007 1.07 1.213.292.134.58.158 1.908.16l1.563.002.027 2.796.027 2.796.232.399c.51.875 1.514 1.258 2.362.901.17-.072 2.465-1.651 5.098-3.51l4.788-3.378 6.956-.024 6.956-.024.364-.239c.2-.131.472-.402.602-.6l.237-.362.026-12.016c.018-8.489-.002-12.112-.069-12.342-.122-.428-.557-.919-.987-1.116C30.905.007 30.224 0 16.147 0 2.629 0 1.379.012 1.116.143zM23.41 7.965c.97.454 1.425 1.624 1 2.566-.201.446-.768.96-1.188 1.078-.218.061-2.594.092-7.12.092h-6.79l-.44-.207c-1.451-.682-1.455-2.803-.007-3.483l.446-.21 6.877.002c6.518 0 6.896.01 7.222.162zm12.83 9.525c-.028 7.752-.041 8.429-.183 8.907-.615 2.069-1.88 3.403-3.965 4.178-.4.15-.892.163-7.095.204l-6.667.043-2.962 2.097a711.666 711.666 0 00-3.133 2.225c-.17.128-.17.128 0 .318.094.105.326.274.515.377.342.185.377.186 7.254.21l6.91.025 4.738 3.348c2.606 1.841 4.863 3.4 5.016 3.465.369.157 1.072.15 1.467-.017a2.38 2.38 0 00.605-.412c.556-.539.566-.596.598-3.637l.03-2.753h1.322c.728 0 1.517-.042 1.753-.093a1.89 1.89 0 001.33-1.044l.226-.458v-11.83c0-9.07-.025-11.915-.105-12.188-.138-.468-.794-1.136-1.238-1.26-.209-.058-1.462-.093-3.36-.094H36.27l-.03 8.389zm-12.744-1.656c.442.24.677.499.895.984a1.93 1.93 0 01-.667 2.365l-.4.28-6.963.026c-4.872.018-7.061-.003-7.288-.069a2.007 2.007 0 01-.628-.365c-.874-.773-.896-2.07-.05-2.9.57-.557.373-.544 7.922-.525 6.817.017 6.836.018 7.179.204z"/></svg><svg viewBox="0 0 19 19" id="social-button-phone" xmlns="http://www.w3.org/2000/svg"><path fill-rule="evenodd" clip-rule="evenodd" d="M4.008.04c-.632.243-1.812 1.405-2.91 2.866-.435.58-.775 1.106-.954 1.476L0 4.678l.046.397c.363 3.152 2.985 7.268 6.502 10.209 2.48 2.074 5.157 3.415 7.362 3.687.363.045.385.044.614-.05.936-.384 3.144-2.16 3.98-3.202.53-.661.608-.98.362-1.48-.167-.34-.344-.495-1.284-1.129-1.916-1.292-3.285-1.991-3.897-1.99-.456 0-.714.19-1.457 1.065-.261.308-.498.56-.526.56-.09 0-.729-.26-1.113-.454a8.65 8.65 0 01-3.337-2.955c-.312-.469-.758-1.344-.901-1.767l-.095-.281.155-.139c.085-.076.342-.299.571-.494.708-.605.874-.84.903-1.273a1.265 1.265 0 00-.073-.527c-.122-.38-.55-1.247-.948-1.919C6.414 2.174 5.438.71 5.218.466 4.895.105 4.343-.09 4.008.04z"/></svg><svg viewBox="0 0 23 20" id="social-button-tg" xmlns="http://www.w3.org/2000/svg"><path fill-rule="evenodd" clip-rule="evenodd" d="M11.174 4.062C5.244 6.295.344 8.154.283 8.192.136 8.287 0 8.513 0 8.66a.65.65 0 00.25.494c.07.048 1.293.51 2.719 1.028 1.425.517 2.613.962 2.64.99.026.026.492 1.45 1.035 3.162.543 1.713 1.018 3.18 1.056 3.26.038.08.13.182.206.226.153.092.468.108.614.032.052-.027.734-.559 1.514-1.18 1.705-1.36 1.648-1.318 1.879-1.368.365-.08.436-.04 2.579 1.479 3.76 2.664 3.487 2.481 3.725 2.481.246 0 .42-.106.538-.328C18.872 18.715 22.7.667 22.666.493c-.05-.266-.336-.497-.61-.493-.055 0-4.952 1.829-10.882 4.062zm6.585-.033c.03.029.053.084.053.122 0 .039-1.63 1.548-3.62 3.354-4.845 4.392-5.037 4.57-5.166 4.785-.17.284-.236.57-.388 1.698-.08.591-.167 1.08-.203 1.135-.065.101-.249.13-.364.06-.033-.02-.32-.92-.639-2-.615-2.085-.65-2.268-.503-2.6.04-.088.137-.22.216-.293.177-.163 10.397-6.312 10.492-6.312a.2.2 0 01.122.051z"/></svg><svg viewBox="0 0 19 19" id="social-button-wa" xmlns="http://www.w3.org/2000/svg"><path fill-rule="evenodd" clip-rule="evenodd" d="M8.812.006c-1.436.14-2.52.45-3.694 1.057A9.458 9.458 0 00.98 5.278C.637 5.975.475 6.402.295 7.085.068 7.945.002 8.468 0 9.42c-.001.474.019.988.045 1.189.203 1.522.681 2.833 1.48 4.062l.267.409-.592 1.745c-.325.96-.587 1.75-.58 1.756.006.007.82-.247 1.81-.563.988-.316 1.81-.574 1.827-.574.016 0 .169.087.34.192.17.106.527.297.793.424a9.51 9.51 0 007.617.272 9.586 9.586 0 005.7-6.428c.233-.89.293-1.377.293-2.41 0-1.033-.06-1.52-.294-2.41-.897-3.409-3.633-6.058-7.085-6.862A8.996 8.996 0 009.705.006c-.41-.008-.81-.008-.893 0zM6.543 4.414a.578.578 0 01.192.201c.111.199 1.015 2.374 1.042 2.506.034.168-.131.454-.501.87-.386.433-.469.572-.435.728.063.283.923 1.423 1.453 1.924.823.777 2.066 1.516 2.62 1.556.285.02.389-.06.825-.64.197-.262.408-.526.468-.586.144-.143.357-.174.595-.085.307.114 2.18 1.025 2.312 1.124l.126.095-.021.394c-.053 1.01-.409 1.535-1.347 1.991-.893.434-1.591.422-2.96-.05-1.834-.633-2.808-1.239-4.128-2.565a13.952 13.952 0 01-1.667-1.992C4.233 8.62 3.894 7.644 3.995 6.652c.08-.795.359-1.381.92-1.942.272-.271.628-.383 1.163-.365.227.007.393.032.465.07z"/></svg><svg viewBox="0 0 24 21" id="tg-button-icon" xmlns="http://www.w3.org/2000/svg"><path fill-rule="evenodd" clip-rule="evenodd" d="M11.84 4.994C5.912 7.227 1.01 9.086.95 9.124c-.147.094-.283.319-.283.467a.65.65 0 00.25.495c.07.048 1.293.51 2.719 1.027 1.425.518 2.613.963 2.64.99.026.027.492 1.45 1.035 3.163.543 1.712 1.018 3.179 1.056 3.259.038.08.13.182.206.227.153.091.468.108.614.032.052-.028.734-.56 1.514-1.181 1.705-1.359 1.648-1.317 1.879-1.368.365-.08.436-.039 2.579 1.48 3.76 2.663 3.487 2.48 3.725 2.48.246 0 .42-.105.538-.327.117-.221 3.945-18.27 3.911-18.444-.05-.266-.336-.496-.61-.492-.055 0-4.952 1.828-10.882 4.062zm6.586-.033a.19.19 0 01.053.122c0 .039-1.63 1.548-3.62 3.354-4.845 4.392-5.037 4.57-5.166 4.784-.17.285-.236.571-.388 1.699-.08.59-.167 1.08-.203 1.135-.065.1-.249.13-.364.059-.033-.02-.32-.92-.639-2-.615-2.084-.65-2.267-.503-2.599.04-.088.137-.22.216-.293.177-.164 10.397-6.312 10.492-6.313a.2.2 0 01.122.052z"/></svg><svg viewBox="0 0 29 29" id="tg-icon" xmlns="http://www.w3.org/2000/svg"><circle cx="14.279" cy="14.279" r="14.001"/><path fill-rule="evenodd" clip-rule="evenodd" d="M13.4 10.74c-4.187 1.508-7.646 2.762-7.689 2.788-.103.063-.2.215-.2.315 0 .123.077.268.177.334.05.032.913.344 1.92.693 1.006.35 1.844.65 1.863.668.018.018.347.978.73 2.134.384 1.155.72 2.145.746 2.199a.425.425 0 00.145.153c.109.062.33.073.434.021a35.2 35.2 0 001.069-.796c1.203-.917 1.163-.889 1.326-.923.257-.054.308-.026 1.82.998 2.655 1.797 2.462 1.674 2.63 1.674a.4.4 0 00.38-.221c.082-.15 2.784-12.327 2.76-12.445-.035-.179-.237-.334-.43-.332-.04 0-3.496 1.234-7.682 2.74zm4.648-.021a.13.13 0 01.037.082c0 .026-1.15 1.044-2.556 2.263-3.42 2.963-3.555 3.083-3.646 3.228-.12.192-.166.386-.274 1.146-.056.4-.118.729-.143.766-.046.068-.176.088-.257.04-.023-.014-.226-.62-.45-1.349-.435-1.407-.46-1.53-.356-1.754a.729.729 0 01.152-.198c.126-.11 7.34-4.259 7.407-4.26.026 0 .065.016.086.036z"/></svg><svg fill="none" viewBox="0 0 20 20" id="tg-icon-contacts" xmlns="http://www.w3.org/2000/svg"><rect x=".608" y=".926" width="19.085" height="19.075" rx="2" style="transition:all var(--transition-time)" fill="var(--fill-block)"/><path fill-rule="evenodd" clip-rule="evenodd" d="M9.5 7.654A724.26 724.26 0 003.387 9.97c-.083.053-.159.179-.159.262 0 .103.06.223.14.278.04.026.726.286 1.526.576s1.467.54 1.482.555c.015.016.277.814.581 1.775.305.96.572 1.783.593 1.828a.347.347 0 00.115.128c.087.05.264.06.345.017.03-.015.412-.313.85-.662.957-.762.925-.739 1.055-.767.205-.045.245-.022 1.448.83 2.11 1.494 1.957 1.392 2.09 1.392.139 0 .236-.06.302-.184.066-.125 2.215-10.25 2.196-10.348a.366.366 0 00-.343-.276c-.03 0-2.78 1.026-6.108 2.279zm3.696-.019c.017.016.03.047.03.069 0 .022-.914.868-2.032 1.881-2.72 2.464-2.827 2.564-2.9 2.685-.095.16-.132.32-.217.953-.045.331-.094.605-.114.636-.037.057-.14.074-.205.034-.018-.012-.18-.517-.358-1.122-.345-1.17-.365-1.272-.282-1.458a.603.603 0 01.12-.165c.1-.092 5.837-3.541 5.89-3.541.021 0 .052.012.068.028z" style="transition:all var(--transition-time)" fill="var(--fill-figure)"/></svg><svg viewBox="0 0 21 21" id="wa-button-icon" xmlns="http://www.w3.org/2000/svg"><path fill-rule="evenodd" clip-rule="evenodd" d="M9.812 1.006c-1.436.14-2.52.45-3.694 1.057A9.458 9.458 0 001.98 6.278c-.344.697-.506 1.124-.686 1.807-.227.86-.293 1.383-.295 2.336-.001.474.019.988.045 1.189.203 1.522.681 2.833 1.48 4.062l.267.409-.592 1.745c-.325.96-.587 1.75-.58 1.756.006.007.82-.247 1.81-.563.988-.316 1.81-.574 1.827-.574.016 0 .169.087.34.192.17.106.527.297.793.424a9.51 9.51 0 007.617.272 9.586 9.586 0 005.7-6.428c.234-.89.293-1.377.293-2.41 0-1.033-.06-1.52-.294-2.41-.897-3.409-3.633-6.058-7.085-6.862a8.996 8.996 0 00-1.916-.217c-.41-.008-.81-.008-.893 0zM7.543 5.414a.578.578 0 01.192.201c.111.199 1.015 2.374 1.042 2.506.034.168-.131.454-.501.87-.386.433-.469.572-.435.728.063.283.923 1.423 1.453 1.924.823.777 2.066 1.516 2.62 1.556.285.02.389-.06.825-.64.197-.262.408-.526.468-.586.144-.143.357-.174.595-.085.307.114 2.18 1.025 2.312 1.124l.126.095-.021.394c-.053 1.01-.409 1.535-1.347 1.991-.893.434-1.591.422-2.96-.05-1.834-.633-2.808-1.239-4.128-2.565a13.95 13.95 0 01-1.667-1.992C5.233 9.62 4.894 8.644 4.995 7.652c.08-.795.359-1.381.92-1.942.272-.271.628-.383 1.163-.365.227.007.393.032.465.07z"/></svg><svg viewBox="0 0 30 29" id="wa-icon" xmlns="http://www.w3.org/2000/svg"><path fill-rule="evenodd" clip-rule="evenodd" d="M14.104 7.442c-1 .097-1.753.313-2.57.735a6.582 6.582 0 00-2.88 2.934c-.24.484-.352.781-.477 1.257-.158.599-.204.963-.205 1.625-.001.33.013.688.031.828a6.64 6.64 0 001.03 2.826l.186.285-.412 1.215a41.554 41.554 0 00-.404 1.222c.004.004.571-.172 1.26-.392.688-.22 1.26-.4 1.271-.4.011 0 .118.06.236.134.119.074.367.207.552.295a6.62 6.62 0 005.301.19 6.67 6.67 0 003.966-4.474c.163-.619.205-.958.205-1.677 0-.719-.042-1.058-.205-1.677a6.662 6.662 0 00-4.93-4.775 6.26 6.26 0 00-1.334-.152 10.788 10.788 0 00-.62 0zm-1.579 3.067a.403.403 0 01.134.14c.077.139.706 1.652.725 1.744.023.117-.092.316-.349.605-.269.302-.326.398-.302.507.043.197.642.99 1.01 1.339.573.541 1.438 1.055 1.824 1.083.198.014.27-.042.574-.445a5.93 5.93 0 01.326-.408c.1-.1.248-.121.414-.06.213.08 1.517.714 1.608.783l.088.066-.015.274c-.037.703-.284 1.068-.937 1.386-.621.301-1.107.293-2.06-.035-1.276-.441-1.954-.862-2.872-1.785a9.707 9.707 0 01-1.16-1.386c-.616-.88-.852-1.56-.781-2.25.056-.553.25-.962.64-1.352.19-.189.437-.267.81-.254a.952.952 0 01.323.048z"/><circle cx="14.813" cy="14.279" r="14.001"/></svg><svg fill="none" viewBox="0 0 20 20" id="wa-icon-contacts" xmlns="http://www.w3.org/2000/svg"><rect x=".697" y=".926" width="19.085" height="19.075" rx="2" style="transition:all var(--transition-time)" fill="var(--fill-block)"/><path fill-rule="evenodd" clip-rule="evenodd" d="M10.134 4.855c-.806.078-1.414.252-2.073.593a5.307 5.307 0 00-2.323 2.365 4.7 4.7 0 00-.385 1.013 4.446 4.446 0 00-.165 1.31c0 .267.01.555.025.668.114.854.383 1.59.831 2.279l.15.23-.332.978c-.183.539-.33.982-.326.986.003.003.46-.139 1.016-.316a60.183 60.183 0 011.025-.322c.01 0 .095.048.19.107.097.06.297.167.446.238 1.35.645 2.894.7 4.276.153a5.379 5.379 0 003.199-3.606c.131-.5.165-.773.165-1.353 0-.579-.034-.853-.165-1.352a5.372 5.372 0 00-3.977-3.85 5.052 5.052 0 00-1.075-.121 8.692 8.692 0 00-.502 0zM8.861 7.328a.324.324 0 01.108.113c.062.111.57 1.332.584 1.405.02.095-.073.255-.281.488-.217.243-.263.321-.244.41.035.158.518.797.816 1.078.461.437 1.16.85 1.47.873.16.012.218-.033.463-.358.11-.148.23-.296.263-.33.08-.08.2-.097.334-.047.172.064 1.224.575 1.297.63l.071.054-.012.22c-.03.567-.229.862-.756 1.118-.5.243-.893.237-1.66-.028-1.03-.356-1.577-.695-2.318-1.44a7.83 7.83 0 01-.936-1.117c-.496-.71-.686-1.257-.63-1.813.046-.446.202-.775.517-1.09.153-.152.352-.215.653-.205.127.004.22.018.26.04z" style="transition:all var(--transition-time)" fill="var(--fill-figure)"/></svg></svg>