<svg width="115" height="115" viewBox="0 0 115 115" fill="none" xmlns="http://www.w3.org/2000/svg">
<circle cx="58.5" cy="57.5" r="50.5" fill="url(#paint0_linear_331_191)"/>
<path fill-rule="evenodd" clip-rule="evenodd" d="M35.8519 0.23644C35.3611 0.383029 29.5089 6.06964 17.804 17.7742C4.15837 31.4194 0.431838 35.277 0.242955 35.9517C-0.080985 37.11 -0.080985 77.8645 0.242955 79.0228C0.590872 80.2667 34.7095 114.392 35.9654 114.752C37.1129 115.081 77.8527 115.084 79.0284 114.755C80.272 114.407 114.389 80.2804 114.749 79.0243C115.084 77.8591 115.084 37.1153 114.749 35.9502C114.389 34.6941 80.272 0.567794 79.0284 0.219799C77.9435 -0.0836566 36.8717 -0.0679942 35.8519 0.23644ZM33.1777 42.6571C34.1032 43.5829 34.2576 44.5507 33.6633 45.7002C33.0605 46.8666 32.6068 46.9451 26.0578 47.0183C20.4523 47.0809 19.8717 47.1274 19.1105 47.576C17.239 48.6785 16.587 50.9524 17.6168 52.7852C18.5211 54.3944 19.5374 54.7953 22.7149 54.7953C25.7065 54.7953 27.5229 55.0958 28.976 55.8315C30.5668 56.6366 32.4097 58.5706 33.184 60.2472C33.8055 61.593 33.8862 62.0401 33.8784 64.0947C33.8706 66.1489 33.7871 66.5899 33.1615 67.8826C32.2616 69.7415 30.6123 71.3941 28.7438 72.3091L27.2812 73.0254L21.4432 73.1071C18.2321 73.1522 15.3326 73.1206 14.9998 73.0369C13.1944 72.5837 12.5725 70.0814 13.9279 68.7256L14.6431 68.0103L19.6165 68.0044C24.8675 67.9983 26.1178 67.8451 27.14 67.0833C29.204 65.5447 29.1737 62.3778 27.0798 60.8167C26.4757 60.3662 25.9235 60.2822 22.6758 60.1461C18.481 59.9704 17.4169 59.691 15.5371 58.2711C13.8531 56.9993 12.5747 55.0505 12.0697 52.9861C11.3369 49.9892 12.1451 47.1061 14.3916 44.7037C15.556 43.4588 16.7575 42.7124 18.4731 42.1681C19.1545 41.952 21.4104 41.8527 25.8988 41.8414L32.3458 41.825L33.1777 42.6571ZM56.6658 42.6571C57.8671 43.8587 57.7702 45.444 56.4292 46.5305C55.9966 46.881 55.3734 46.9542 52.7878 46.9588L49.6683 46.9642V59.2248V71.4854L48.8364 72.3174C47.9108 73.2432 46.9431 73.3976 45.7939 72.8032C44.5256 72.1473 44.5295 72.187 44.4666 59.2003L44.4079 47.0866L41.144 46.9642C37.9367 46.844 37.8699 46.8298 37.2905 46.1551C36.2265 44.9161 36.6025 42.9033 38.0465 42.1091C38.3756 41.9281 41.3684 41.8375 47.1849 41.8324L55.8339 41.825L56.6658 42.6571ZM76.385 42.4784C77.8559 43.1583 79.6527 44.9553 80.3324 46.4268C80.8497 47.5461 80.8634 47.8334 80.8634 57.4872C80.8634 67.141 80.8497 67.4283 80.3324 68.5477C79.6525 70.0195 77.8557 71.8165 76.385 72.4956C75.3728 72.9627 74.7261 73.0357 70.9529 73.1066C67.0764 73.1798 66.5391 73.1385 65.2895 72.6708C63.3956 71.9621 61.7487 70.4507 60.8885 68.6319L60.1895 67.1538V57.4872V47.8207L60.8885 46.3426C61.7238 44.5764 63.3709 43.0308 65.1697 42.3247C66.2907 41.8845 66.9083 41.837 70.832 41.8891C74.7611 41.9413 75.3601 42.0049 76.385 42.4784ZM99.2081 42.6647C101.077 43.5809 102.726 45.2338 103.626 47.0919C104.251 48.3846 104.335 48.8255 104.343 50.8797C104.35 52.9344 104.27 53.3815 103.648 54.7273C102.874 56.4039 101.031 58.3379 99.4402 59.143C97.9054 59.92 96.1316 60.1792 92.3508 60.1792H88.8151V65.8323V71.4854L87.9832 72.3174C86.7819 73.519 85.1969 73.4221 84.1106 72.0808C83.7211 71.5996 83.6878 70.4551 83.6878 57.4872C83.6878 44.5182 83.7211 43.3751 84.1106 42.8969C84.9589 41.8561 85.2503 41.8167 91.6287 41.8835L97.7454 41.9474L99.2081 42.6647ZM67.0915 47.2282C66.6081 47.3751 66.0957 47.7862 65.808 48.2583C65.3566 48.9986 65.3287 49.5352 65.3287 57.4872C65.3287 68.4831 65.0185 67.8879 70.7532 67.8879C74.2657 67.8879 74.9735 67.6124 75.5282 66.0295C75.9363 64.8642 75.9363 50.1103 75.5282 48.945C74.9855 47.3959 74.248 47.0934 70.8753 47.0354C69.2368 47.0073 67.5339 47.0939 67.0915 47.2282ZM88.8151 50.8536V54.7953H92.5502C95.7179 54.7953 96.4132 54.7265 97.1296 54.3423C99.8513 52.8823 99.8395 49.1841 97.1081 47.5765C96.398 47.1585 95.7352 47.0748 92.5462 46.9997L88.8151 46.9118V50.8536Z" fill="#E31B40"/>
<defs>
<linearGradient id="paint0_linear_331_191" x1="88" y1="-2.49995" x2="-11.1334" y2="17.5708" gradientUnits="userSpaceOnUse">
<stop stop-color="#D6D5D5"/>
<stop offset="0.266555" stop-color="white"/>
<stop offset="0.583024" stop-color="white"/>
<stop offset="0.889152" stop-color="#D6D4D4"/>
</linearGradient>
</defs>
</svg>
